<svg width="600" height="600" viewBox="0 0 600 600" fill="none" xmlns="http://www.w3.org/2000/svg">
<path fill-rule="evenodd" clip-rule="evenodd" d="M286.672 562.076C286.672 562.076 360.278 543.422 399.097 562.076C437.917 580.73 392.796 581.99 368.345 587.033C343.894 592.074 320.41 593.334 308.709 585.52C297.009 577.706 268.021 570.396 286.672 562.076Z" fill="#8AEBA0" fill-opacity="0.5"/>
<path fill-rule="evenodd" clip-rule="evenodd" d="M110.233 538.44C110.233 538.44 -9.4739 525.447 10.23 439.488C29.9315 353.531 41.1131 348.58 5.23258 247.702C-30.648 146.821 195.529 34.2835 307.654 137.773C419.782 241.262 480.971 173.721 559.78 233.648C638.59 293.572 586.69 467.752 499.231 538.44H110.233Z" fill="#8AEBA0" fill-opacity="0.5"/>
<path fill-rule="evenodd" clip-rule="evenodd" d="M137.272 539.485H478.489C479.458 539.485 480.245 538.698 480.245 537.729V53.83C480.245 52.8602 479.458 52.074 478.489 52.074H137.272C136.303 52.074 135.516 52.8602 135.516 53.83V537.729C135.516 538.698 136.303 539.485 137.272 539.485Z" fill="#04254E"/>
<path fill-rule="evenodd" clip-rule="evenodd" d="M156.51 520.368H459.251C459.81 520.368 460.265 519.915 460.265 519.356V72.2036C460.265 71.6439 459.81 71.1899 459.251 71.1899H156.51C155.951 71.1899 155.496 71.6439 155.496 72.2036V519.356C155.496 519.915 155.951 520.368 156.51 520.368Z" fill="#8AEBA0"/>
<path fill-rule="evenodd" clip-rule="evenodd" d="M168.471 506.646H447.29C447.983 506.646 448.547 506.084 448.547 505.391V86.1679C448.547 85.4743 447.983 84.9126 447.29 84.9126H168.471C167.778 84.9126 167.216 85.4743 167.216 86.1679V505.391C167.216 506.084 167.778 506.646 168.471 506.646Z" fill="white"/>
<path fill-rule="evenodd" clip-rule="evenodd" d="M304.41 37.8985C310.078 37.8985 314.671 33.3046 314.671 27.6376C314.671 21.9703 310.078 17.3765 304.41 17.3765C298.742 17.3765 294.149 21.9703 294.149 27.6376C294.149 33.3046 298.742 37.8985 304.41 37.8985ZM304.41 9.11328C314.511 9.11328 322.7 17.3015 322.7 27.4025V50.8425H286.121C286.121 50.8425 286.121 32.2264 286.121 27.4025C286.121 17.3015 294.309 9.11328 304.41 9.11328Z" fill="#8A54A2"/>
<path fill-rule="evenodd" clip-rule="evenodd" d="M304.41 37.8984V38.4045C310.357 38.4043 315.177 33.5842 315.177 27.6376C315.177 21.6904 310.357 16.8703 304.41 16.8703C298.464 16.8703 293.644 21.6904 293.644 27.6376C293.644 33.5842 298.464 38.4043 304.41 38.4045V37.3924C301.715 37.3921 299.279 36.301 297.513 34.5351C295.746 32.7684 294.656 30.3329 294.656 27.6376C294.656 24.942 295.746 22.5062 297.513 20.7395C299.279 18.9733 301.715 17.8827 304.41 17.882C307.105 17.8827 309.542 18.9733 311.308 20.7393C313.074 22.5062 314.165 24.942 314.165 27.6376C314.165 30.3329 313.074 32.7684 311.308 34.5351C309.542 36.301 307.105 37.3921 304.41 37.3924V37.8984ZM304.41 9.11325V9.61932C309.322 9.61958 313.765 11.6087 316.984 14.8276C320.205 18.0475 322.194 22.4903 322.194 27.4025V50.3364H286.121V50.8425H286.627C286.627 50.8425 286.627 42.5685 286.627 35.6234C286.627 32.1504 286.627 29.01 286.627 27.4025C286.627 22.4903 288.616 18.0475 291.834 14.8276C295.056 11.6087 299.499 9.61958 304.41 9.61932V8.60718C294.031 8.60743 285.615 17.0217 285.615 27.4025C285.615 29.01 285.615 32.1507 285.615 35.6234C285.615 42.5685 285.615 50.8425 285.615 50.8425V51.3486H323.206V27.4025C323.206 17.0217 314.79 8.60743 304.41 8.60718V9.11325Z" fill="#04254E"/>
<path fill-rule="evenodd" clip-rule="evenodd" d="M322.193 46.7753H317.619V25.0622C317.619 21.8084 316.913 18.7396 315.569 16.0602C314.704 14.3372 313.575 12.776 312.206 11.4319C314.696 12.6482 316.862 14.4278 318.532 16.6052C320.693 19.422 322.029 22.9003 322.178 26.6905C322.178 26.691 322.178 26.6912 322.178 26.6918C322.181 26.7064 322.181 26.7216 322.181 26.7363C322.181 26.7381 322.181 26.7398 322.181 26.7416C322.183 26.8011 322.186 26.86 322.186 26.9195C322.186 26.923 322.186 26.9263 322.188 26.9301C322.188 26.9418 322.188 26.9531 322.188 26.965C322.188 26.9714 322.188 26.9772 322.188 26.9835C322.188 26.9936 322.188 27.004 322.188 27.0141C322.188 27.0222 322.188 27.0298 322.188 27.0379C322.191 27.0473 322.191 27.0566 322.191 27.066C322.191 27.0754 322.191 27.0842 322.191 27.0936C322.191 27.1055 322.191 27.1171 322.191 27.129C322.191 27.1419 322.191 27.1543 322.191 27.1672C322.191 27.1748 322.191 27.1821 322.191 27.1897C322.191 27.2001 322.193 27.2105 322.193 27.2211C322.193 27.2284 322.193 27.236 322.193 27.2436C322.193 27.254 322.193 27.2644 322.193 27.2747C322.193 27.2821 322.193 27.2892 322.193 27.2965C322.193 27.3087 322.193 27.3205 322.193 27.3324C322.193 27.338 322.193 27.3436 322.193 27.3491C322.193 27.3669 322.193 27.3848 322.193 27.4025V46.7753Z" fill="#5954A4"/>
<path fill-rule="evenodd" clip-rule="evenodd" d="M322.416 30.6379C322.416 30.5397 322.416 30.4401 322.416 30.3419C322.416 30.4401 322.416 30.5383 322.416 30.6379ZM322.416 30.2493C322.416 30.1833 322.416 30.1174 322.416 30.0501C322.416 30.116 322.416 30.1833 322.416 30.2493ZM322.416 29.9295C322.416 29.872 322.416 29.8145 322.416 29.757C322.416 29.8145 322.416 29.872 322.416 29.9295ZM322.415 29.6321C322.415 29.5732 322.376 29.5157 322.376 29.4582C322.376 29.5157 322.415 29.5746 322.415 29.6321ZM322.376 29.3334C322.376 29.2618 322.376 29.1931 322.376 29.1215C322.376 29.1917 322.376 29.2632 322.376 29.3334ZM322.376 28.9251C322.376 28.8732 322.376 28.8241 322.376 28.7722C322.376 28.8227 322.376 28.8746 322.376 28.9251Z" fill="#04254E"/>
<path fill-rule="evenodd" clip-rule="evenodd" d="M296.037 34.4062C295.124 33.9188 294.35 33.287 293.732 32.4985C292.662 31.1359 292.034 29.2814 292.032 26.7953C292.034 24.1003 293.125 21.6648 294.891 19.8978C296.657 18.1316 299.091 17.0405 301.789 17.0403C302.027 17.0403 302.242 17.0438 302.437 17.0509C297.432 17.9775 293.644 22.3644 293.644 27.6372C293.644 27.6377 293.644 27.6377 293.644 27.6377C293.644 30.202 294.539 32.557 296.037 34.4062Z" fill="#5954A4"/>
<path fill-rule="evenodd" clip-rule="evenodd" d="M296.225 34.5043C296.161 34.4722 296.098 34.4396 296.037 34.4062C294.539 32.557 293.644 30.202 293.644 27.6377C293.644 29.2941 294.109 30.9224 294.853 32.3816C295.243 33.1407 295.706 33.8551 296.225 34.5043Z" fill="#04254E"/>
<path fill-rule="evenodd" clip-rule="evenodd" d="M323.276 27.4898C323.276 27.459 323.276 27.4294 323.276 27.399C323.276 27.429 323.276 27.4594 323.276 27.4898ZM323.276 27.4204C323.276 27.3939 323.276 27.3671 323.276 27.3406C323.276 27.3671 323.276 27.3939 323.276 27.4204ZM323.289 27.2773C323.285 26.8952 323.261 26.5149 323.221 26.1387C323.261 26.5154 323.285 26.8947 323.289 27.2773ZM323.234 26.2148C323.234 26.1903 323.23 26.1659 323.23 26.1414C323.23 26.1655 323.234 26.1907 323.234 26.2148ZM323.229 26.1511C323.229 26.1306 323.229 26.1085 323.225 26.0884C323.229 26.1093 323.229 26.1302 323.229 26.1511ZM323.227 26.0913C323.227 26.074 323.223 26.0562 323.223 26.0388C323.223 26.0562 323.227 26.074 323.227 26.0913ZM308.803 9.12347C308.188 8.97646 307.563 8.85956 306.928 8.77453L306.442 8.45166L308.803 9.12347Z" fill="#7F7F7F"/>
<path fill-rule="evenodd" clip-rule="evenodd" d="M323.206 46.7752H322.193V27.4025C322.193 27.3845 322.193 27.3668 322.193 27.3491C322.193 27.3432 322.193 27.3382 322.193 27.3324C322.193 27.3205 322.193 27.3083 322.193 27.2964C322.193 27.2893 322.193 27.2818 322.193 27.2747C322.193 27.2643 322.193 27.2539 322.193 27.2435C322.193 27.236 322.193 27.2284 322.193 27.221C322.193 27.2106 322.191 27.2 322.191 27.1896C322.191 27.1821 322.191 27.1745 322.191 27.1671C322.191 27.1545 322.191 27.1416 322.191 27.1289C322.191 27.1173 322.191 27.1051 322.191 27.0935C322.191 27.0844 322.191 27.075 322.191 27.0659C322.191 27.0565 322.191 27.0469 322.188 27.0378C322.188 27.03 322.188 27.0219 322.188 27.014C322.188 27.0039 322.188 26.9935 322.188 26.9834C322.188 26.9771 322.188 26.9713 322.188 26.965C322.188 26.9533 322.188 26.9417 322.188 26.93C322.186 26.9265 322.186 26.9229 322.186 26.9194C322.186 26.8602 322.183 26.8007 322.181 26.7415C322.181 26.74 322.181 26.738 322.181 26.7362C322.181 26.7215 322.181 26.7066 322.178 26.6917C322.178 26.6912 322.178 26.6907 322.178 26.6904C321.996 22.0619 320.048 17.8911 316.983 14.8276C314.845 12.6881 312.163 11.0917 309.165 10.2618C309.157 10.257 309.149 10.2521 309.144 10.2473L306.928 8.77441C307.563 8.85943 308.188 8.97634 308.803 9.12335L309.562 9.33944C313.499 10.4606 316.91 12.8281 319.337 15.9892C321.46 18.7544 322.829 22.1302 323.14 25.8076C323.14 25.8083 323.14 25.8093 323.14 25.8098C323.14 25.8253 323.142 25.8412 323.142 25.8567C323.142 25.8579 323.142 25.8604 323.142 25.8617C323.145 25.8764 323.145 25.8921 323.147 25.9068C323.147 25.9088 323.147 25.9105 323.147 25.9123C323.15 25.9341 323.15 25.9558 323.152 25.9774C323.152 25.9885 323.155 25.9999 323.155 26.011C323.155 26.0171 323.155 26.0226 323.155 26.0287C323.158 26.0416 323.158 26.0558 323.158 26.0689C323.16 26.074 323.16 26.0786 323.16 26.0836C323.16 26.0993 323.163 26.115 323.163 26.1307C323.163 26.1332 323.163 26.1357 323.163 26.1385C323.188 26.5148 323.203 26.8951 323.206 27.2772C323.206 27.2792 323.206 27.282 323.206 27.284C323.206 27.301 323.206 27.3182 323.206 27.3351C323.206 27.3384 323.206 27.341 323.206 27.3443C323.206 27.3637 323.206 27.3827 323.206 27.4025V46.7752Z" fill="#04254E"/>
<path fill-rule="evenodd" clip-rule="evenodd" d="M298.449 35.3601C298.12 35.1053 297.806 34.8297 297.513 34.5352C295.746 32.7685 294.656 30.333 294.656 27.6377C294.656 27.6374 294.656 27.6374 294.656 27.6374C294.656 29.1023 295.071 30.5815 295.754 31.9206C296.44 33.2594 297.391 34.4552 298.439 35.3505L298.449 35.3601ZM306.748 18.2768L305.875 18.0917C305.367 17.9833 304.889 17.8821 304.41 17.8821C304.127 17.8824 303.844 17.8994 303.568 17.9327C303.844 17.8994 304.127 17.8824 304.41 17.8821C305.218 17.8824 305.999 18.0191 306.748 18.2768Z" fill="#7F7F7F"/>
<path fill-rule="evenodd" clip-rule="evenodd" d="M297.879 36.1979C295.865 35.6632 294.145 34.666 292.935 33.1235C291.703 31.5559 291.02 29.4486 291.02 26.7953C291.022 20.8487 295.842 16.0283 301.789 16.0281C302.76 16.0283 303.406 16.085 303.924 16.1986C304.446 16.3115 304.825 16.4833 305.22 16.665C305.432 16.7626 305.653 16.8656 305.923 16.9757C305.427 16.9064 304.924 16.8704 304.41 16.8704C298.464 16.8704 293.644 21.6905 293.644 27.6376C293.644 27.6371 293.644 27.6371 293.644 27.6371C293.644 22.3644 297.431 17.9775 302.437 17.0508C302.242 17.0438 302.027 17.0402 301.789 17.0402C299.091 17.0405 296.657 18.1316 294.891 19.8978C293.125 21.6647 292.034 24.1002 292.032 26.7953C292.034 29.2814 292.662 31.1359 293.732 32.4985C294.349 33.2869 295.124 33.9188 296.037 34.4061C296.576 35.0741 297.196 35.6758 297.879 36.1979Z" fill="#5954A4"/>
<path fill-rule="evenodd" clip-rule="evenodd" d="M300.096 36.7676L297.983 36.2251C297.948 36.2163 297.912 36.2072 297.879 36.1978C297.196 35.6758 296.576 35.0741 296.037 34.406C296.098 34.4394 296.161 34.4721 296.225 34.5042C295.706 33.8549 295.243 33.1406 294.853 32.3815C294.109 30.9222 293.644 29.2939 293.644 27.6371C293.644 21.6905 298.464 16.8704 304.41 16.8704C304.924 16.8704 305.427 16.9063 305.923 16.9756C305.989 17.0032 306.06 17.031 306.133 17.0594L310.453 18.7259L306.748 18.1641C305.999 17.9799 305.217 17.8823 304.41 17.882C304.127 17.8823 303.843 17.8944 303.568 17.9182C301.209 18.1204 299.094 19.1596 297.512 20.7393C295.746 22.5062 294.656 24.942 294.656 27.6371C294.656 27.6371 294.656 27.6371 294.656 27.6373C294.656 27.6373 294.656 27.6373 294.656 27.6376C294.656 30.3329 295.746 32.7684 297.512 34.5351C297.806 34.8296 298.12 35.1052 298.449 35.36L300.096 36.7676Z" fill="#04254E"/>
<path fill-rule="evenodd" clip-rule="evenodd" d="M317.619 46.7754H316.606V25.0623C316.606 21.9548 315.931 19.0433 314.663 16.514C313.398 13.9922 311.543 11.8495 309.165 10.262C312.163 11.0919 314.845 12.6883 316.983 14.8278C320.048 17.8913 321.996 22.0621 322.178 26.6906C322.029 22.9004 320.693 19.4221 318.532 16.6053C316.862 14.428 314.696 12.6483 312.206 11.432C313.575 12.7761 314.704 14.3374 315.569 16.0603C316.913 18.7397 317.619 21.8085 317.619 25.0623V46.7754ZM322.262 27.2099C322.262 27.1913 322.262 27.1732 322.262 27.1546C322.262 27.1728 322.262 27.1917 322.262 27.2099ZM322.262 27.1448C322.262 27.1302 322.262 27.1156 322.258 27.101C322.262 27.1152 322.262 27.1302 322.262 27.1448ZM322.259 27.0936C322.259 27.0778 322.259 27.0616 322.259 27.0459C322.259 27.0616 322.259 27.0778 322.259 27.0936ZM322.259 27.0458C322.259 27.0273 322.259 27.0095 322.259 26.9914C322.259 27.0095 322.259 27.0277 322.259 27.0458ZM322.258 27.0402C322.258 26.9475 322.254 26.8555 322.25 26.7627C322.254 26.8551 322.258 26.9479 322.258 27.0402ZM322.252 26.8197C322.252 26.7968 322.252 26.7732 322.248 26.7503C322.252 26.7736 322.252 26.7968 322.252 26.8197Z" fill="#04254E"/>
<path fill-rule="evenodd" clip-rule="evenodd" d="M197.004 60.1416V78.4614H418.765V60.1416C418.765 53.0335 412.993 47.2812 405.903 47.2812H209.866C202.758 47.2812 197.004 53.0335 197.004 60.1416Z" fill="#8A54A2"/>
<path fill-rule="evenodd" clip-rule="evenodd" d="M197.004 60.1418H196.498V78.9674H419.271V60.1418C419.268 52.7534 413.274 46.7756 405.903 46.7754H209.865C202.477 46.7754 196.498 52.7546 196.498 60.1418H197.51C197.51 56.7255 198.891 53.6403 201.126 51.4039C203.362 49.1684 206.449 47.7878 209.865 47.7875H405.903C409.309 47.7878 412.396 49.1681 414.635 51.4039C416.872 53.641 418.259 56.726 418.259 60.1418V77.9556H197.51V60.1418H197.004Z" fill="#04254E"/>
<path fill-rule="evenodd" clip-rule="evenodd" d="M418.259 77.9554H197.51V73.8815H410.189V60.6181C410.189 55.782 407.796 51.0449 404.635 47.7874H405.903C409.309 47.7876 412.396 49.1679 414.635 51.4038C416.872 53.6408 418.259 56.7259 418.259 60.1416V77.9554Z" fill="#5954A4"/>
<path fill-rule="evenodd" clip-rule="evenodd" d="M418.765 78.4614H197.004V73.8815H197.51V77.9553H418.259V60.1416C418.259 56.7258 416.872 53.6408 414.635 51.4037C412.396 49.1679 409.309 47.7876 405.903 47.7873H404.635C404.468 47.6142 404.299 47.4455 404.127 47.2812H405.903C412.993 47.2812 418.765 53.0335 418.765 60.1416V78.4614Z" fill="#04254E"/>
<path fill-rule="evenodd" clip-rule="evenodd" d="M328.003 132.606H370.713C372.191 132.606 373.385 131.326 373.385 129.747C373.385 128.167 372.191 126.887 370.713 126.887H328.003C326.525 126.887 325.331 128.167 325.331 129.747C325.331 131.326 326.525 132.606 328.003 132.606Z" fill="#04254E"/>
<path fill-rule="evenodd" clip-rule="evenodd" d="M199.676 147.175H232.153C233.628 147.175 234.825 145.895 234.825 144.315C234.825 142.736 233.628 141.457 232.153 141.457H199.676C198.201 141.457 197.004 142.736 197.004 144.315C197.004 145.895 198.201 147.175 199.676 147.175Z" fill="#8AEBA0" fill-opacity="0.5"/>
<path fill-rule="evenodd" clip-rule="evenodd" d="M246.227 147.175H370.714C372.191 147.175 373.386 145.895 373.386 144.315C373.386 142.736 372.191 141.457 370.714 141.457H246.227C244.752 141.457 243.555 142.736 243.555 144.315C243.555 145.895 244.752 147.175 246.227 147.175Z" fill="#8AEBA0" fill-opacity="0.5"/>
<path fill-rule="evenodd" clip-rule="evenodd" d="M199.676 161.745H370.713C372.191 161.745 373.385 160.465 373.385 158.886C373.385 157.305 372.191 156.026 370.713 156.026H199.676C198.201 156.026 197.004 157.305 197.004 158.886C197.004 160.465 198.201 161.745 199.676 161.745Z" fill="#8AEBA0" fill-opacity="0.5"/>
<path fill-rule="evenodd" clip-rule="evenodd" d="M199.676 176.315H254.043C255.519 176.315 256.715 175.034 256.715 173.456C256.715 171.874 255.519 170.596 254.043 170.596H199.676C198.201 170.596 197.004 171.874 197.004 173.456C197.004 175.034 198.201 176.315 199.676 176.315Z" fill="#8AEBA0" fill-opacity="0.5"/>
<path fill-rule="evenodd" clip-rule="evenodd" d="M267.573 176.315H370.713C372.191 176.315 373.385 175.034 373.385 173.456C373.385 171.874 372.191 170.596 370.713 170.596H267.573C266.098 170.596 264.901 171.874 264.901 173.456C264.901 175.034 266.098 176.315 267.573 176.315Z" fill="#8AEBA0" fill-opacity="0.5"/>
<path fill-rule="evenodd" clip-rule="evenodd" d="M199.676 132.606H313.988C315.463 132.606 316.66 131.326 316.66 129.747C316.66 128.167 315.463 126.887 313.988 126.887H199.676C198.201 126.887 197.004 128.167 197.004 129.747C197.004 131.326 198.201 132.606 199.676 132.606Z" fill="#04254E"/>
<path fill-rule="evenodd" clip-rule="evenodd" d="M328.003 237.339H370.713C372.191 237.339 373.385 236.059 373.385 234.48C373.385 232.901 372.191 231.621 370.713 231.621H328.003C326.525 231.621 325.331 232.901 325.331 234.48C325.331 236.059 326.525 237.339 328.003 237.339Z" fill="#0B065A"/>
<path fill-rule="evenodd" clip-rule="evenodd" d="M199.676 251.907H232.153C233.628 251.907 234.825 250.629 234.825 249.048C234.825 247.469 233.628 246.188 232.153 246.188H199.676C198.201 246.188 197.004 247.469 197.004 249.048C197.004 250.629 198.201 251.907 199.676 251.907Z" fill="#8AEBA0" fill-opacity="0.5"/>
<path fill-rule="evenodd" clip-rule="evenodd" d="M246.227 251.907H370.714C372.191 251.907 373.386 250.629 373.386 249.048C373.386 247.469 372.191 246.188 370.714 246.188H246.227C244.752 246.188 243.555 247.469 243.555 249.048C243.555 250.629 244.752 251.907 246.227 251.907Z" fill="#8AEBA0" fill-opacity="0.5"/>
<path fill-rule="evenodd" clip-rule="evenodd" d="M199.676 266.477H370.713C372.191 266.477 373.385 265.196 373.385 263.617C373.385 262.038 372.191 260.758 370.713 260.758H199.676C198.201 260.758 197.004 262.038 197.004 263.617C197.004 265.196 198.201 266.477 199.676 266.477Z" fill="#8AEBA0" fill-opacity="0.5"/>
<path fill-rule="evenodd" clip-rule="evenodd" d="M199.676 281.047H254.043C255.519 281.047 256.715 279.766 256.715 278.187C256.715 276.608 255.519 275.328 254.043 275.328H199.676C198.201 275.328 197.004 276.608 197.004 278.187C197.004 279.766 198.201 281.047 199.676 281.047Z" fill="#8AEBA0" fill-opacity="0.5"/>
<path fill-rule="evenodd" clip-rule="evenodd" d="M267.573 281.047H370.713C372.191 281.047 373.385 279.766 373.385 278.187C373.385 276.608 372.191 275.328 370.713 275.328H267.573C266.098 275.328 264.901 276.608 264.901 278.187C264.901 279.766 266.098 281.047 267.573 281.047Z" fill="#8AEBA0" fill-opacity="0.5"/>
<path fill-rule="evenodd" clip-rule="evenodd" d="M199.676 237.339H313.988C315.463 237.339 316.66 236.059 316.66 234.48C316.66 232.901 315.463 231.621 313.988 231.621H199.676C198.201 231.621 197.004 232.901 197.004 234.48C197.004 236.059 198.201 237.339 199.676 237.339Z" fill="#04254E"/>
<path fill-rule="evenodd" clip-rule="evenodd" d="M328.003 338.407H370.713C372.191 338.407 373.385 337.127 373.385 335.548C373.385 333.969 372.191 332.689 370.713 332.689H328.003C326.525 332.689 325.331 333.969 325.331 335.548C325.331 337.127 326.525 338.407 328.003 338.407Z" fill="#0B065A"/>
<path fill-rule="evenodd" clip-rule="evenodd" d="M199.676 352.977H232.153C233.628 352.977 234.825 351.697 234.825 350.118C234.825 348.539 233.628 347.259 232.153 347.259H199.676C198.201 347.259 197.004 348.539 197.004 350.118C197.004 351.697 198.201 352.977 199.676 352.977Z" fill="#8AEBA0" fill-opacity="0.5"/>
<path fill-rule="evenodd" clip-rule="evenodd" d="M246.227 352.977H370.714C372.191 352.977 373.386 351.697 373.386 350.118C373.386 348.539 372.191 347.259 370.714 347.259H246.227C244.752 347.259 243.555 348.539 243.555 350.118C243.555 351.697 244.752 352.977 246.227 352.977Z" fill="#8AEBA0" fill-opacity="0.5"/>
<path fill-rule="evenodd" clip-rule="evenodd" d="M199.676 367.547H370.713C372.191 367.547 373.385 366.267 373.385 364.688C373.385 363.109 372.191 361.828 370.713 361.828H199.676C198.201 361.828 197.004 363.109 197.004 364.688C197.004 366.267 198.201 367.547 199.676 367.547Z" fill="#8AEBA0" fill-opacity="0.5"/>
<path fill-rule="evenodd" clip-rule="evenodd" d="M199.676 382.117H254.043C255.519 382.117 256.715 380.834 256.715 379.258C256.715 377.679 255.519 376.398 254.043 376.398H199.676C198.201 376.398 197.004 377.679 197.004 379.258C197.004 380.834 198.201 382.117 199.676 382.117Z" fill="#8AEBA0" fill-opacity="0.5"/>
<path fill-rule="evenodd" clip-rule="evenodd" d="M267.573 382.117H370.713C372.191 382.117 373.385 380.834 373.385 379.258C373.385 377.679 372.191 376.398 370.713 376.398H267.573C266.098 376.398 264.901 377.679 264.901 379.258C264.901 380.834 266.098 382.117 267.573 382.117Z" fill="#8AEBA0" fill-opacity="0.5"/>
<path fill-rule="evenodd" clip-rule="evenodd" d="M199.676 338.407H313.988C315.463 338.407 316.66 337.127 316.66 335.548C316.66 333.969 315.463 332.689 313.988 332.689H199.676C198.201 332.689 197.004 333.969 197.004 335.548C197.004 337.127 198.201 338.407 199.676 338.407Z" fill="#04254E"/>
<path fill-rule="evenodd" clip-rule="evenodd" d="M328.003 441.31H370.713C372.191 441.31 373.385 440.029 373.385 438.45C373.385 436.871 372.191 435.591 370.713 435.591H328.003C326.525 435.591 325.331 436.871 325.331 438.45C325.331 440.029 326.525 441.31 328.003 441.31Z" fill="#04254E"/>
<path fill-rule="evenodd" clip-rule="evenodd" d="M199.676 455.877H232.153C233.628 455.877 234.825 454.597 234.825 453.018C234.825 451.439 233.628 450.158 232.153 450.158H199.676C198.201 450.158 197.004 451.439 197.004 453.018C197.004 454.597 198.201 455.877 199.676 455.877Z" fill="#8AEBA0" fill-opacity="0.5"/>
<path fill-rule="evenodd" clip-rule="evenodd" d="M246.227 455.877H370.714C372.191 455.877 373.386 454.597 373.386 453.018C373.386 451.439 372.191 450.158 370.714 450.158H246.227C244.752 450.158 243.555 451.439 243.555 453.018C243.555 454.597 244.752 455.877 246.227 455.877Z" fill="#8AEBA0" fill-opacity="0.5"/>
<path fill-rule="evenodd" clip-rule="evenodd" d="M199.676 470.447H370.713C372.191 470.447 373.385 469.167 373.385 467.588C373.385 466.009 372.191 464.728 370.713 464.728H199.676C198.201 464.728 197.004 466.009 197.004 467.588C197.004 469.167 198.201 470.447 199.676 470.447Z" fill="#8AEBA0" fill-opacity="0.5"/>
<path fill-rule="evenodd" clip-rule="evenodd" d="M199.676 485.016H254.043C255.519 485.016 256.715 483.736 256.715 482.157C256.715 480.578 255.519 479.298 254.043 479.298H199.676C198.201 479.298 197.004 480.578 197.004 482.157C197.004 483.736 198.201 485.016 199.676 485.016Z" fill="#8AEBA0" fill-opacity="0.5"/>
<path fill-rule="evenodd" clip-rule="evenodd" d="M267.573 485.016H370.713C372.191 485.016 373.385 483.736 373.385 482.157C373.385 480.578 372.191 479.298 370.713 479.298H267.573C266.098 479.298 264.901 480.578 264.901 482.157C264.901 483.736 266.098 485.016 267.573 485.016Z" fill="#8AEBA0" fill-opacity="0.5"/>
<path fill-rule="evenodd" clip-rule="evenodd" d="M199.676 441.31H313.988C315.463 441.31 316.66 440.029 316.66 438.45C316.66 436.871 315.463 435.591 313.988 435.591H199.676C198.201 435.591 197.004 436.871 197.004 438.45C197.004 440.029 198.201 441.31 199.676 441.31Z" fill="#04254E"/>
<path fill-rule="evenodd" clip-rule="evenodd" d="M386.49 167.243V167.749H427.32C427.892 167.749 428.358 167.286 428.358 166.712V125.882C428.358 125.309 427.892 124.844 427.32 124.844H386.49C385.916 124.844 385.453 125.308 385.45 125.882V166.712C385.453 167.286 385.916 167.749 386.49 167.749V166.737L386.462 166.712V125.882L386.49 125.856H427.32L427.345 125.882V166.712L427.32 166.737H386.49V167.243Z" fill="#04254E"/>
<path fill-rule="evenodd" clip-rule="evenodd" d="M386.49 271.636V272.142H427.32C427.892 272.142 428.358 271.679 428.358 271.105V230.275C428.358 229.7 427.892 229.237 427.32 229.237H386.49C385.916 229.237 385.45 229.7 385.45 230.275V271.105C385.453 271.679 385.916 272.142 386.49 272.142V271.13L386.462 271.105V230.275L386.49 230.249H427.32L427.345 230.275V271.105L427.32 271.13H386.49V271.636Z" fill="#04254E"/>
<path fill-rule="evenodd" clip-rule="evenodd" d="M386.49 376.029V376.535H427.32C427.892 376.535 428.358 376.072 428.358 375.497V334.668C428.358 334.093 427.892 333.63 427.32 333.63H386.49C385.916 333.63 385.453 334.093 385.45 334.668V375.497C385.453 376.072 385.916 376.535 386.49 376.535V375.523L386.462 375.497V334.668L386.49 334.642H427.32L427.345 334.668V375.497L427.32 375.523H386.49V376.029Z" fill="#04254E"/>
<path fill-rule="evenodd" clip-rule="evenodd" d="M386.49 480.421V480.928H427.32C427.892 480.928 428.358 480.464 428.358 479.89V439.06C428.358 438.486 427.892 438.023 427.32 438.023H386.49C385.916 438.023 385.453 438.486 385.45 439.06V479.89C385.453 480.464 385.916 480.928 386.49 480.928V479.915L386.462 479.89V439.06L386.49 439.035H427.32L427.345 439.06V479.89L427.32 479.915H386.49V480.421Z" fill="#04254E"/>
<path fill-rule="evenodd" clip-rule="evenodd" d="M404.678 264.695C403.735 264.695 402.836 264.275 402.232 263.544L386.44 244.473C385.321 243.121 385.508 241.117 386.86 239.999C388.213 238.878 390.215 239.065 391.336 240.419L404.337 256.12L432.378 211.874C433.32 210.391 435.283 209.953 436.763 210.892C438.246 211.831 438.686 213.794 437.748 215.277L407.363 263.218C406.819 264.078 405.896 264.624 404.881 264.688C404.813 264.693 404.747 264.695 404.678 264.695Z" fill="#8AEBA0"/>
<path fill-rule="evenodd" clip-rule="evenodd" d="M404.678 368.668C403.735 368.668 402.836 368.248 402.232 367.517L386.44 348.448C385.321 347.094 385.508 345.09 386.86 343.972C388.213 342.851 390.215 343.038 391.336 344.392L404.337 360.093L432.378 315.847C433.32 314.364 435.283 313.929 436.763 314.865C438.246 315.804 438.686 317.767 437.748 319.25L407.363 367.19C406.819 368.051 405.896 368.597 404.881 368.663C404.813 368.666 404.747 368.668 404.678 368.668Z" fill="#8AEBA0"/>
<path fill-rule="evenodd" clip-rule="evenodd" d="M397.125 137.211L402.348 111.216C402.348 111.216 408.272 108.174 407.642 111.636C407.475 112.56 403.765 135.427 403.765 135.427C403.765 135.427 404.648 138.067 402.113 139.303C399.575 140.54 398.12 140.688 397.125 137.211Z" fill="#04254E"/>
<path fill-rule="evenodd" clip-rule="evenodd" d="M301.014 325.098C299.944 311.677 306.832 276.462 306.832 276.462C306.832 276.462 314.754 275.945 319.478 279.916C324.205 283.886 302.087 338.521 301.014 325.098ZM409.658 133.482C408.398 133.146 403.608 132.726 403.608 133.482C403.608 134.238 404.281 137.515 402.937 138.691C401.591 139.868 398.988 141.044 398.064 139.027C397.138 137.011 397.224 136.423 395.374 138.019C393.524 139.616 394.198 144.741 395.794 146.842C397.391 148.942 397.644 153.396 396.551 156.42C395.458 159.445 386.467 186.249 385.544 190.533C384.62 194.819 365.043 214.984 362.856 215.993C360.673 217.001 348.573 221.96 344.959 219.857C341.346 217.757 322.882 225.09 322.882 225.09C322.882 225.09 308.514 230.571 304.544 234.541C300.574 238.511 298.684 242.861 296.604 264.979C294.524 287.099 289.42 285.396 288.853 298.82C288.287 312.243 290.933 346.839 288.853 349.485C286.773 352.132 286.394 366.502 291.121 366.879C295.847 367.259 358.993 282.183 362.773 271.029C366.553 259.875 363.907 245.885 368.823 235.298C373.737 224.711 396.047 204.67 398.314 199.756C400.584 194.84 403.231 160.811 405.311 157.597C407.388 154.383 413.061 148.711 413.061 144.93C413.061 141.149 410.918 133.818 409.658 133.482Z" fill="white"/>
<path fill-rule="evenodd" clip-rule="evenodd" d="M301.014 325.098L301.521 325.057C301.445 324.106 301.407 323.038 301.407 321.874C301.407 318.131 301.776 313.42 302.33 308.465C303.163 301.034 304.413 293.053 305.455 286.935C305.974 283.875 306.445 281.282 306.781 279.452C306.951 278.536 307.087 277.813 307.184 277.319C307.277 276.823 307.328 276.56 307.328 276.56L306.832 276.461L306.865 276.967H306.877C306.941 276.962 307.254 276.945 307.75 276.945C308.838 276.945 310.802 277.026 312.935 277.491C315.073 277.954 317.373 278.805 319.155 280.303C319.21 280.351 319.271 280.421 319.332 280.53C319.42 280.692 319.499 280.933 319.552 281.241C319.608 281.553 319.635 281.93 319.635 282.365C319.635 283.562 319.423 285.179 319.033 287.071C317.677 293.703 314.198 303.706 310.625 312.013C308.838 316.17 307.027 319.905 305.455 322.585C304.668 323.923 303.942 324.996 303.325 325.712C303.016 326.072 302.735 326.337 302.507 326.502C302.394 326.583 302.295 326.639 302.216 326.669C302.138 326.702 302.082 326.709 302.052 326.709C302.014 326.707 302.009 326.704 301.973 326.682C301.948 326.664 301.91 326.628 301.867 326.558C301.799 326.451 301.726 326.274 301.662 326.021C301.602 325.771 301.551 325.449 301.521 325.057L301.014 325.098L300.511 325.138C300.574 325.905 300.693 326.484 300.918 326.935C301.032 327.157 301.176 327.352 301.374 327.496C301.566 327.643 301.814 327.724 302.052 327.722C302.272 327.722 302.477 327.663 302.672 327.575C303.046 327.403 303.396 327.114 303.765 326.732C304.456 326.014 305.212 324.946 306.035 323.589C307.469 321.218 309.094 317.972 310.729 314.303C313.18 308.802 315.653 302.35 317.518 296.515C318.451 293.597 319.231 290.834 319.78 288.415C320.326 285.996 320.645 283.929 320.648 282.365C320.645 281.727 320.594 281.173 320.47 280.697C320.407 280.462 320.326 280.242 320.22 280.044C320.111 279.847 319.974 279.67 319.805 279.526C317.839 277.876 315.387 276.988 313.15 276.502C310.916 276.016 308.886 275.935 307.75 275.935C307.158 275.935 306.809 275.955 306.799 275.958L306.409 275.983L306.336 276.365C306.333 276.37 304.851 283.954 303.368 293.428C302.624 298.167 301.882 303.377 301.326 308.352C300.769 313.329 300.397 318.066 300.397 321.874C300.397 323.058 300.433 324.151 300.511 325.138L301.014 325.098ZM409.658 133.482L409.79 132.993C409.575 132.936 409.302 132.883 408.98 132.832C408.016 132.681 406.624 132.552 405.471 132.552C404.929 132.552 404.443 132.578 404.048 132.656C403.849 132.698 403.671 132.746 403.497 132.847C403.408 132.899 403.317 132.966 403.239 133.073C403.158 133.177 403.1 133.331 403.102 133.482C403.102 133.612 403.115 133.753 403.13 133.923C403.181 134.426 403.272 135.171 403.272 135.929C403.272 136.432 403.229 136.938 403.12 137.36C403.064 137.57 402.993 137.76 402.907 137.919C402.819 138.079 402.72 138.209 402.604 138.31C402.232 138.636 401.738 138.972 401.227 139.216C400.716 139.463 400.185 139.615 399.752 139.613C399.471 139.612 399.238 139.554 399.041 139.436C398.846 139.317 398.671 139.135 398.522 138.816C398.246 138.215 398.064 137.741 397.862 137.365C397.758 137.176 397.652 137.005 397.487 136.855C397.406 136.782 397.308 136.714 397.194 136.667C397.082 136.62 396.956 136.596 396.834 136.597C396.678 136.597 396.531 136.633 396.394 136.686C396.189 136.768 395.994 136.887 395.777 137.044C395.559 137.201 395.321 137.396 395.043 137.636C394.555 138.059 394.241 138.644 394.041 139.298C393.841 139.953 393.755 140.687 393.755 141.448C393.755 142.483 393.914 143.569 394.195 144.565C394.479 145.561 394.876 146.466 395.392 147.148C395.81 147.695 396.146 148.467 396.369 149.359C396.594 150.251 396.71 151.26 396.71 152.28C396.71 153.675 396.493 155.089 396.075 156.248C395.797 157.016 395.033 159.255 394.021 162.264C392.502 166.773 390.438 172.997 388.664 178.498C387.776 181.251 386.961 183.82 386.326 185.905C386.007 186.95 385.734 187.871 385.516 188.635C385.298 189.399 385.139 190.004 385.048 190.426C385.007 190.626 384.894 190.928 384.709 191.287C384.365 191.962 383.788 192.856 383.039 193.88C381.728 195.677 379.899 197.889 377.864 200.204C374.815 203.675 371.311 207.377 368.403 210.287C366.951 211.74 365.648 212.995 364.628 213.921C364.119 214.384 363.682 214.764 363.335 215.042C363.163 215.181 363.014 215.295 362.895 215.378C362.776 215.464 362.682 215.518 362.644 215.533C362.206 215.735 361.333 216.112 360.202 216.558C358.504 217.228 356.22 218.061 353.909 218.718C351.599 219.381 349.253 219.867 347.48 219.865C346.991 219.865 346.548 219.829 346.164 219.753C345.782 219.678 345.463 219.566 345.215 219.422C344.919 219.25 344.58 219.141 344.205 219.073C343.831 219.004 343.416 218.974 342.968 218.974C341.402 218.974 339.38 219.333 337.196 219.865C333.925 220.659 330.306 221.849 327.497 222.838C324.691 223.825 322.7 224.617 322.695 224.619L322.882 225.09L322.702 224.617C322.697 224.619 319.097 225.991 314.992 227.866C312.94 228.805 310.762 229.865 308.836 230.948C307.874 231.489 306.976 232.036 306.187 232.577C305.397 233.119 304.717 233.655 304.188 234.184C303.176 235.194 302.277 236.249 301.485 237.605C300.293 239.642 299.339 242.332 298.487 246.575C297.634 250.819 296.88 256.628 296.101 264.931C295.582 270.442 294.876 274.457 294.104 277.59C292.945 282.289 291.635 285.001 290.534 287.863C289.985 289.293 289.489 290.758 289.107 292.499C288.725 294.24 288.454 296.256 288.348 298.799C288.289 300.161 288.264 301.735 288.264 303.468C288.264 308.696 288.489 315.373 288.712 322.018C288.935 328.663 289.157 335.275 289.157 340.353C289.157 342.787 289.107 344.867 288.98 346.421C288.919 347.195 288.836 347.84 288.74 348.319C288.689 348.557 288.636 348.756 288.585 348.903C288.532 349.05 288.479 349.146 288.454 349.174C288.178 349.528 287.96 349.989 287.771 350.54C287.485 351.37 287.265 352.408 287.113 353.567C286.961 354.728 286.877 356.008 286.877 357.309C286.88 359.627 287.138 362.005 287.758 363.883C288.072 364.822 288.474 365.639 289.013 366.264C289.284 366.575 289.59 366.841 289.937 367.033C290.283 367.228 290.67 367.352 291.08 367.382L291.085 367.385C291.113 367.385 291.136 367.385 291.154 367.385C291.321 367.385 291.468 367.344 291.612 367.291C291.893 367.18 292.179 367 292.51 366.755C293.15 366.279 293.947 365.543 294.909 364.569C296.705 362.742 299.059 360.08 301.817 356.79C311.47 345.277 326.07 326.092 338.634 308.686C344.914 299.984 350.686 291.727 355.076 285.098C357.27 281.783 359.119 278.873 360.516 276.515C361.214 275.335 361.799 274.293 362.26 273.402C362.72 272.512 363.054 271.778 363.251 271.191C365.172 265.518 365.45 259.192 365.878 252.985C366.301 246.778 366.872 240.692 369.281 235.51C370.473 232.937 372.771 229.715 375.577 226.289C379.787 221.145 385.137 215.518 389.651 210.717C391.908 208.314 393.957 206.12 395.554 204.285C396.354 203.369 397.039 202.542 397.583 201.821C398.127 201.1 398.532 200.49 398.775 199.968C398.935 199.619 399.084 199.179 399.233 198.643C399.512 197.641 399.787 196.305 400.068 194.721C401.045 189.182 402.055 180.581 403.031 173.033C403.522 169.26 404.003 165.75 404.466 163.03C404.699 161.669 404.927 160.507 405.144 159.614C405.255 159.166 405.362 158.787 405.465 158.491C405.567 158.193 405.665 157.975 405.734 157.871C406.235 157.098 406.974 156.147 407.796 155.107C409.031 153.545 410.455 151.778 411.584 150.026C412.146 149.148 412.637 148.274 412.991 147.421C413.345 146.568 413.565 145.734 413.568 144.93C413.568 143.938 413.429 142.748 413.206 141.503C412.869 139.637 412.338 137.653 411.764 136.081C411.478 135.294 411.182 134.613 410.88 134.087C410.729 133.824 410.577 133.599 410.41 133.413C410.326 133.32 410.238 133.237 410.139 133.164C410.038 133.092 409.924 133.029 409.79 132.993L409.527 133.971L409.544 133.904L409.519 133.967L409.527 133.971L409.544 133.904L409.519 133.967L409.544 133.983C409.61 134.027 409.76 134.191 409.914 134.443C410.19 134.885 410.506 135.585 410.81 136.418C411.268 137.671 411.708 139.233 412.029 140.765C412.353 142.296 412.556 143.805 412.556 144.93C412.558 145.748 412.237 146.75 411.69 147.824C410.875 149.436 409.572 151.203 408.277 152.862C406.981 154.524 405.693 156.073 404.886 157.321C404.709 157.596 404.575 157.944 404.431 158.394C404.167 159.232 403.909 160.416 403.641 161.876C402.712 166.973 401.723 175.409 400.731 183.083C400.235 186.919 399.739 190.563 399.251 193.491C399.008 194.956 398.768 196.241 398.53 197.276C398.413 197.795 398.294 198.25 398.181 198.632C398.069 199.015 397.955 199.326 397.857 199.543C397.611 200.08 397.029 200.92 396.204 201.942C394.757 203.739 392.563 206.13 390.023 208.842C386.212 212.911 381.622 217.706 377.576 222.36C375.552 224.685 373.664 226.978 372.075 229.131C370.486 231.284 369.193 233.298 368.363 235.085C365.858 240.49 365.296 246.694 364.868 252.916C364.443 259.139 364.155 265.386 362.295 270.867C362.077 271.509 361.619 272.479 360.956 273.698C359.714 275.986 357.753 279.164 355.271 282.962C346.574 296.256 331.46 317.165 318.019 334.738C311.298 343.524 304.995 351.479 300.124 357.228C297.687 360.103 295.61 362.428 294.026 364.022C293.234 364.819 292.563 365.432 292.047 365.834C291.791 366.036 291.571 366.183 291.409 366.269C291.326 366.315 291.26 366.342 291.212 366.358C291.189 366.365 291.171 366.37 291.161 366.373H291.151V366.375L291.154 366.416V366.375H291.151L291.154 366.416V366.375L291.151 366.373L291.149 366.507L291.159 366.375L291.151 366.373L291.149 366.507L291.159 366.375H291.161C290.898 366.353 290.66 366.279 290.433 366.15C290.035 365.93 289.663 365.533 289.337 364.974C288.846 364.136 288.477 362.952 288.239 361.613C288.001 360.275 287.89 358.779 287.89 357.309C287.89 355.631 288.034 353.984 288.282 352.635C288.406 351.96 288.558 351.36 288.727 350.872C288.894 350.383 289.084 350.009 289.251 349.799C289.377 349.634 289.463 349.452 289.539 349.242C289.668 348.875 289.765 348.417 289.843 347.856C290.083 346.175 290.169 343.567 290.169 340.353C290.169 335.247 289.947 328.63 289.724 321.985C289.499 315.34 289.276 308.668 289.276 303.468C289.276 301.745 289.302 300.184 289.36 298.84C289.499 295.518 289.919 293.154 290.498 291.117C290.934 289.591 291.46 288.245 292.039 286.816C292.905 284.67 293.884 282.337 294.787 278.987C295.693 275.637 296.521 271.269 297.108 265.027C298.145 253.979 299.14 247.38 300.352 243.091C300.959 240.948 301.617 239.384 302.358 238.116C303.1 236.851 303.927 235.874 304.901 234.9C305.364 234.437 306.002 233.931 306.759 233.412C308.082 232.504 309.77 231.555 311.548 230.647C314.221 229.283 317.1 228.01 319.314 227.079C320.42 226.613 321.356 226.234 322.019 225.971C322.351 225.839 322.611 225.738 322.791 225.667C322.968 225.599 323.064 225.561 323.064 225.561L323.069 225.558C323.069 225.558 323.122 225.538 323.226 225.497C324.008 225.191 327.586 223.807 331.655 222.504C333.689 221.851 335.848 221.218 337.834 220.753C339.82 220.285 341.642 219.984 342.968 219.986C343.37 219.986 343.727 220.014 344.023 220.067C344.317 220.123 344.547 220.204 344.706 220.295C345.078 220.513 345.503 220.654 345.969 220.748C346.435 220.839 346.941 220.877 347.48 220.877C348.78 220.877 350.276 220.649 351.832 220.297C354.162 219.774 356.624 218.972 358.677 218.22C360.731 217.471 362.371 216.775 363.069 216.454C363.176 216.403 363.279 216.34 363.393 216.264C363.616 216.115 363.879 215.91 364.195 215.647C365.372 214.665 367.252 212.878 369.441 210.68C372.723 207.38 376.688 203.157 379.916 199.384C381.531 197.496 382.963 195.723 384.038 194.227C384.575 193.478 385.023 192.8 385.364 192.203C385.703 191.603 385.936 191.097 386.037 190.642C386.149 190.133 386.389 189.247 386.723 188.104C387.897 184.098 390.235 176.871 392.399 170.325C393.482 167.054 394.519 163.949 395.347 161.497C396.174 159.045 396.791 157.244 397.027 156.592C397.495 155.293 397.723 153.778 397.723 152.28C397.723 151.185 397.601 150.099 397.351 149.111C397.103 148.125 396.728 147.235 396.197 146.535C395.792 146.005 395.425 145.196 395.169 144.29C394.914 143.383 394.767 142.378 394.767 141.448C394.767 140.764 394.846 140.122 395.007 139.593C395.169 139.062 395.41 138.655 395.706 138.402C396.058 138.096 396.333 137.879 396.533 137.752C396.632 137.689 396.71 137.649 396.761 137.629C396.789 137.619 396.807 137.614 396.819 137.611L396.834 137.609V137.539L396.807 137.603L396.834 137.609V137.539L396.807 137.603L396.827 137.559L396.802 137.599L396.807 137.603L396.827 137.559L396.802 137.599L396.804 137.603C396.817 137.612 396.857 137.654 396.908 137.734C396.984 137.854 397.077 138.052 397.191 138.307C397.305 138.563 397.437 138.877 397.604 139.238C397.819 139.711 398.138 140.075 398.52 140.304C398.902 140.534 399.329 140.625 399.752 140.625C400.407 140.623 401.06 140.418 401.665 140.129C402.27 139.838 402.826 139.46 403.269 139.072C403.489 138.879 403.661 138.649 403.795 138.401C403.998 138.029 404.114 137.619 404.188 137.199C404.259 136.778 404.284 136.347 404.284 135.929C404.284 135.372 404.238 134.839 404.195 134.4C404.175 134.181 404.155 133.986 404.14 133.826C404.122 133.667 404.114 133.54 404.114 133.482H403.793L404.054 133.674C404.084 133.636 404.117 133.554 404.114 133.482H403.793L404.054 133.674L403.912 133.57L404.008 133.721C404.008 133.72 404.026 133.71 404.054 133.674L403.912 133.57L404.008 133.721C404.008 133.72 404.056 133.695 404.137 133.674C404.261 133.64 404.453 133.61 404.681 133.592C404.911 133.573 405.18 133.564 405.471 133.564C406.189 133.564 407.039 133.619 407.791 133.699C408.168 133.739 408.522 133.785 408.823 133.832C409.122 133.879 409.372 133.929 409.527 133.971L409.658 133.482Z" fill="#04254E"/>
<path fill-rule="evenodd" clip-rule="evenodd" d="M303.575 270.191C298.016 296.502 293.687 317.41 300.375 335.055L300.385 326.107C300.385 326.107 300.089 317.092 301.86 303.428C301.86 303.428 307.49 268.559 310.521 257.686C314.428 243.678 307.91 232.722 307.91 232.722C307.91 232.722 309.519 244.948 308.472 254.574C307.637 262.221 304.198 267.246 303.575 270.191Z" fill="#8AEBA0"/>
<path fill-rule="evenodd" clip-rule="evenodd" d="M350.756 220.487C350.756 220.487 358.236 261.702 340.169 266.995C322.105 272.289 319.165 255.738 319.165 255.738C319.165 255.738 319.752 282.456 349.076 272.792C349.076 272.792 362.659 255.475 358.992 243.385C355.323 231.297 355.883 218.85 355.883 218.85C355.883 218.85 355.799 219.27 350.756 220.487Z" fill="#8AEBA0"/>
<path fill-rule="evenodd" clip-rule="evenodd" d="M303.031 407.527C303.031 407.527 300.764 417.734 300.384 428.888C300.007 440.042 310.784 478.8 311.161 486.55C311.538 494.301 311.161 506.024 311.161 506.024L329.499 502.81C329.499 502.81 320.991 492.977 321.181 474.45C321.371 455.923 323.638 406.014 323.638 406.014L303.031 407.527Z" fill="white"/>
<path fill-rule="evenodd" clip-rule="evenodd" d="M303.031 407.527L302.538 407.415C302.535 407.433 300.26 417.661 299.878 428.873C299.873 429.07 299.868 429.275 299.868 429.49C299.868 431.011 300.035 432.914 300.321 435.105C301.326 442.772 303.831 453.984 306.126 464.126C307.272 469.197 308.368 473.994 309.195 477.939C309.608 479.91 309.954 481.666 310.207 483.134C310.46 484.602 310.617 485.781 310.655 486.575C310.782 489.146 310.822 492.162 310.822 495.044C310.822 497.924 310.782 500.664 310.739 502.686C310.718 503.696 310.698 504.528 310.68 505.105C310.673 505.394 310.668 505.619 310.663 505.773C310.658 505.925 310.655 506.006 310.655 506.006L310.635 506.628L330.468 503.152L329.881 502.479L329.878 502.474C329.777 502.355 327.727 499.923 325.703 495.31C323.681 490.697 321.685 483.908 321.685 475.057C321.685 474.857 321.685 474.657 321.687 474.457V474.455C321.781 465.206 322.396 448.096 322.986 433.304C323.282 425.91 323.57 419.091 323.788 414.123C323.894 411.639 323.985 409.617 324.046 408.218C324.079 407.517 324.101 406.97 324.119 406.601C324.134 406.231 324.144 406.036 324.144 406.036L324.17 405.467L302.619 407.049L302.538 407.415L303.031 407.527L303.069 408.03L323.676 406.517L323.638 406.014L323.132 405.991C323.132 405.991 322.566 418.468 321.976 433.263C321.384 448.061 320.769 465.168 320.675 474.445C320.673 474.65 320.673 474.855 320.673 475.057C320.67 484.204 322.77 491.213 324.876 495.94C326.981 500.667 329.091 503.111 329.117 503.139L329.499 502.81L329.413 502.309L311.073 505.525L311.161 506.024L311.667 506.039C311.667 506.036 311.834 500.821 311.834 495.044C311.834 492.152 311.794 489.123 311.667 486.525C311.617 485.528 311.412 484.098 311.088 482.309C309.962 476.052 307.409 465.429 305.136 455.062C304 449.88 302.935 444.766 302.156 440.303C301.374 435.844 300.88 432.026 300.88 429.49C300.88 429.285 300.885 429.093 300.89 428.906C301.078 423.357 301.738 418.035 302.35 414.103C302.657 412.137 302.95 410.518 303.168 409.392C303.277 408.827 303.368 408.387 303.428 408.088C303.461 407.939 303.484 407.825 303.502 407.749C303.517 407.674 303.527 407.636 303.527 407.636L303.031 407.527L303.069 408.03L303.031 407.527Z" fill="#04254E"/>
<path fill-rule="evenodd" clip-rule="evenodd" d="M334.982 413.954C334.982 413.954 327.608 430.968 331.768 482.58C331.768 482.58 333.332 503.377 332.74 508.291C332.145 513.207 347.459 501.297 347.459 501.297C347.459 501.297 341.976 493.924 346.515 475.396C351.052 456.869 360.316 407.904 360.316 407.904L334.982 413.954Z" fill="white"/>
<path fill-rule="evenodd" clip-rule="evenodd" d="M334.982 413.954L334.517 413.751C334.484 413.832 329.99 424.252 329.99 453.352C329.99 461.56 330.347 471.254 331.263 482.62V482.618C331.263 482.618 331.28 482.846 331.311 483.263C331.417 484.721 331.68 488.468 331.918 492.681C332.156 496.894 332.368 501.573 332.368 504.88C332.368 506.31 332.328 507.489 332.237 508.23C332.224 508.342 332.216 508.448 332.216 508.554C332.216 508.762 332.244 508.959 332.31 509.146C332.361 509.283 332.434 509.414 332.53 509.528C332.672 509.698 332.862 509.819 333.059 509.888C333.256 509.958 333.464 509.986 333.674 509.986C334.188 509.984 334.749 509.837 335.379 509.602C336.483 509.192 337.788 508.493 339.15 507.679C343.226 505.232 347.763 501.702 347.771 501.697L348.16 501.391L347.867 500.993L347.758 501.074L347.867 500.996V500.993L347.758 501.074L347.867 500.996C347.841 500.955 345.225 497.365 345.223 488.893C345.223 485.33 345.686 480.902 347.006 475.518C349.279 466.234 352.728 449.361 355.612 434.802C358.497 420.242 360.812 408 360.812 407.997L360.956 407.231L334.618 413.521L334.517 413.751L334.982 413.954L335.099 414.445L360.433 408.397L360.316 407.904L359.818 407.81C359.818 407.81 359.782 408 359.714 408.364C359.195 411.087 356.834 423.478 354.074 437.357C351.311 451.236 348.145 466.608 346.022 475.275C344.686 480.733 344.21 485.242 344.21 488.893C344.208 497.714 346.996 501.525 347.055 501.598L347.459 501.297L347.148 500.897C347.148 500.897 347.11 500.928 347.032 500.988C346.452 501.434 343.808 503.45 340.936 505.348C339.501 506.3 338.011 507.218 336.703 507.894C336.05 508.23 335.443 508.506 334.921 508.693C334.4 508.88 333.96 508.977 333.674 508.974C333.563 508.974 333.479 508.961 333.421 508.944C333.335 508.913 333.317 508.893 333.289 508.855C333.264 508.82 333.229 508.731 333.229 508.554C333.229 508.496 333.231 508.428 333.241 508.352C333.34 507.527 333.378 506.332 333.38 504.88C333.38 501.057 333.102 495.48 332.826 490.849C332.55 486.221 332.272 482.544 332.272 482.542V482.539C331.359 471.196 331.002 461.53 331.002 453.352C331.002 438.855 332.123 429.035 333.236 422.851C333.795 419.759 334.352 417.575 334.767 416.168C334.975 415.465 335.147 414.956 335.266 414.627C335.324 414.462 335.372 414.341 335.402 414.263C335.417 414.225 335.43 414.197 335.438 414.179L335.445 414.159V414.154L334.982 413.954L335.099 414.445L334.982 413.954Z" fill="#04254E"/>
<path fill-rule="evenodd" clip-rule="evenodd" d="M330.635 168.562C330.635 168.562 336.809 171.335 340.842 179.402C340.842 179.402 341.599 180.955 343.615 181.712C345.632 182.469 351.176 183.392 351.176 184.149C351.176 184.905 348.489 187.676 348.489 187.676C348.489 187.676 351.262 195.996 349.749 198.18C348.236 200.366 338.006 209.964 337.818 210.72C337.629 211.477 313.241 198.053 319.542 186.586C325.845 175.115 330.635 168.562 330.635 168.562Z" fill="white"/>
<path fill-rule="evenodd" clip-rule="evenodd" d="M330.635 168.562L330.427 169.022L330.46 168.946L330.427 169.022L330.46 168.946L330.427 169.022C330.442 169.03 331.953 169.718 333.95 171.386C335.946 173.053 338.426 175.697 340.389 179.627L340.842 179.402L340.387 179.622C340.405 179.655 340.615 180.085 341.098 180.614C341.581 181.143 342.34 181.775 343.438 182.185C343.98 182.388 344.711 182.588 345.523 182.795C346.735 183.104 348.115 183.423 349.175 183.731C349.704 183.883 350.154 184.035 350.442 184.166C350.584 184.232 350.685 184.293 350.718 184.323L350.731 184.333L350.852 184.217L350.703 184.29C350.718 184.321 350.731 184.333 350.731 184.333L350.852 184.217L350.703 184.29L350.994 184.149H350.67C350.67 184.209 350.688 184.263 350.703 184.29L350.994 184.149H350.67H350.809L350.673 184.134L350.67 184.149H350.809L350.673 184.134L350.723 184.139L350.673 184.131V184.134L350.723 184.139L350.673 184.131L350.668 184.149C350.658 184.192 350.607 184.306 350.528 184.437C350.392 184.673 350.169 184.984 349.914 185.303C349.534 185.783 349.084 186.292 348.732 186.677C348.555 186.871 348.403 187.033 348.294 187.147C348.241 187.203 348.198 187.248 348.17 187.279C348.14 187.309 348.125 187.324 348.125 187.324L347.912 187.544L348.008 187.838C348.008 187.838 348.013 187.856 348.026 187.894C348.117 188.172 348.537 189.483 348.932 191.095C349.329 192.704 349.696 194.624 349.693 196.074C349.693 196.494 349.663 196.871 349.6 197.183C349.537 197.496 349.44 197.737 349.332 197.891C349.17 198.129 348.851 198.514 348.433 198.977C347.7 199.794 346.655 200.874 345.501 202.046C343.767 203.802 341.789 205.758 340.225 207.34C339.443 208.129 338.762 208.825 338.266 209.364C338.018 209.632 337.816 209.86 337.664 210.044C337.588 210.138 337.525 210.222 337.472 210.3C337.444 210.341 337.419 210.381 337.396 210.424C337.371 210.47 337.348 210.518 337.328 210.599V210.596L337.788 210.713L337.439 210.391C337.386 210.447 337.345 210.523 337.328 210.596L337.788 210.713L337.439 210.391L337.775 210.7L337.651 210.26C337.601 210.275 337.517 210.308 337.439 210.391L337.775 210.7L337.651 210.26L337.75 210.614V210.244C337.732 210.244 337.702 210.244 337.651 210.26L337.75 210.614V210.244V210.439L337.77 210.247L337.75 210.244V210.439L337.77 210.247L337.765 210.277L337.77 210.247L337.765 210.277L337.77 210.247C337.765 210.247 337.72 210.237 337.657 210.214C337.53 210.176 337.333 210.095 337.085 209.984C336.153 209.559 334.532 208.668 332.646 207.438C329.815 205.594 326.376 202.98 323.666 200.017C322.312 198.534 321.141 196.965 320.316 195.371C319.489 193.777 319.008 192.16 319.008 190.571C319.008 189.313 319.306 188.068 319.987 186.828C323.13 181.105 325.898 176.611 327.877 173.547C328.866 172.016 329.658 170.842 330.205 170.052C330.475 169.657 330.685 169.359 330.827 169.159C330.898 169.06 330.954 168.984 330.989 168.934C331.024 168.883 331.042 168.86 331.042 168.86L330.635 168.562L330.427 169.022L330.635 168.562L330.225 168.263C330.215 168.278 325.415 174.847 319.099 186.34C318.337 187.724 317.996 189.154 317.996 190.571C317.996 191.904 318.294 193.225 318.808 194.513C319.709 196.763 321.265 198.916 323.099 200.895C325.855 203.858 329.246 206.426 332.059 208.263C333.466 209.182 334.729 209.918 335.701 210.427C336.186 210.682 336.596 210.88 336.925 211.019C337.09 211.087 337.234 211.143 337.36 211.183C337.424 211.203 337.484 211.221 337.545 211.234C337.608 211.246 337.669 211.257 337.75 211.257C337.811 211.257 337.889 211.254 338.003 211.206C338.059 211.181 338.125 211.14 338.183 211.077C338.241 211.014 338.287 210.928 338.307 210.847L338.309 210.844L338.028 210.773L338.289 210.9C338.292 210.895 338.299 210.882 338.309 210.844L338.028 210.773L338.289 210.9L338.233 210.872L338.289 210.902V210.9L338.233 210.872L338.289 210.902C338.289 210.902 338.304 210.874 338.33 210.837C338.383 210.763 338.476 210.649 338.598 210.508C339.061 209.971 339.939 209.065 341.002 207.992C342.598 206.381 344.623 204.382 346.376 202.6C347.254 201.709 348.064 200.872 348.722 200.163C349.048 199.809 349.339 199.485 349.582 199.202C349.828 198.918 350.022 198.676 350.164 198.468C350.382 198.154 350.511 197.787 350.592 197.385C350.673 196.983 350.706 196.542 350.706 196.074C350.706 195.214 350.594 194.26 350.432 193.301C349.941 190.429 348.972 187.529 348.97 187.517L348.489 187.676L348.851 188.03C348.856 188.025 349.534 187.327 350.217 186.525C350.561 186.122 350.906 185.697 351.174 185.305C351.308 185.11 351.424 184.923 351.515 184.741C351.561 184.65 351.599 184.561 351.629 184.465C351.66 184.371 351.682 184.27 351.682 184.149C351.682 184.048 351.66 183.951 351.624 183.873C351.556 183.721 351.46 183.625 351.369 183.547C351.191 183.402 350.992 183.304 350.754 183.2C350.339 183.02 349.802 182.853 349.198 182.684C348.289 182.431 347.224 182.178 346.24 181.932C345.258 181.689 344.349 181.446 343.793 181.239C342.874 180.892 342.247 180.368 341.847 179.931C341.647 179.713 341.505 179.518 341.417 179.379C341.371 179.311 341.341 179.258 341.321 179.222L341.3 179.184L341.298 179.177L341.169 179.242L341.298 179.179V179.177L341.169 179.242L341.298 179.179L341.295 179.174C339.243 175.07 336.642 172.304 334.549 170.568C332.457 168.83 330.873 168.114 330.84 168.101L330.468 167.932L330.225 168.263L330.635 168.562Z" fill="#04254E"/>
<path fill-rule="evenodd" clip-rule="evenodd" d="M334.709 176.117C334.709 176.117 332.965 187.342 331.389 191.123C329.815 194.903 334.415 204.103 341.222 206.183L336.432 211.414C336.432 211.414 318.975 199.313 324.395 187.656C329.815 175.999 334.709 176.117 334.709 176.117Z" fill="#8AEBA0"/>
<path fill-rule="evenodd" clip-rule="evenodd" d="M301.688 418.238C301.688 418.238 312.862 424.205 322.358 420.675L323.115 413.197L302.864 410.594L301.688 418.238Z" fill="#8AEBA0"/>
<path fill-rule="evenodd" clip-rule="evenodd" d="M335.172 414.837C335.172 414.837 333.785 419.609 333.406 421.793C333.406 421.793 338.826 428.701 356.913 422.461L358.426 414.837H335.172Z" fill="#8AEBA0"/>
<path fill-rule="evenodd" clip-rule="evenodd" d="M334.205 167.428C334.205 167.428 337.146 167.932 336.389 170.872C335.632 173.812 330.425 188.853 327.735 192.719C325.045 196.583 334.036 210.28 346.639 216.077C346.639 216.077 335.989 234.731 318.502 227.42C301.014 220.11 295.217 240.277 294.714 215.826C294.21 191.373 303.115 155.832 334.205 167.428Z" fill="#04254E"/>
<path fill-rule="evenodd" clip-rule="evenodd" d="M308.221 231.889C308.221 231.889 310.405 238.261 311.098 244.624C311.791 250.988 311.475 262.851 305.551 270.525C305.551 270.525 309.499 287.036 308.535 292.833C308.535 292.833 291.687 351.945 284.883 406.014C284.883 406.014 294.461 406.14 301.014 411.434C307.568 416.727 349.162 418.491 361.763 415.467C374.367 412.441 394.787 404.627 394.787 404.627C394.787 404.627 380.923 324.217 363.026 293.463C363.026 293.463 365.293 269.516 366.176 262.332C367.059 255.148 366.68 251.745 366.68 251.745C366.68 251.745 361.639 252.754 360.756 241.914C359.873 231.074 359.562 217.35 359.562 217.35C359.562 217.35 360 216.732 357.689 217.35C355.379 217.967 353.889 218.137 354.076 218.64C354.263 219.144 360.589 260.358 344.539 267.332C328.492 274.306 320.761 263.215 319.332 252.795C317.905 242.377 312.897 229.412 312.897 229.412C312.897 229.412 312.705 228.774 312.231 228.87C311.761 228.964 307.267 230.715 308.221 231.889Z" fill="#8A54A2"/>
<path fill-rule="evenodd" clip-rule="evenodd" d="M308.221 231.889L307.743 232.051C307.743 232.051 307.75 232.074 307.766 232.122C308.003 232.825 309.954 238.782 310.595 244.68C310.749 246.102 310.855 247.81 310.855 249.685C310.855 252.886 310.549 256.575 309.684 260.184C308.816 263.795 307.386 267.322 305.152 270.217L305.005 270.406L305.061 270.642C305.061 270.642 305.073 270.692 305.096 270.788C305.266 271.517 306.04 274.86 306.769 278.827C307.133 280.811 307.487 282.952 307.748 284.999C308.011 287.043 308.181 288.997 308.181 290.591C308.181 291.424 308.135 292.157 308.036 292.749L308.535 292.833L308.049 292.694C308.044 292.706 291.194 351.826 284.38 405.95L284.309 406.512L284.876 406.52H284.899C285.159 406.525 287.568 406.596 290.683 407.299C293.8 408 297.614 409.333 300.698 411.826C301.311 412.322 302.146 412.755 303.175 413.159C304.98 413.865 307.396 414.478 310.243 415.009C318.775 416.603 331.192 417.446 342.108 417.446C346.204 417.446 350.091 417.327 353.477 417.081C356.867 416.836 359.754 416.467 361.882 415.958C368.218 414.437 376.48 411.725 383.168 409.389C389.856 407.056 394.964 405.1 394.967 405.1L395.357 404.951L395.286 404.541C395.283 404.533 391.817 384.425 386.108 360.459C383.256 348.478 379.843 335.533 376.02 323.65C372.196 311.77 367.968 300.953 363.461 293.207L363.026 293.463L363.53 293.511C363.53 293.511 363.565 293.137 363.628 292.469C363.851 290.128 364.42 284.177 365.033 278.028C365.643 271.879 366.293 265.525 366.677 262.395C367.156 258.506 367.267 255.715 367.267 253.959C367.267 252.451 367.186 251.709 367.184 251.689L367.123 251.143L366.581 251.249L366.624 251.469L366.586 251.249H366.581L366.624 251.469L366.586 251.249C366.584 251.249 366.495 251.264 366.343 251.264C366.111 251.264 365.731 251.229 365.283 251.047C364.61 250.771 363.765 250.181 362.991 248.802C362.219 247.423 361.536 245.252 361.26 241.874C360.82 236.467 360.521 230.33 360.334 225.548C360.24 223.157 360.172 221.105 360.129 219.65C360.109 218.921 360.093 218.344 360.083 217.949C360.073 217.552 360.068 217.34 360.068 217.34L359.562 217.35L359.975 217.643C359.987 217.623 360.013 217.588 360.04 217.527C360.066 217.466 360.099 217.377 360.101 217.248C360.101 217.157 360.078 217.041 360.018 216.937C359.975 216.859 359.911 216.79 359.843 216.74C359.742 216.664 359.635 216.626 359.532 216.603C359.428 216.578 359.322 216.57 359.203 216.57C358.843 216.57 358.353 216.651 357.558 216.861C356.483 217.15 355.584 217.337 354.924 217.519C354.592 217.61 354.322 217.694 354.086 217.815C353.97 217.876 353.859 217.947 353.752 218.063C353.699 218.119 353.649 218.19 353.613 218.276C353.575 218.362 353.555 218.46 353.555 218.557C353.555 218.648 353.573 218.741 353.603 218.82V218.817L353.93 218.696L353.59 218.782C353.59 218.784 353.59 218.787 353.603 218.817L353.93 218.696L353.59 218.782C353.59 218.782 353.603 218.84 353.618 218.924C353.674 219.237 353.788 219.969 353.924 221.014C354.334 224.159 354.954 230.194 354.954 236.909C354.954 242.954 354.448 249.556 352.852 255.085C352.055 257.848 350.984 260.343 349.585 262.367C348.186 264.392 346.462 265.943 344.337 266.869C340.896 268.362 337.867 269.005 335.225 269.005C332.849 269.005 330.784 268.488 328.99 267.593C326.306 266.251 324.223 264.048 322.707 261.413C321.189 258.782 320.245 255.728 319.833 252.727C319.112 247.469 317.497 241.603 316.06 237.043C314.625 232.486 313.37 229.235 313.368 229.23L312.897 229.412L313.38 229.265C313.37 229.237 313.322 229.063 313.183 228.855C313.115 228.751 313.021 228.635 312.879 228.534C312.743 228.433 312.545 228.352 312.328 228.354C312.265 228.354 312.196 228.359 312.128 228.374L312.232 228.87L312.133 228.374C312.075 228.385 312.027 228.4 311.968 228.417C311.748 228.486 311.397 228.615 310.969 228.795C310.329 229.065 309.542 229.44 308.884 229.872C308.555 230.088 308.256 230.318 308.021 230.576C307.902 230.705 307.798 230.844 307.717 231.001C307.639 231.158 307.583 231.34 307.583 231.537C307.581 231.656 307.604 231.778 307.647 231.892C307.69 232.008 307.753 232.114 307.829 232.208L308.221 231.889L307.743 232.051L308.221 231.889L308.613 231.568L308.596 231.54L308.593 231.537C308.596 231.535 308.596 231.525 308.603 231.497C308.621 231.449 308.676 231.355 308.778 231.246C308.955 231.057 309.256 230.829 309.605 230.611C310.134 230.285 310.774 229.979 311.308 229.751C311.574 229.637 311.814 229.543 312.001 229.475C312.092 229.442 312.173 229.414 312.232 229.394C312.262 229.387 312.287 229.379 312.305 229.374L312.325 229.366H312.333L312.338 229.364L312.325 229.311L312.328 229.366L312.338 229.364L312.325 229.311L312.328 229.366V229.285L312.3 229.361L312.328 229.366V229.285L312.3 229.361L312.313 229.323L312.292 229.356L312.3 229.361L312.313 229.323L312.292 229.356C312.295 229.356 312.343 229.409 312.371 229.468C312.386 229.495 312.399 229.523 312.406 229.541L312.411 229.559V229.561L312.682 229.475L312.411 229.556V229.561L312.682 229.475L312.411 229.556L312.416 229.574L312.424 229.594C312.424 229.594 312.442 229.642 312.48 229.738C312.755 230.462 314.01 233.822 315.364 238.213C316.718 242.603 318.168 248.028 318.831 252.863C319.403 257.016 320.946 261.277 323.633 264.533C324.975 266.16 326.607 267.534 328.537 268.498C330.471 269.465 332.702 270.017 335.225 270.017C338.031 270.017 341.199 269.336 344.742 267.795C347.067 266.785 348.937 265.085 350.417 262.942C352.642 259.723 354.016 255.502 354.851 250.945C355.681 246.386 355.966 241.487 355.966 236.909C355.966 232.013 355.64 227.486 355.303 224.151C355.134 222.486 354.964 221.117 354.83 220.148C354.762 219.665 354.704 219.28 354.658 219.007C354.638 218.873 354.618 218.764 354.603 218.683C354.595 218.64 354.59 218.607 354.582 218.577L354.572 218.531C354.567 218.514 354.565 218.501 354.552 218.463L354.549 218.458L354.294 218.557H354.567C354.567 218.519 354.557 218.481 354.549 218.458L354.294 218.557H354.567H354.261L354.542 218.678C354.557 218.645 354.567 218.6 354.567 218.557H354.261L354.542 218.678L354.327 218.584L354.504 218.739C354.511 218.731 354.527 218.708 354.542 218.678L354.327 218.584L354.504 218.739L354.425 218.673L354.496 218.749L354.504 218.739L354.425 218.673L354.496 218.749L354.486 218.739L354.496 218.749L354.486 218.739L354.496 218.749C354.499 218.741 354.61 218.676 354.79 218.615C355.058 218.521 355.476 218.417 355.992 218.293C356.508 218.17 357.125 218.025 357.821 217.841C358.568 217.638 359.005 217.58 359.203 217.582C359.258 217.582 359.294 217.588 359.304 217.588L359.309 217.59L359.324 217.524L359.301 217.588L359.309 217.59L359.324 217.524L359.301 217.588L359.405 217.302L359.167 217.484C359.223 217.555 359.284 217.582 359.301 217.588L359.405 217.302L359.167 217.484L359.474 217.248H359.089C359.086 217.312 359.112 217.413 359.167 217.484L359.474 217.248H359.089H359.418L359.117 217.114C359.107 217.137 359.089 217.173 359.089 217.248H359.418L359.117 217.114L359.418 217.248L359.147 217.059C359.134 217.076 359.127 217.092 359.117 217.114L359.418 217.248L359.147 217.059L359.051 217.195L359.056 217.362C359.056 217.367 359.367 231.095 360.253 241.955C360.44 244.273 360.817 246.072 361.303 247.476C362.032 249.579 363.019 250.796 363.978 251.474C364.934 252.155 365.837 252.276 366.343 252.276C366.594 252.276 366.751 252.246 366.779 252.241L366.68 251.745L366.176 251.801V251.806C366.184 251.874 366.255 252.58 366.255 253.959C366.255 255.672 366.146 258.423 365.673 262.271C365.23 265.874 364.443 273.655 363.765 280.543C363.089 287.428 362.52 293.415 362.52 293.415L362.505 293.577L362.588 293.719C367.029 301.348 371.247 312.117 375.056 323.962C380.772 341.73 385.582 361.922 388.96 377.668C390.65 385.543 391.981 392.304 392.892 397.097C393.345 399.495 393.694 401.398 393.93 402.704C394.048 403.357 394.137 403.858 394.198 404.197C394.256 404.538 394.286 404.713 394.286 404.713L394.787 404.627L394.605 404.154C394.605 404.154 394.527 404.184 394.375 404.242C393.234 404.675 387.993 406.654 381.566 408.875C375.142 411.097 367.523 413.564 361.647 414.974C359.613 415.462 356.761 415.831 353.406 416.072C350.048 416.315 346.184 416.434 342.108 416.434C333.833 416.434 324.671 415.945 317.047 415.014C313.236 414.549 309.808 413.974 307.077 413.299C305.711 412.959 304.519 412.598 303.545 412.216C302.573 411.836 301.817 411.431 301.333 411.039C297.963 408.319 293.859 406.947 290.597 406.244C287.338 405.54 284.911 405.508 284.889 405.508L284.883 406.014L285.384 406.077C288.785 379.07 294.694 350.788 299.754 329.263C302.282 318.501 304.6 309.425 306.285 303.043C307.128 299.852 307.811 297.332 308.284 295.614C308.522 294.754 308.707 294.093 308.831 293.648C308.955 293.202 309.021 292.972 309.021 292.972L309.028 292.944L309.033 292.916C309.145 292.243 309.193 291.462 309.193 290.591C309.193 288.815 308.993 286.674 308.699 284.455C307.811 277.795 306.047 270.416 306.045 270.406L305.551 270.525L305.954 270.834C308.302 267.79 309.775 264.131 310.665 260.422C311.559 256.712 311.867 252.949 311.867 249.685C311.867 247.772 311.761 246.031 311.602 244.569C310.898 238.132 308.704 231.742 308.699 231.725L308.671 231.639L308.613 231.568L308.221 231.889Z" fill="#04254E"/>
<path fill-rule="evenodd" clip-rule="evenodd" d="M311.758 245.462C311.758 245.462 314.178 261.153 312.401 272.117C310.625 283.083 313.861 292.732 323.115 294.996C332.366 297.261 344.514 297.352 359.14 294.66C359.14 294.66 352.429 299.721 323.115 301.044C293.798 302.367 324.005 416.669 333.666 416.193C333.666 416.193 323.795 415.988 312.136 414.285C300.478 412.585 302.176 410.449 299.028 409.435C299.028 409.435 294.208 406.062 285.448 405.495C285.448 405.495 288.461 384.096 289.555 379.257C289.555 379.257 294.598 349.154 298.545 335.548C298.545 335.548 305.858 304.169 307.599 298.428L308.955 293.261C308.955 293.261 309.651 283.931 306.149 270.669C306.149 270.669 313.208 261.72 311.758 245.462Z" fill="#5954A4"/>
<path fill-rule="evenodd" clip-rule="evenodd" d="M308.421 293.326C308.438 293.329 322.11 296.487 336.288 296.993C336.566 297.003 336.801 296.785 336.811 296.507C336.821 296.226 336.604 295.993 336.323 295.983C329.296 295.73 322.373 294.822 317.209 293.972C314.625 293.549 312.484 293.139 310.989 292.838C310.24 292.686 309.655 292.562 309.256 292.476C309.056 292.431 308.904 292.398 308.803 292.375C308.699 292.352 308.648 292.34 308.648 292.34C308.375 292.276 308.104 292.446 308.041 292.719C307.978 292.992 308.147 293.263 308.421 293.326Z" fill="white"/>
<path fill-rule="evenodd" clip-rule="evenodd" d="M342.449 296.993C342.459 296.993 343.148 297.036 344.342 297.036C347.806 297.033 355.516 296.687 363.196 293.939C363.459 293.845 363.596 293.557 363.502 293.293C363.408 293.03 363.117 292.894 362.854 292.987C355.352 295.674 347.738 296.024 344.342 296.024C343.758 296.024 343.297 296.014 342.986 296.003C342.829 295.998 342.71 295.993 342.629 295.988C342.588 295.988 342.561 295.986 342.54 295.983H342.513C342.232 295.965 341.994 296.178 341.976 296.456C341.958 296.737 342.171 296.975 342.452 296.993" fill="white"/>
<path fill-rule="evenodd" clip-rule="evenodd" d="M301.941 550.563V531.036C301.941 531.036 301.435 524.399 306.225 525.659C311.015 526.919 329.668 533.977 329.668 533.977C329.668 533.977 335.296 536.413 335.716 541.37C335.954 544.171 335.923 556.031 335.853 565.824L301.941 550.563ZM296.981 509.989C296.981 509.989 294.841 509.609 293.831 521.079C292.824 532.55 293.831 564.184 293.831 564.184L301.941 568.678V558.139L335.789 573.2C335.751 577.071 335.716 579.685 335.716 579.685L345.865 585.148V519.02L296.981 509.989Z" fill="#50D270"/>
<path fill-rule="evenodd" clip-rule="evenodd" d="M301.941 550.564H302.447V531.016L302.444 530.999V530.991C302.442 530.958 302.429 530.781 302.429 530.51C302.429 529.855 302.502 528.646 302.895 527.674C303.087 527.185 303.355 526.765 303.702 526.477C304.051 526.189 304.476 526.009 305.094 526.004C305.385 526.004 305.716 526.047 306.096 526.148C307.262 526.454 309.327 527.132 311.743 527.967C315.369 529.225 319.808 530.847 323.337 532.153C325.101 532.805 326.64 533.38 327.738 533.792C328.284 533.997 328.722 534.162 329.023 534.276C329.324 534.389 329.489 534.45 329.489 534.45L329.668 533.977L329.466 534.443H329.469C329.524 534.465 330.896 535.078 332.275 536.257C332.966 536.846 333.656 537.575 334.193 538.435C334.732 539.298 335.116 540.285 335.212 541.414C335.281 542.208 335.329 543.825 335.357 545.938C335.387 548.051 335.397 550.67 335.397 553.506C335.397 557.446 335.374 561.806 335.347 565.822L335.853 565.824L336.06 565.364L302.148 550.103L301.941 550.564H302.447H301.941L301.733 551.027L336.354 566.604L336.359 565.827C336.387 561.814 336.409 557.451 336.409 553.506C336.409 550.667 336.399 548.043 336.369 545.923C336.339 543.8 336.293 542.185 336.222 541.328C336.108 539.997 335.645 538.835 335.023 537.854C334.086 536.381 332.804 535.308 331.756 534.592C330.706 533.876 329.889 533.522 329.868 533.514L329.861 533.509L329.846 533.504C329.846 533.504 325.182 531.738 319.916 529.815C317.282 528.853 314.501 527.854 312.075 527.011C309.646 526.171 307.581 525.493 306.354 525.169C305.903 525.05 305.483 524.994 305.094 524.994C304.266 524.989 303.57 525.265 303.054 525.7C302.664 526.024 302.373 526.429 302.153 526.859C301.822 527.507 301.645 528.215 301.541 528.863C301.44 529.513 301.419 530.103 301.419 530.51C301.419 530.852 301.435 531.065 301.435 531.075L301.941 531.037H301.435V550.89L301.733 551.027L301.941 550.564ZM296.981 509.989L297.085 509.493C297.055 509.486 297.012 509.48 296.958 509.48C296.87 509.48 296.748 509.498 296.612 509.551C296.371 509.642 296.098 509.84 295.817 510.207C295.397 510.758 294.942 511.689 294.499 513.37C294.059 515.052 293.639 517.484 293.327 521.034C292.988 524.89 292.877 530.958 292.877 537.352C292.877 550.133 293.325 564.197 293.325 564.2L293.335 564.486L302.447 569.539V558.919L335.582 573.663L335.789 573.2L335.283 573.195C335.263 575.131 335.245 576.753 335.233 577.889C335.225 578.458 335.22 578.906 335.218 579.21C335.212 579.516 335.21 579.68 335.21 579.68L335.207 579.987L346.371 585.994V518.6L297.075 509.491L296.981 509.989L297.085 509.493L296.981 509.989L296.89 510.485L345.359 519.443V584.301L335.956 579.24L335.716 579.685L336.222 579.693C336.222 579.693 336.258 577.077 336.295 573.205L336.298 572.874L301.435 557.36V567.821L294.076 563.742L293.831 564.184L294.337 564.167C294.337 564.167 294.329 563.949 294.317 563.539C294.233 560.675 293.889 548.516 293.889 537.352C293.889 530.973 294.003 524.913 294.334 521.123C294.805 515.773 295.526 513.041 296.123 511.702C296.419 511.034 296.68 510.72 296.834 510.589C296.91 510.523 296.958 510.5 296.979 510.493L296.986 510.49L296.958 510.351V510.493L296.986 510.49L296.958 510.351V510.493V510.103L296.88 510.482C296.91 510.49 296.936 510.493 296.958 510.493V510.103L296.88 510.482L296.885 510.485H296.89L296.981 509.989Z" fill="#04254E"/>
<path fill-rule="evenodd" clip-rule="evenodd" d="M353.193 565.313V542.884C353.193 542.884 353.069 535.826 356.346 534.817C359.623 533.81 369.83 530.783 369.83 530.783C369.83 530.783 373.737 529.523 373.99 532.55C374.137 534.311 374.112 546.644 374.066 556.629L353.193 565.313ZM377.771 514.022C373.864 514.273 345.969 519.44 345.969 519.44L345.865 585.148L353.193 580.065V572.762L374.038 562.281C374.013 566.659 373.99 569.728 373.99 569.728L381.427 564.941V520.366C381.427 520.366 381.677 513.769 377.771 514.022Z" fill="#8AEBA0"/>
<path fill-rule="evenodd" clip-rule="evenodd" d="M353.193 565.313H353.699V542.871V542.874V542.869C353.699 542.859 353.699 542.828 353.699 542.78C353.699 542.365 353.727 540.634 354.122 538.937C354.317 538.086 354.605 537.249 355.002 536.596C355.2 536.27 355.422 535.991 355.67 535.771C355.918 535.553 356.189 535.397 356.493 535.3C358.127 534.799 361.5 533.79 364.461 532.907C365.941 532.466 367.32 532.056 368.33 531.758C368.833 531.609 369.243 531.487 369.529 531.401C369.815 531.318 369.974 531.27 369.974 531.27L369.985 531.267H369.987L369.972 531.221L369.987 531.267L369.972 531.221L369.987 531.267C370.007 531.257 370.759 531.027 371.543 531.029C371.784 531.029 372.029 531.052 372.252 531.103C372.588 531.178 372.869 531.315 373.074 531.533C373.178 531.642 373.266 531.773 373.34 531.945C373.411 532.115 373.464 532.327 373.487 532.59C373.504 532.818 373.522 533.286 373.537 533.926C373.58 535.857 373.595 539.402 373.595 543.529C373.595 547.649 373.58 552.353 373.56 556.626L374.066 556.629L373.871 556.163L353.001 564.845L353.193 565.313H353.699H353.193L353.388 565.779L374.572 556.968V556.631C374.592 552.355 374.608 547.651 374.608 543.529C374.608 540.776 374.6 538.281 374.582 536.348C374.575 535.381 374.565 534.554 374.549 533.904C374.534 533.253 374.516 532.783 374.494 532.507C374.456 532.034 374.334 531.626 374.142 531.287C373.856 530.776 373.411 530.442 372.945 530.26C372.479 530.073 371.994 530.017 371.543 530.017C370.544 530.02 369.704 530.295 369.676 530.303L369.83 530.784L369.686 530.3C369.686 530.3 359.478 533.324 356.197 534.334C355.741 534.473 355.341 534.711 355 535.012C354.405 535.541 353.983 536.249 353.664 537.011C353.191 538.157 352.953 539.445 352.826 540.526C352.7 541.606 352.687 542.479 352.687 542.78C352.687 542.851 352.687 542.892 352.687 542.894L353.193 542.884H352.687V566.072L353.388 565.779L353.193 565.313ZM377.77 514.023L377.738 513.516C377.219 513.549 376.353 513.661 375.21 513.825C371.217 514.407 363.889 515.685 357.553 516.819C351.217 517.955 345.875 518.944 345.875 518.944L345.463 519.02L345.356 586.115L353.699 580.328V573.074L374.266 562.732L374.038 562.282L373.532 562.279C373.519 564.468 373.507 566.33 373.499 567.643C373.494 568.301 373.492 568.823 373.489 569.177C373.487 569.534 373.484 569.726 373.484 569.726L373.476 570.662L381.933 565.217V520.366H381.427L381.933 520.384C381.933 520.379 381.935 520.285 381.935 520.126C381.933 519.521 381.89 517.957 381.409 516.479C381.166 515.741 380.812 515.017 380.258 514.453C379.979 514.169 379.653 513.931 379.271 513.764C378.889 513.6 378.456 513.506 377.985 513.509C377.907 513.509 377.821 513.511 377.732 513.516L377.77 514.023L377.738 513.516L377.77 514.023L377.808 514.526C377.867 514.521 377.925 514.521 377.985 514.521C378.33 514.521 378.616 514.584 378.866 514.693C379.304 514.885 379.656 515.227 379.944 515.685C380.374 516.368 380.632 517.302 380.766 518.152C380.903 519.002 380.923 519.766 380.923 520.126C380.923 520.199 380.923 520.255 380.921 520.293V564.663L373.717 569.303L373.99 569.728L374.496 569.734C374.496 569.734 374.519 566.664 374.544 562.284L374.547 561.457L352.687 572.451V579.799L346.371 584.179L346.475 519.443L345.969 519.44L346.06 519.938C346.062 519.938 346.495 519.858 347.267 519.716C349.962 519.22 356.756 517.975 363.299 516.829C366.574 516.254 369.785 515.705 372.386 515.288C373.689 515.078 374.838 514.901 375.766 514.769C376.695 514.637 377.406 514.551 377.803 514.526H377.808L377.77 514.023Z" fill="#04254E"/>
<path fill-rule="evenodd" clip-rule="evenodd" d="M312.107 502.59C312.107 502.59 296.604 507.845 296.981 509.989C297.36 512.132 337.565 528.642 346.389 525.743C355.21 522.843 380.291 517.261 380.417 515.262C380.544 513.265 366.68 507.342 365.673 507.215C364.663 507.089 312.107 502.59 312.107 502.59Z" fill="#8AEBA0"/>
<path fill-rule="evenodd" clip-rule="evenodd" d="M312.107 502.59L311.943 502.112C311.938 502.112 308.15 503.397 304.349 504.961C302.446 505.743 300.544 506.593 299.094 507.4C298.368 507.802 297.755 508.195 297.3 508.579C297.069 508.774 296.88 508.964 296.73 509.174C296.657 509.28 296.594 509.391 296.546 509.513C296.5 509.634 296.47 509.766 296.47 509.91C296.47 509.961 296.472 510.019 296.485 510.08L296.482 510.075C296.505 510.189 296.543 510.272 296.586 510.348C296.675 510.49 296.778 510.598 296.902 510.712C297.143 510.93 297.472 511.16 297.894 511.423C298.689 511.914 299.812 512.511 301.207 513.187C306.083 515.555 314.248 518.895 322.419 521.651C326.503 523.03 330.589 524.262 334.266 525.151C337.945 526.039 341.209 526.588 343.694 526.588C344.802 526.588 345.759 526.479 346.546 526.223C348.732 525.505 351.951 524.614 355.541 523.653C360.928 522.21 367.158 520.609 372.062 519.179C374.516 518.463 376.637 517.79 378.17 517.195C378.937 516.896 379.557 516.618 380.015 516.35C380.245 516.213 380.435 516.082 380.594 515.927C380.673 515.851 380.744 515.768 380.804 515.667C380.865 515.563 380.913 515.439 380.923 515.295V515.29L380.926 515.234C380.926 515.1 380.895 514.973 380.855 514.86C380.771 514.637 380.637 514.447 380.473 514.255C380.167 513.903 379.734 513.549 379.203 513.172C378.271 512.514 377.029 511.798 375.67 511.084C373.633 510.011 371.333 508.949 369.463 508.139C368.527 507.734 367.7 507.395 367.062 507.15C366.746 507.028 366.475 506.927 366.26 506.856C366.151 506.818 366.055 506.788 365.974 506.765C365.888 506.742 365.819 506.724 365.733 506.712C365.688 506.707 365.609 506.699 365.478 506.686C363.469 506.497 350.144 505.348 337.312 504.245C324.481 503.141 312.15 502.086 312.15 502.086L312.044 502.076L311.943 502.112L312.107 502.59L312.064 503.093C312.064 503.093 312.269 503.111 312.654 503.144C315.544 503.392 328.55 504.505 340.954 505.573C347.155 506.107 353.206 506.628 357.765 507.023C360.043 507.223 361.951 507.387 363.317 507.509C364 507.57 364.547 507.618 364.939 507.653C365.134 507.671 365.291 507.686 365.404 507.696C365.518 507.706 365.594 507.716 365.609 507.716V507.709V507.716V507.709V507.716C365.63 507.721 365.746 507.752 365.9 507.802C366.191 507.899 366.642 508.068 367.196 508.291C369.144 509.068 372.396 510.507 375.141 511.947C376.513 512.666 377.76 513.389 378.641 514.014C379.081 514.328 379.43 514.617 379.65 514.852C379.759 514.968 379.833 515.072 379.873 515.143C379.893 515.178 379.903 515.206 379.909 515.221L379.914 515.237V515.239L379.949 515.234H379.914V515.239L379.949 515.234H379.914H379.916H379.914H379.916H379.914V515.232L380.124 515.244L379.929 515.161C379.924 515.171 379.916 515.196 379.914 515.232L380.124 515.244L379.929 515.161L379.997 515.191L379.931 515.153L379.929 515.161L379.997 515.191L379.931 515.153L379.914 515.176C379.863 515.237 379.696 515.371 379.44 515.512C378.965 515.786 378.19 516.117 377.209 516.474C375.49 517.104 373.125 517.828 370.442 518.592C366.417 519.738 361.675 520.973 357.287 522.139C352.897 523.303 348.863 524.396 346.229 525.262H346.232C345.599 525.469 344.734 525.576 343.694 525.576C342.201 525.576 340.344 525.361 338.254 524.973C330.926 523.622 320.718 520.188 312.33 516.881C308.135 515.229 304.39 513.607 301.687 512.296C300.336 511.641 299.243 511.061 298.497 510.603C298.125 510.376 297.836 510.178 297.656 510.027C297.565 509.953 297.505 509.89 297.477 509.854L297.462 509.834L297.459 509.832L297.282 509.935L297.479 509.9C297.472 509.849 297.459 509.832 297.459 509.832L297.282 509.935L297.479 509.9V509.898L297.411 509.91H297.482L297.479 509.898L297.411 509.91H297.482H297.474H297.482H297.474H297.482C297.479 509.908 297.5 509.832 297.588 509.718C297.75 509.503 298.12 509.186 298.631 508.855C299.521 508.27 300.832 507.605 302.285 506.95C304.463 505.963 306.963 504.991 308.914 504.267C309.891 503.906 310.731 503.607 311.325 503.397C311.622 503.293 311.859 503.21 312.021 503.154C312.183 503.098 312.269 503.068 312.269 503.068L312.107 502.59L312.064 503.093L312.107 502.59Z" fill="#04254E"/>
<path fill-rule="evenodd" clip-rule="evenodd" d="M310.969 493.359C310.969 493.359 310.992 500.5 323.345 493.359C323.345 493.359 324.688 491.935 325.528 493.784C326.369 495.631 338.719 500.085 344.182 499.498C349.643 498.908 349.726 506.975 347.29 509.328C344.853 511.682 310.068 512.772 309.311 510.588C308.555 508.405 308.512 489.829 310.969 493.359Z" fill="#04254E"/>
<path fill-rule="evenodd" clip-rule="evenodd" d="M310.969 493.359L310.463 493.362C310.463 493.387 310.465 493.615 310.531 493.954C310.632 494.458 310.875 495.224 311.508 495.882C311.824 496.209 312.237 496.502 312.758 496.71C313.279 496.92 313.904 497.039 314.646 497.039C316.627 497.036 319.436 496.199 323.598 493.8L323.661 493.762L323.712 493.709L323.515 493.521L323.709 493.709H323.712L323.515 493.521L323.709 493.709L323.727 493.694C323.768 493.653 323.879 493.554 324.016 493.473C324.15 493.392 324.304 493.339 324.415 493.342C324.504 493.344 324.572 493.359 324.681 493.438C324.785 493.519 324.927 493.683 325.068 493.992C325.157 494.184 325.283 494.339 325.433 494.493C325.719 494.777 326.106 495.05 326.589 495.338C327.432 495.844 328.57 496.383 329.889 496.915C331.862 497.714 334.238 498.496 336.581 499.081C338.927 499.665 341.235 500.055 343.107 500.057C343.502 500.057 343.879 500.04 344.236 500.002C344.41 499.981 344.577 499.971 344.734 499.971C345.385 499.974 345.911 500.118 346.351 500.364C347.012 500.73 347.497 501.343 347.829 502.12C348.155 502.891 348.317 503.82 348.315 504.751C348.317 505.612 348.181 506.474 347.935 507.218C347.692 507.962 347.338 508.582 346.938 508.964C346.91 508.995 346.809 509.065 346.65 509.139C346.351 509.278 345.863 509.43 345.235 509.574C344.137 509.83 342.614 510.065 340.82 510.272C335.435 510.895 327.614 511.264 321.126 511.264C317.933 511.264 315.061 511.173 312.971 510.984C311.926 510.89 311.073 510.768 310.496 510.629C310.207 510.558 309.987 510.485 309.861 510.422C309.8 510.391 309.762 510.364 309.754 510.356L309.752 510.353L309.689 510.419L309.762 510.369L309.752 510.353L309.689 510.419L309.762 510.369L309.577 510.498L309.79 510.424C309.782 510.399 309.77 510.379 309.762 510.369L309.577 510.498L309.79 510.424C309.767 510.361 309.739 510.245 309.709 510.098C309.608 509.572 309.519 508.633 309.458 507.484C309.395 506.335 309.362 504.966 309.362 503.537C309.36 501.075 309.463 498.43 309.704 496.429C309.823 495.429 309.977 494.587 310.157 494.033C310.243 493.759 310.341 493.557 310.41 493.463C310.428 493.44 310.44 493.423 310.45 493.415L310.465 493.403L310.448 493.377L310.46 493.405L310.465 493.403L310.448 493.377L310.46 493.405L310.387 493.271V493.42C310.417 493.423 310.453 493.41 310.46 493.405L310.387 493.271V493.42V493.294L310.341 493.413C310.344 493.415 310.364 493.42 310.387 493.42V493.294L310.341 493.413L310.352 493.382L310.339 493.413H310.341L310.352 493.382L310.339 493.413L310.354 493.423C310.387 493.446 310.463 493.519 310.554 493.65L310.969 493.359L310.463 493.362L310.969 493.359L311.384 493.071C311.257 492.889 311.128 492.74 310.969 492.618C310.815 492.502 310.612 492.408 310.387 492.408C310.21 492.408 310.035 492.469 309.906 492.557C309.782 492.641 309.686 492.742 309.605 492.851C309.453 493.056 309.345 493.294 309.243 493.575C309.071 494.063 308.937 494.678 308.823 495.399C308.484 497.557 308.35 500.662 308.35 503.537C308.35 505.189 308.393 506.76 308.474 508.028C308.515 508.663 308.565 509.22 308.621 509.675C308.651 509.906 308.682 510.108 308.717 510.288C308.75 510.465 308.785 510.617 308.833 510.753C308.889 510.915 308.988 511.032 309.089 511.118C309.279 511.28 309.491 511.376 309.747 511.467C310.197 511.621 310.784 511.738 311.518 511.839C313.709 512.142 317.171 512.274 321.126 512.277C326.43 512.277 332.601 512.031 337.649 511.603C340.172 511.388 342.414 511.128 344.137 510.827C344.997 510.675 345.729 510.515 346.311 510.338C346.602 510.25 346.857 510.159 347.075 510.057C347.295 509.954 347.482 509.845 347.642 509.693C348.206 509.146 348.616 508.39 348.897 507.535C349.178 506.677 349.327 505.718 349.327 504.751C349.327 503.36 349.021 501.95 348.287 500.842C347.92 500.288 347.442 499.812 346.845 499.48C346.247 499.146 345.536 498.959 344.734 498.962C344.537 498.959 344.334 498.972 344.127 498.995H344.129C343.816 499.028 343.472 499.045 343.107 499.045C341.7 499.045 339.947 498.8 338.11 498.4C335.352 497.8 332.401 496.854 330.086 495.903C328.927 495.427 327.928 494.951 327.196 494.523C326.832 494.311 326.536 494.108 326.328 493.936C326.222 493.85 326.141 493.772 326.085 493.709C326.027 493.643 325.997 493.592 325.989 493.575C325.799 493.157 325.572 492.848 325.296 492.636C325.023 492.423 324.701 492.327 324.415 492.33C324.193 492.33 323.995 492.38 323.823 492.446C323.565 492.545 323.363 492.684 323.219 492.798C323.074 492.909 322.988 493 322.976 493.013L323.345 493.359L323.089 492.922C319.016 495.28 316.331 496.032 314.646 496.027C313.801 496.027 313.208 495.847 312.778 495.599C312.454 495.412 312.216 495.184 312.034 494.941C311.761 494.577 311.617 494.172 311.546 493.861C311.511 493.704 311.493 493.572 311.485 493.481C311.48 493.438 311.478 493.403 311.478 493.382L311.475 493.359V493.357L311.247 493.359H311.475V493.357L311.247 493.359H311.475V493.2L311.384 493.071L310.969 493.359Z" fill="#04254E"/>
<path fill-rule="evenodd" clip-rule="evenodd" d="M332.586 495.705C332.586 495.705 332.608 502.846 344.959 495.705C344.959 495.705 346.305 494.28 347.145 496.13C347.985 497.977 360.336 502.431 365.797 501.844C371.26 501.254 371.343 509.321 368.906 511.674C366.47 514.027 331.685 515.118 330.928 512.934C330.172 510.75 330.126 492.175 332.586 495.705Z" fill="#04254E"/>
<path fill-rule="evenodd" clip-rule="evenodd" d="M332.586 495.705L332.08 495.707C332.08 495.733 332.082 495.96 332.148 496.299C332.247 496.803 332.49 497.567 333.125 498.225C333.439 498.554 333.854 498.847 334.375 499.055C334.896 499.262 335.521 499.384 336.262 499.384C338.241 499.381 341.052 498.544 345.212 496.145L345.278 496.107L345.329 496.054L345.121 495.857L345.326 496.054H345.329L345.121 495.857L345.326 496.054L345.344 496.039C345.384 495.998 345.496 495.9 345.632 495.819C345.766 495.738 345.918 495.684 346.032 495.687C346.118 495.69 346.189 495.705 346.295 495.783C346.402 495.864 346.543 496.026 346.682 496.337C346.771 496.53 346.898 496.684 347.049 496.838C347.335 497.119 347.722 497.395 348.203 497.683C349.048 498.187 350.187 498.726 351.503 499.26C353.479 500.059 355.853 500.841 358.198 501.426C360.544 502.01 362.851 502.4 364.721 502.4C365.119 502.4 365.496 502.382 365.85 502.344H365.853C366.027 502.327 366.192 502.317 366.351 502.317C366.999 502.319 367.525 502.463 367.968 502.709C368.626 503.076 369.114 503.688 369.443 504.462C369.772 505.237 369.931 506.165 369.931 507.096C369.931 507.957 369.797 508.82 369.552 509.564C369.309 510.307 368.955 510.925 368.555 511.309C368.527 511.34 368.423 511.411 368.266 511.484C367.968 511.623 367.477 511.775 366.852 511.919C365.754 512.175 364.228 512.41 362.437 512.618C357.049 513.24 349.228 513.61 342.74 513.61C339.549 513.61 336.675 513.518 334.585 513.329C333.542 513.235 332.69 513.114 332.113 512.974C331.824 512.904 331.604 512.83 331.478 512.767C331.417 512.737 331.379 512.709 331.371 512.701L331.369 512.699L331.305 512.764L331.379 512.714L331.369 512.699L331.305 512.764L331.379 512.714L331.192 512.843L331.407 512.767C331.397 512.744 331.386 512.724 331.379 512.714L331.192 512.843L331.407 512.767C331.384 512.706 331.354 512.59 331.326 512.441C331.224 511.914 331.133 510.978 331.073 509.829C331.012 508.68 330.977 507.309 330.977 505.882C330.977 503.42 331.08 500.776 331.321 498.772C331.437 497.772 331.594 496.929 331.774 496.378C331.86 496.102 331.958 495.902 332.027 495.808C332.044 495.786 332.057 495.768 332.067 495.758L332.08 495.748L332.062 495.722L332.077 495.748H332.08L332.062 495.722L332.077 495.748L332.004 495.616V495.765C332.034 495.765 332.067 495.755 332.077 495.748L332.004 495.616V495.765V495.636L331.956 495.758C331.961 495.76 331.981 495.765 332.004 495.765V495.636L331.956 495.758L331.966 495.73L331.953 495.758H331.956L331.966 495.73L331.953 495.758L331.971 495.768C332.004 495.791 332.08 495.864 332.171 495.996L332.586 495.705L332.08 495.707L332.586 495.705L333.001 495.416C332.874 495.234 332.745 495.085 332.586 494.963C332.431 494.844 332.229 494.753 332.004 494.753C331.824 494.753 331.652 494.814 331.523 494.903C331.399 494.986 331.303 495.087 331.222 495.196C331.07 495.401 330.959 495.639 330.86 495.917C330.688 496.406 330.554 497.02 330.44 497.742C330.101 499.9 329.964 503.005 329.964 505.882C329.964 507.534 330.01 509.106 330.091 510.373C330.131 511.006 330.179 511.565 330.238 512.02C330.268 512.251 330.298 512.453 330.331 512.633C330.367 512.81 330.402 512.962 330.45 513.098C330.506 513.26 330.605 513.377 330.703 513.463C330.893 513.625 331.108 513.721 331.364 513.812C331.812 513.964 332.401 514.083 333.135 514.184C335.324 514.485 338.788 514.619 342.74 514.622C348.044 514.622 354.215 514.376 359.263 513.949C361.789 513.734 364.031 513.473 365.751 513.172C366.614 513.02 367.345 512.858 367.927 512.683C368.218 512.595 368.471 512.504 368.692 512.4C368.912 512.299 369.096 512.19 369.258 512.038C369.82 511.492 370.233 510.735 370.513 509.88C370.794 509.022 370.944 508.063 370.944 507.096C370.941 505.705 370.637 504.293 369.904 503.184C369.537 502.633 369.058 502.157 368.459 501.826C367.864 501.492 367.153 501.304 366.351 501.304C366.154 501.304 365.951 501.317 365.744 501.34C365.43 501.373 365.088 501.388 364.721 501.388C363.315 501.39 361.561 501.145 359.724 500.743C356.968 500.143 354.018 499.199 351.7 498.248C350.544 497.772 349.542 497.296 348.813 496.869C348.449 496.656 348.153 496.454 347.943 496.282C347.839 496.196 347.758 496.117 347.7 496.054C347.644 495.988 347.614 495.938 347.606 495.92C347.416 495.502 347.189 495.194 346.913 494.981C346.639 494.768 346.318 494.672 346.032 494.675C345.809 494.675 345.61 494.725 345.438 494.791C345.179 494.89 344.98 495.029 344.833 495.14C344.691 495.254 344.605 495.345 344.592 495.358L344.959 495.705L344.706 495.267C340.632 497.625 337.948 498.377 336.262 498.372C335.417 498.372 334.825 498.192 334.392 497.944C334.069 497.757 333.833 497.529 333.651 497.286C333.378 496.922 333.234 496.517 333.163 496.203C333.127 496.049 333.11 495.917 333.099 495.826C333.097 495.783 333.094 495.748 333.092 495.727V495.702L332.864 495.705H333.092V495.702L332.864 495.705H333.092V495.545L333.001 495.416L332.586 495.705Z" fill="#04254E"/>
<path fill-rule="evenodd" clip-rule="evenodd" d="M318.585 168.169L318.606 168.164C318.831 168.089 320.82 167.458 323.532 167.458C326.551 167.461 330.45 168.233 333.864 171.393C333.967 171.489 334.127 171.484 334.223 171.381C334.317 171.279 334.312 171.117 334.208 171.024C330.678 167.755 326.632 166.952 323.532 166.952C320.554 166.952 318.436 167.686 318.421 167.691C318.287 167.737 318.219 167.881 318.264 168.015C318.31 168.147 318.454 168.218 318.585 168.169Z" fill="white"/>
<path fill-rule="evenodd" clip-rule="evenodd" d="M320.647 169.958L320.668 169.961C320.89 169.981 322.935 170.201 325.151 171.312C326.26 171.866 327.411 172.641 328.403 173.721C329.397 174.799 330.237 176.183 330.723 177.967C330.761 178.104 330.9 178.182 331.035 178.147C331.169 178.109 331.25 177.97 331.212 177.835C330.688 175.91 329.762 174.417 328.674 173.268C327.042 171.545 325.048 170.596 323.464 170.072C321.877 169.551 320.701 169.455 320.688 169.455C320.549 169.442 320.425 169.546 320.415 169.685C320.402 169.824 320.508 169.948 320.647 169.958Z" fill="white"/>
<path fill-rule="evenodd" clip-rule="evenodd" d="M324.709 193.65C324.709 193.673 324.818 197.388 327.095 202.2C329.372 207.013 333.826 212.922 342.492 217.302C342.619 217.365 342.771 217.314 342.834 217.19C342.897 217.066 342.847 216.914 342.723 216.851C334.157 212.519 329.79 206.71 327.553 201.985C326.435 199.622 325.85 197.529 325.544 196.029C325.392 195.28 325.309 194.678 325.266 194.265C325.243 194.06 325.23 193.901 325.223 193.795C325.22 193.741 325.218 193.701 325.218 193.673C325.215 193.648 325.215 193.635 325.215 193.635C325.21 193.496 325.094 193.387 324.954 193.39C324.815 193.395 324.706 193.511 324.709 193.65Z" fill="white"/>
<path fill-rule="evenodd" clip-rule="evenodd" d="M328.393 210.867C328.398 210.88 329.319 212.666 331.101 214.789C332.885 216.912 335.526 219.377 338.988 220.725C339.117 220.776 339.264 220.71 339.314 220.581C339.365 220.449 339.299 220.303 339.17 220.252C335.825 218.952 333.236 216.548 331.49 214.465C330.615 213.423 329.952 212.464 329.509 211.765C329.286 211.416 329.119 211.133 329.008 210.935C328.952 210.839 328.909 210.763 328.882 210.71C328.869 210.685 328.859 210.667 328.851 210.654L328.841 210.634C328.778 210.51 328.626 210.462 328.502 210.525C328.378 210.591 328.327 210.743 328.393 210.867Z" fill="white"/>
<path fill-rule="evenodd" clip-rule="evenodd" d="M310.974 197.102C310.974 197.112 310.395 200.725 310.395 205.675C310.397 211.332 311.144 218.739 314.408 224.521C314.476 224.642 314.63 224.685 314.752 224.617C314.873 224.549 314.916 224.394 314.848 224.27C311.655 218.625 310.898 211.287 310.901 205.675C310.901 203.22 311.045 201.095 311.187 199.584C311.26 198.827 311.331 198.228 311.384 197.815C311.412 197.608 311.435 197.451 311.45 197.342C311.465 197.236 311.475 197.183 311.475 197.183C311.495 197.043 311.402 196.914 311.265 196.892C311.126 196.871 310.997 196.965 310.974 197.102Z" fill="white"/>
<path fill-rule="evenodd" clip-rule="evenodd" d="M304.861 206.467C304.861 206.472 304.39 210.017 304.39 214.187C304.393 217.362 304.658 220.897 305.63 223.539C305.678 223.668 305.825 223.736 305.956 223.688C306.085 223.64 306.154 223.493 306.106 223.362C305.169 220.829 304.896 217.332 304.896 214.187C304.896 212.122 305.013 210.204 305.129 208.807C305.187 208.109 305.245 207.539 305.291 207.145C305.311 206.947 305.329 206.793 305.342 206.689C305.354 206.586 305.362 206.532 305.362 206.532C305.382 206.393 305.283 206.267 305.144 206.249C305.005 206.229 304.878 206.327 304.861 206.467Z" fill="white"/>
<path fill-rule="evenodd" clip-rule="evenodd" d="M339.466 181.806C339.803 182.388 339.724 183.063 339.294 183.314C338.861 183.562 338.239 183.291 337.902 182.709C337.566 182.127 337.642 181.451 338.074 181.203C338.507 180.953 339.13 181.224 339.466 181.806Z" fill="#04254E"/>
<path fill-rule="evenodd" clip-rule="evenodd" d="M334.805 181.606C334.805 181.596 334.81 180.48 335.187 179.356C335.374 178.795 335.653 178.233 336.05 177.803C336.45 177.372 336.951 177.064 337.654 176.968C337.862 176.94 338.006 176.75 337.978 176.54C337.95 176.332 337.76 176.188 337.553 176.216C336.67 176.332 335.984 176.75 335.491 177.289C334.749 178.101 334.403 179.164 334.226 180.029C334.048 180.892 334.046 181.565 334.046 181.606C334.046 181.816 334.215 181.985 334.425 181.985C334.635 181.985 334.805 181.816 334.805 181.606Z" fill="#04254E"/>
<path fill-rule="evenodd" clip-rule="evenodd" d="M347.085 191.456L347.264 191.578L347.087 191.456H347.085L347.264 191.578L347.087 191.456L347.074 191.469C347.016 191.55 346.72 191.925 346.098 192.332C345.475 192.742 344.524 193.182 343.142 193.39C342.935 193.42 342.793 193.615 342.823 193.822C342.856 194.03 343.049 194.172 343.256 194.141C344.868 193.898 345.979 193.349 346.685 192.853C347.391 192.355 347.694 191.909 347.717 191.879C347.834 191.704 347.785 191.469 347.611 191.353C347.439 191.236 347.201 191.282 347.085 191.456Z" fill="#04254E"/>
</svg>
