<svg width="600" height="600" viewBox="0 0 600 600" fill="none" xmlns="http://www.w3.org/2000/svg">
<path fill-rule="evenodd" clip-rule="evenodd" d="M326.757 498.94C295.293 510.227 261.346 512.696 228.575 506.112C173.953 495.135 98.2671 472.095 100.889 428.942C104.978 361.663 111.962 356.844 77.122 283.426C42.2793 210.008 182.255 103.103 268.599 171.344C317.644 210.107 349.775 208.409 379.255 206.713C401.674 205.421 422.561 204.132 448.188 220.638C470.435 234.967 482.043 263.253 485.16 296.285C493.009 379.451 442.983 457.24 364.353 485.45L326.757 498.94Z" fill="#8AEBA0" fill-opacity="0.5"/>
<path fill-rule="evenodd" clip-rule="evenodd" d="M504.709 322.408C504.709 322.408 504.902 315.463 507.483 314.337C510.063 313.21 513.678 312.882 513.678 312.882L510.863 324.849L504.709 322.408Z" fill="white"/>
<path fill-rule="evenodd" clip-rule="evenodd" d="M504.709 322.408L505.146 322.421L505.148 322.403C505.153 322.213 505.223 320.489 505.592 318.706C505.778 317.816 506.038 316.912 506.39 316.188C506.567 315.825 506.763 315.511 506.978 315.264C507.192 315.017 507.419 314.842 507.657 314.737C508.896 314.195 510.419 313.835 511.626 313.616C512.231 313.507 512.756 313.433 513.127 313.384C513.315 313.36 513.464 313.343 513.564 313.332C513.614 313.328 513.654 313.323 513.68 313.321C513.706 313.319 513.717 313.317 513.717 313.317L513.678 312.882L513.252 312.781L510.553 324.254L504.871 322.001L504.709 322.408L505.146 322.421L504.709 322.408L504.55 322.814L511.171 325.441L514.242 312.39L513.638 312.447C513.63 312.447 512.714 312.53 511.471 312.757C510.225 312.985 508.652 313.349 507.308 313.935C506.91 314.11 506.573 314.388 506.289 314.724C505.793 315.314 505.439 316.081 505.164 316.905C504.755 318.14 504.537 319.503 504.416 320.565C504.294 321.627 504.274 322.386 504.272 322.395L504.266 322.7L504.55 322.814L504.709 322.408Z" fill="#04254E"/>
<path fill-rule="evenodd" clip-rule="evenodd" d="M515.142 224.846L512.387 226.912L511.676 228.603L513.652 228.192L515.415 226.857L515.142 224.846Z" fill="#222831"/>
<path fill-rule="evenodd" clip-rule="evenodd" d="M523.425 238.726L523.849 238.623C523.846 238.614 523.667 237.886 523.361 236.971C523.208 236.512 523.025 236.005 522.813 235.513C522.599 235.024 522.36 234.549 522.092 234.149C521.945 233.935 521.744 233.701 521.495 233.435C521.062 232.969 520.488 232.408 519.867 231.789C518.934 230.865 517.898 229.812 517.107 228.802C516.711 228.299 516.379 227.808 516.152 227.36C515.923 226.914 515.807 226.512 515.807 226.204C515.807 226.18 515.809 226.156 515.809 226.136V226.134C515.831 225.778 515.837 225.445 515.837 225.139C515.837 224.407 515.796 223.811 515.798 223.363C515.796 223.002 515.826 222.742 515.885 222.596C515.914 222.521 515.944 222.476 515.982 222.434C516.021 222.395 516.071 222.357 516.156 222.32L516.218 222.294L516.27 222.25C516.27 222.25 516.296 222.229 516.346 222.185C516.521 222.036 516.978 221.652 517.524 221.215C518.068 220.775 518.704 220.284 519.225 219.923C519.362 219.829 519.537 219.774 519.775 219.774C520.04 219.774 520.37 219.847 520.728 219.993C521.27 220.212 521.875 220.592 522.448 221.077C523.025 221.562 523.569 222.15 524.006 222.779C524.338 223.253 524.561 223.861 524.707 224.547C524.928 225.579 524.974 226.778 525.011 227.937C525.031 228.516 525.048 229.084 525.088 229.619C525.129 230.155 525.193 230.66 525.308 231.114C525.586 232.202 526.01 234.204 526.362 235.924C526.539 236.785 526.698 237.578 526.812 238.155C526.869 238.444 526.915 238.677 526.947 238.839C526.98 239.003 526.998 239.093 526.998 239.093L527.426 239.01L527.457 238.573L523.455 238.291L523.425 238.726L523.849 238.623L523.425 238.726L523.394 239.163L527.964 239.484L527.854 238.924C527.854 238.924 527.572 237.476 527.218 235.749C526.864 234.021 526.44 232.021 526.154 230.898C526.025 230.395 525.964 229.748 525.927 229.029C525.872 227.952 525.874 226.719 525.745 225.533C525.68 224.938 525.582 224.355 525.422 223.804C525.263 223.256 525.042 222.738 524.725 222.281C524.076 221.35 523.237 220.522 522.369 219.912C521.934 219.608 521.493 219.359 521.058 219.182C520.621 219.005 520.193 218.9 519.775 218.9C519.404 218.9 519.037 218.99 518.726 219.204C518.097 219.641 517.345 220.233 516.746 220.719C516.148 221.206 515.704 221.584 515.702 221.586L515.986 221.918L515.813 221.516C515.636 221.59 515.479 221.695 515.35 221.829C515.158 222.03 515.048 222.281 514.994 222.537C514.937 222.795 514.924 223.063 514.924 223.363C514.924 223.859 514.963 224.438 514.963 225.139C514.963 225.432 514.957 225.747 514.937 226.083V226.081C514.935 226.123 514.933 226.164 514.933 226.204C514.935 226.597 515.035 226.988 515.199 227.384C515.488 228.076 515.971 228.785 516.541 229.495C517.395 230.559 518.457 231.625 519.384 232.543C519.845 233 520.273 233.422 520.621 233.782C520.968 234.141 521.239 234.447 521.368 234.639C521.591 234.969 521.812 235.402 522.011 235.861C522.308 236.549 522.557 237.296 522.73 237.867C522.817 238.153 522.885 238.396 522.931 238.566C522.953 238.651 522.97 238.717 522.983 238.763C522.988 238.787 522.992 238.802 522.996 238.815L523.001 238.83L523.075 239.141L523.394 239.163L523.425 238.726Z" fill="#04254E"/>
<path fill-rule="evenodd" clip-rule="evenodd" d="M516.062 222.349L516.016 222.086L516.051 222.351L516.062 222.349L516.016 222.086L516.051 222.351L516.049 222.336L516.051 222.351L516.049 222.336L516.051 222.351L516.082 222.349C516.117 222.349 516.174 222.353 516.241 222.373C516.344 222.403 516.466 222.462 516.6 222.618C516.733 222.775 516.877 223.044 516.969 223.509C517.024 223.802 517.166 224.058 517.354 224.252C517.517 224.42 517.712 224.547 517.915 224.648C518.274 224.823 518.669 224.925 519.067 225.021C519.663 225.161 520.273 225.284 520.721 225.491C520.944 225.594 521.125 225.714 521.259 225.856C521.392 225.998 521.486 226.16 521.538 226.392C521.591 226.628 521.823 226.776 522.059 226.724C522.295 226.671 522.443 226.437 522.391 226.201C522.319 225.874 522.174 225.587 521.984 225.356C521.816 225.155 521.617 224.993 521.403 224.864C521.029 224.639 520.614 224.503 520.201 224.392C519.585 224.23 518.966 224.123 518.525 223.957C518.304 223.876 518.132 223.782 518.024 223.684C517.915 223.581 517.858 223.492 517.826 223.341C517.751 222.958 517.64 222.646 517.498 222.39C517.288 222.01 517.008 221.765 516.742 221.634C516.475 221.501 516.233 221.475 516.082 221.475C515.99 221.475 515.929 221.483 515.907 221.488C515.671 221.531 515.511 221.757 515.555 221.995C515.597 222.233 515.824 222.39 516.062 222.349Z" fill="#04254E"/>
<path fill-rule="evenodd" clip-rule="evenodd" d="M517.679 223.048L531.239 212.878C531.239 212.878 532.087 212.644 532.229 214.292L518.975 224.32C518.975 224.32 517.408 224.073 517.679 223.048Z" fill="#222831"/>
<path fill-rule="evenodd" clip-rule="evenodd" d="M535.559 298.898C535.559 298.898 527.01 262.602 526.215 257.146C525.422 251.689 520.824 234.984 520.824 234.984C520.824 234.984 525.891 231.886 527.393 233.295C527.393 233.295 544.576 283.614 544.943 286.792C545.312 289.967 543.348 303.402 535.559 298.898Z" fill="white"/>
<path fill-rule="evenodd" clip-rule="evenodd" d="M535.56 298.898L535.984 298.798C535.984 298.798 535.951 298.656 535.887 298.389C535.418 296.385 533.291 287.329 531.191 278.135C530.14 273.54 529.098 268.907 528.269 265.107C527.856 263.208 527.496 261.516 527.216 260.139C526.939 258.765 526.74 257.705 526.648 257.084C526.447 255.692 526.008 253.623 525.464 251.282C523.833 244.267 521.246 234.871 521.246 234.868L520.824 234.984L521.051 235.356L521.06 235.351C521.15 235.297 521.995 234.79 523.051 234.305C523.578 234.06 524.159 233.822 524.718 233.647C525.278 233.472 525.818 233.363 526.248 233.365C526.449 233.365 526.624 233.387 526.764 233.43C526.906 233.474 527.011 233.535 527.094 233.612L527.393 233.295L526.98 233.435C526.98 233.437 527.048 233.631 527.172 234.001C528.117 236.77 532.369 249.259 536.429 261.424C538.46 267.506 540.442 273.509 541.936 278.177C542.684 280.509 543.309 282.508 543.757 284.014C543.982 284.766 544.163 285.395 544.29 285.878C544.356 286.121 544.406 286.324 544.443 286.488C544.48 286.652 544.502 286.776 544.511 286.842C544.535 287.054 544.55 287.336 544.548 287.663C544.55 288.524 544.452 289.711 544.231 290.994C543.899 292.917 543.283 295.065 542.33 296.689C541.853 297.499 541.296 298.179 540.667 298.645C540.033 299.112 539.336 299.372 538.521 299.374C537.736 299.374 536.829 299.125 535.778 298.52L535.56 298.898L535.984 298.798L535.56 298.898L535.339 299.276C536.488 299.94 537.548 300.249 538.521 300.249C539.194 300.249 539.819 300.1 540.385 299.831C541.373 299.361 542.17 298.546 542.817 297.563C543.783 296.086 544.425 294.215 544.839 292.412C545.247 290.607 545.422 288.876 545.422 287.663C545.422 287.309 545.409 287.001 545.378 286.741C545.363 286.61 545.332 286.457 545.287 286.26C545.114 285.504 544.714 284.128 544.144 282.272C542.146 275.786 538.064 263.511 534.478 252.851C530.894 242.194 527.808 233.153 527.806 233.153L527.771 233.05L527.693 232.976C527.498 232.792 527.264 232.67 527.019 232.596C526.773 232.519 526.515 232.491 526.248 232.491C525.66 232.491 525.031 232.631 524.399 232.832C523.453 233.133 522.511 233.577 521.797 233.944C521.084 234.313 520.603 234.606 520.597 234.61L520.315 234.783L520.402 235.1C520.402 235.1 520.474 235.36 520.601 235.828C521.047 237.462 522.17 241.625 523.269 245.972C523.82 248.146 524.362 250.367 524.81 252.34C525.26 254.311 525.614 256.037 525.785 257.209C525.885 257.91 526.106 259.075 526.416 260.594C527.502 265.904 529.681 275.502 531.589 283.776C533.497 292.049 535.134 298.996 535.134 298.999L535.177 299.182L535.339 299.276L535.56 298.898Z" fill="#04254E"/>
<path fill-rule="evenodd" clip-rule="evenodd" d="M556.102 416.352C556.102 416.352 554.605 422.668 556.469 430.05C558.134 436.643 560.861 467.447 559.836 486.827C559.618 490.963 559.579 495.104 559.753 499.243C560.016 505.439 559.773 514.591 556.397 517.543C551.126 522.152 546.912 521.752 546.912 521.752C546.912 521.752 553.106 513.118 552.063 497.447C551.567 490.002 543.274 449.248 540.26 440.367C537.245 431.488 536.478 420.163 536.478 420.163L556.102 416.352Z" fill="white"/>
<path fill-rule="evenodd" clip-rule="evenodd" d="M556.101 416.352L555.677 416.252C555.671 416.276 555.096 418.706 555.096 422.322C555.096 424.573 555.319 427.281 556.044 430.157C556.388 431.516 556.79 434.001 557.192 437.231C558.398 446.927 559.624 463.385 559.622 477.377C559.622 480.701 559.554 483.883 559.399 486.805C559.272 489.197 559.207 491.595 559.207 493.99C559.207 495.747 559.242 497.504 559.316 499.261C559.362 500.356 559.392 501.544 559.392 502.773C559.395 505.616 559.228 508.68 558.726 511.311C558.475 512.626 558.138 513.83 557.703 514.842C557.268 515.854 556.735 516.667 556.108 517.213C553.903 519.141 551.901 520.166 550.334 520.712C548.77 521.256 547.638 521.324 547.179 521.324C547.098 521.324 547.039 521.322 546.999 521.319L546.96 521.317H546.951L546.947 521.361L546.951 521.317L546.947 521.361L546.951 521.317L546.912 521.752L547.266 522.008C547.303 521.957 552.618 514.525 552.618 500.972C552.618 499.829 552.581 498.645 552.498 497.419C552.434 496.461 552.251 495.006 551.969 493.155C550.985 486.684 548.826 475.41 546.58 464.777C545.457 459.46 544.312 454.302 543.284 449.986C542.253 445.668 541.342 442.2 540.673 440.227C539.178 435.83 538.236 430.799 537.67 426.874C537.386 424.91 537.198 423.225 537.08 422.03C537.021 421.431 536.98 420.957 536.951 420.631C536.938 420.469 536.93 420.345 536.923 420.262C536.916 420.176 536.914 420.135 536.914 420.135L536.477 420.163L536.562 420.594L556.184 416.78L556.101 416.352L555.677 416.252L556.101 416.352L556.018 415.924L536.016 419.809L536.042 420.194C536.042 420.201 536.235 423.041 536.805 426.999C537.375 430.954 538.324 436.027 539.845 440.509C540.216 441.599 540.673 443.201 541.189 445.174C542.992 452.084 545.496 463.548 547.6 474.093C548.654 479.364 549.607 484.407 550.323 488.535C550.682 490.6 550.981 492.436 551.204 493.957C551.427 495.476 551.573 496.684 551.626 497.475C551.707 498.684 551.744 499.849 551.744 500.972C551.744 507.631 550.439 512.773 549.137 516.247C548.486 517.982 547.836 519.302 547.351 520.183C547.109 520.624 546.908 520.957 546.77 521.175C546.7 521.287 546.645 521.367 546.608 521.422C546.591 521.448 546.578 521.468 546.569 521.481L546.558 521.494L546.556 521.496L546.112 522.117L546.871 522.187C546.884 522.189 546.989 522.198 547.179 522.198C547.723 522.198 548.953 522.119 550.623 521.538C552.292 520.957 554.397 519.873 556.685 517.871C557.445 517.204 558.035 516.278 558.505 515.187C559.209 513.551 559.644 511.529 559.91 509.372C560.175 507.218 560.267 504.93 560.267 502.773C560.267 501.529 560.236 500.329 560.19 499.224C560.116 497.48 560.081 495.736 560.081 493.99C560.081 491.61 560.146 489.228 560.273 486.85C560.428 483.909 560.496 480.712 560.496 477.377C560.496 468.015 559.952 457.574 559.228 448.767C558.868 444.364 558.464 440.371 558.059 437.124C557.655 433.874 557.255 431.381 556.892 429.943C556.187 427.154 555.97 424.514 555.97 422.322C555.97 420.561 556.11 419.088 556.25 418.057C556.32 417.543 556.39 417.139 556.442 416.866C556.468 416.728 556.49 416.623 556.506 416.553C556.512 416.52 556.519 416.494 556.521 416.477L556.525 416.457L556.527 416.453L556.683 415.795L556.018 415.924L556.101 416.352Z" fill="#04254E"/>
<path fill-rule="evenodd" clip-rule="evenodd" d="M538.187 427.664V430.198L538.999 434.296C538.999 434.296 553.235 433.044 556.049 430.105C556.049 430.105 555.33 425.913 555.33 425.131C555.33 424.348 538.187 427.664 538.187 427.664Z" fill="#50D270"/>
<path fill-rule="evenodd" clip-rule="evenodd" d="M559.714 498.201C559.714 498.201 561.198 497.362 562.679 499.289C564.161 501.219 565.83 521.167 565.83 521.167L564.089 521.505L562.332 512.458C562.332 512.458 562.334 522.08 560.859 522.891C559.384 523.704 541.818 528.747 542.45 526C543.083 523.254 547.214 520.76 547.214 520.76C547.214 520.76 549.908 520.994 553.376 518.514C556.844 516.031 560.304 513.258 559.714 498.201Z" fill="#8A54A2"/>
<path fill-rule="evenodd" clip-rule="evenodd" d="M559.714 498.201L559.93 498.581L559.814 498.376L559.926 498.583L559.93 498.581L559.814 498.376L559.926 498.583L559.934 498.579C559.985 498.555 560.212 498.454 560.529 498.457C560.749 498.457 561.014 498.5 561.32 498.658C561.624 498.813 561.969 499.084 562.332 499.556C562.377 499.613 562.465 499.777 562.55 500.006C562.712 500.439 562.887 501.114 563.057 501.944C563.359 503.398 563.658 505.334 563.933 507.414C564.349 510.535 564.714 513.985 564.976 516.652C565.107 517.987 565.212 519.123 565.284 519.93C565.319 520.332 565.347 520.651 565.367 520.869C565.384 521.086 565.395 521.204 565.395 521.204L565.83 521.166L565.747 520.738L564.434 520.994L562.76 512.375L561.895 512.458C561.895 512.489 561.892 514.888 561.711 517.366C561.619 518.605 561.481 519.864 561.28 520.843C561.18 521.33 561.064 521.748 560.94 522.047C560.878 522.194 560.815 522.312 560.76 522.39C560.706 522.469 560.66 522.504 560.647 522.508C560.603 522.532 560.5 522.58 560.363 522.635C559.84 522.847 558.798 523.194 557.485 523.586C555.516 524.176 552.922 524.875 550.446 525.426C549.209 525.701 548.002 525.939 546.919 526.107C545.837 526.276 544.875 526.374 544.15 526.374C543.647 526.376 543.252 526.322 543.044 526.243C542.939 526.206 542.887 526.164 542.876 526.151L542.869 526.145L542.863 526.147H542.871L542.869 526.145L542.863 526.147H542.871V526.138L542.876 526.101V526.099C543.013 525.5 543.356 524.877 543.809 524.289C544.484 523.406 545.398 522.609 546.138 522.041C546.51 521.756 546.838 521.527 547.069 521.372C547.187 521.293 547.281 521.234 547.345 521.193C547.375 521.173 547.399 521.158 547.417 521.149L547.434 521.138L547.439 521.134L547.214 520.76L547.174 521.195C547.187 521.197 547.268 521.204 547.408 521.204C548.158 521.204 550.629 521.016 553.63 518.867C554.434 518.293 555.258 517.687 556.038 516.907C557.209 515.734 558.269 514.16 559.016 511.737C559.766 509.313 560.216 506.042 560.216 501.416C560.216 500.406 560.194 499.329 560.151 498.183L559.714 498.201L559.93 498.581L559.714 498.201L559.277 498.218C559.322 499.353 559.342 500.417 559.342 501.416C559.344 507.51 558.544 511.145 557.386 513.509C556.807 514.694 556.141 515.565 555.419 516.289C554.698 517.012 553.92 517.587 553.12 518.157C550.288 520.183 548.02 520.327 547.408 520.329C547.351 520.329 547.31 520.327 547.281 520.327L547.253 520.325H547.249L547.24 520.454L547.251 520.325H547.249L547.24 520.454L547.251 520.325L547.109 520.312L546.986 520.386C546.973 520.395 545.924 521.027 544.781 522.021C544.211 522.517 543.617 523.105 543.114 523.756C542.613 524.409 542.203 525.128 542.023 525.902L542.026 525.9C542.006 525.979 541.997 526.057 541.997 526.138C541.995 526.247 542.015 526.361 542.056 526.464C542.128 526.647 542.259 526.791 542.404 526.892C542.624 527.045 542.878 527.121 543.166 527.176C543.455 527.226 543.783 527.248 544.15 527.248C545.288 527.248 546.818 527.038 548.512 526.719C551.051 526.239 553.949 525.506 556.326 524.833C557.515 524.497 558.573 524.176 559.392 523.907C559.803 523.771 560.153 523.651 560.433 523.546C560.572 523.494 560.695 523.446 560.8 523.4C560.907 523.356 560.992 523.317 561.068 523.275C561.241 523.179 561.368 523.044 561.475 522.893C561.672 522.611 561.811 522.257 561.936 521.837C562.152 521.105 562.305 520.17 562.421 519.163C562.769 516.149 562.769 512.51 562.769 512.458H562.332L561.901 512.541L563.743 522.019L566.298 521.523L566.265 521.131C566.265 521.129 565.848 516.138 565.245 510.902C564.943 508.282 564.596 505.603 564.228 503.448C564.045 502.371 563.857 501.424 563.662 500.675C563.566 500.299 563.47 499.973 563.367 499.7C563.265 499.427 563.164 499.208 563.027 499.023C562.596 498.465 562.15 498.1 561.717 497.88C561.287 497.657 560.872 497.583 560.529 497.583C559.926 497.583 559.539 497.799 559.497 497.821L559.266 497.952L559.277 498.218L559.714 498.201Z" fill="#04254E"/>
<path fill-rule="evenodd" clip-rule="evenodd" d="M539.764 419.897C539.764 419.897 537.238 425.874 537.85 433.463C538.398 440.242 535.972 471.07 531.746 490.013C530.843 494.055 530.118 498.133 529.604 502.242C528.833 508.395 527.076 517.381 523.256 519.731C517.292 523.402 513.204 522.307 513.204 522.307C513.204 522.307 520.745 514.822 522.319 499.195C523.064 491.772 521.652 450.205 520.153 440.948C518.654 431.691 519.779 420.397 519.779 420.397L539.764 419.897Z" fill="white"/>
<path fill-rule="evenodd" clip-rule="evenodd" d="M539.764 419.897L539.36 419.726C539.349 419.759 537.319 424.56 537.317 431.062C537.317 431.851 537.347 432.666 537.415 433.498C537.465 434.115 537.489 434.956 537.489 435.976C537.489 440.92 536.904 450.135 535.839 460.242C534.773 470.351 533.23 481.363 531.32 489.917C530.415 493.973 529.686 498.063 529.17 502.189C528.787 505.251 528.158 509.016 527.155 512.285C526.654 513.92 526.062 515.428 525.37 516.658C524.679 517.889 523.888 518.83 523.027 519.359C519.358 521.617 516.447 522.023 514.799 522.023C514.31 522.023 513.929 521.986 513.678 521.951C513.554 521.934 513.457 521.916 513.398 521.903C513.368 521.896 513.346 521.892 513.331 521.89L513.317 521.886H513.315L513.267 522.076L513.317 521.886H513.315L513.267 522.076L513.317 521.886L513.204 522.307L513.512 522.618C513.536 522.594 515.448 520.69 517.555 516.82C519.661 512.952 521.96 507.115 522.754 499.239C522.826 498.511 522.878 497.491 522.911 496.217C522.946 494.943 522.961 493.42 522.961 491.702C522.961 484.399 522.673 473.581 522.231 463.647C522.011 458.68 521.751 453.933 521.471 449.958C521.191 445.981 520.892 442.782 520.584 440.878C519.991 437.211 519.81 433.203 519.81 429.718C519.81 427.102 519.911 424.781 520.013 423.114C520.064 422.281 520.114 421.61 520.151 421.151C520.171 420.92 520.186 420.743 520.197 420.622C520.201 420.561 520.206 420.515 520.21 420.487C520.212 420.456 520.214 420.441 520.214 420.441L519.779 420.397L519.79 420.834L539.775 420.334L539.764 419.897L539.36 419.726L539.764 419.897L539.753 419.46L519.382 419.971L519.345 420.354C519.342 420.365 518.936 424.442 518.936 429.718C518.936 433.234 519.117 437.281 519.723 441.018C520.02 442.862 520.321 446.057 520.599 450.019C521.436 461.914 522.087 480.78 522.087 491.702C522.087 493.413 522.072 494.93 522.037 496.193C522.004 497.454 521.952 498.466 521.884 499.152C521.104 506.901 518.844 512.622 516.788 516.403C515.758 518.293 514.779 519.698 514.061 520.627C513.702 521.092 513.407 521.438 513.204 521.665C513.103 521.778 513.025 521.864 512.972 521.918C512.946 521.947 512.926 521.966 512.913 521.98L512.9 521.995L512.896 521.997L512.356 522.532L513.09 522.729C513.123 522.738 513.731 522.897 514.799 522.897C516.591 522.9 519.681 522.447 523.486 520.105C524.533 519.455 525.396 518.393 526.132 517.087C527.236 515.124 528.06 512.589 528.689 509.962C529.318 507.336 529.747 504.615 530.037 502.296C530.551 498.203 531.274 494.139 532.172 490.109C534.093 481.499 535.641 470.465 536.707 460.334C537.776 450.201 538.363 440.981 538.363 435.976C538.363 434.941 538.339 434.084 538.287 433.428C538.221 432.62 538.191 431.829 538.191 431.062C538.191 427.902 538.687 425.144 539.183 423.181C539.43 422.2 539.677 421.418 539.863 420.883C539.954 420.614 540.031 420.408 540.085 420.271C540.112 420.201 540.131 420.15 540.147 420.115L540.162 420.076L540.166 420.067L540.429 419.442L539.753 419.46L539.764 419.897Z" fill="#04254E"/>
<path fill-rule="evenodd" clip-rule="evenodd" d="M519.812 426.663L519.764 429.917L519.919 434.753C519.919 434.753 534.163 435.88 537.428 433.448C537.428 433.448 537.415 429.195 537.546 428.424C537.675 427.653 519.812 426.663 519.812 426.663Z" fill="#50D270"/>
<path fill-rule="evenodd" clip-rule="evenodd" d="M529.738 501.208C529.738 501.208 531.34 500.627 532.481 502.775C533.623 504.923 531.958 524.873 531.958 524.873L530.184 524.916L529.952 515.703C529.952 515.703 528.357 525.192 526.768 525.747C525.179 526.302 507.019 528.36 508.099 525.756C509.179 523.153 513.665 521.381 513.665 521.381C513.665 521.381 516.283 522.058 520.116 520.187C523.947 518.315 527.821 516.153 529.738 501.208Z" fill="#8A54A2"/>
<path fill-rule="evenodd" clip-rule="evenodd" d="M529.738 501.208L529.886 501.619L529.79 501.354L529.882 501.621L529.886 501.619L529.79 501.354L529.882 501.621L529.88 501.612L529.882 501.621L529.88 501.612L529.882 501.621C529.891 501.619 530.033 501.573 530.24 501.573C530.461 501.575 530.752 501.619 531.073 501.809C531.392 501.999 531.755 502.34 532.096 502.98C532.133 503.046 532.192 503.225 532.238 503.474C532.308 503.85 532.362 504.385 532.395 505.032C532.428 505.677 532.443 506.437 532.443 507.272C532.445 510.52 532.214 514.916 531.982 518.494C531.868 520.284 531.753 521.87 531.665 523.009C531.624 523.577 531.586 524.034 531.562 524.348C531.536 524.663 531.521 524.836 531.521 524.836L531.958 524.873L531.947 524.436L530.61 524.468L530.389 515.692L529.521 515.629C529.521 515.629 529.515 515.666 529.504 515.734C529.414 516.249 528.997 518.599 528.418 520.867C528.129 521.999 527.802 523.116 527.461 523.957C527.29 524.379 527.118 524.731 526.958 524.973C526.879 525.096 526.805 525.187 526.742 525.246C526.68 525.308 526.635 525.332 526.624 525.334C526.586 525.347 526.508 525.369 526.405 525.393C526.014 525.485 525.267 525.611 524.309 525.743C521.429 526.14 516.597 526.608 512.976 526.608C511.586 526.608 510.371 526.538 509.543 526.376C509.13 526.3 508.813 526.193 508.643 526.094C508.558 526.046 508.512 526.003 508.499 525.983L508.49 525.968L508.481 525.972L508.49 525.97V525.968L508.481 525.972L508.49 525.97H508.488H508.49H508.488H508.49C508.49 525.968 508.49 525.954 508.503 525.926V525.924C508.737 525.356 509.178 524.798 509.722 524.294C510.535 523.535 511.569 522.902 512.393 522.465C512.806 522.244 513.166 522.073 513.424 521.96C513.551 521.901 513.654 521.857 513.724 521.829C513.756 521.813 513.783 521.802 513.8 521.796L513.82 521.789L513.826 521.787L513.665 521.381L513.555 521.802C513.586 521.811 514.084 521.936 514.947 521.936C516.138 521.938 518.022 521.695 520.308 520.579C521.267 520.109 522.257 519.611 523.228 518.883C524.685 517.792 526.077 516.186 527.262 513.463C528.451 510.738 529.449 506.894 530.17 501.265L529.738 501.208L529.886 501.619L529.738 501.208L529.305 501.153C528.352 508.592 526.91 512.81 525.275 515.364C524.46 516.643 523.597 517.513 522.703 518.184C521.809 518.854 520.878 519.329 519.923 519.794C517.764 520.847 516.023 521.062 514.947 521.062C514.559 521.062 514.259 521.033 514.058 521.007C513.958 520.992 513.883 520.979 513.835 520.97C513.811 520.965 513.796 520.961 513.785 520.959L513.774 520.957L513.767 520.987L513.774 520.957L513.767 520.987L513.774 520.957L513.636 520.922L513.505 520.974C513.49 520.979 512.349 521.429 511.06 522.218C510.413 522.613 509.729 523.094 509.126 523.653C508.525 524.215 508 524.855 507.694 525.59L507.697 525.587C507.646 525.708 507.616 525.836 507.616 525.97C507.614 526.166 507.688 526.363 507.799 526.507C507.898 526.638 508.018 526.737 508.151 526.82C508.385 526.964 508.66 527.062 508.984 527.148C509.465 527.272 510.052 527.353 510.728 527.406C511.401 527.458 512.161 527.482 512.976 527.482C515.603 527.482 518.809 527.244 521.493 526.962C522.834 526.82 524.043 526.669 524.985 526.529C525.457 526.459 525.861 526.394 526.182 526.333C526.344 526.302 526.484 526.274 526.604 526.245C526.726 526.217 526.825 526.191 526.912 526.16C527.098 526.092 527.246 525.981 527.375 525.85C527.618 525.603 527.815 525.275 528.009 524.879C528.343 524.189 528.652 523.286 528.933 522.309C529.779 519.379 530.382 515.782 530.382 515.775L529.952 515.703L529.515 515.714L529.757 525.364L532.36 525.299L532.393 524.908C532.393 524.906 532.624 522.139 532.856 518.551C533.086 514.962 533.317 510.559 533.317 507.272C533.317 506.145 533.291 505.148 533.225 504.353C533.193 503.955 533.151 503.607 533.097 503.312C533.04 503.017 532.976 502.779 532.867 502.569C532.467 501.815 531.991 501.337 531.519 501.057C531.045 500.777 530.586 500.699 530.24 500.701C529.867 500.701 529.622 500.786 529.589 500.797L529.338 500.889L529.305 501.153L529.738 501.208Z" fill="#04254E"/>
<path fill-rule="evenodd" clip-rule="evenodd" d="M505.444 349.119L512.658 299.274L528.051 298.898C528.051 298.898 523.265 349.156 522.795 348.498C522.325 347.843 505.444 349.119 505.444 349.119Z" fill="#04254E"/>
<path fill-rule="evenodd" clip-rule="evenodd" d="M507.747 347.545L514.255 300.681L529.648 300.305C529.648 300.305 523.217 347.513 522.747 346.857C522.279 346.199 507.747 347.545 507.747 347.545Z" fill="white"/>
<path fill-rule="evenodd" clip-rule="evenodd" d="M507.747 347.545L508.18 347.604L514.637 301.11L529.657 300.742L529.648 300.305L529.213 300.246C529.213 300.246 529.189 300.428 529.143 300.769C528.794 303.326 527.218 314.833 525.664 325.701C524.889 331.136 524.117 336.409 523.51 340.323C523.206 342.279 522.941 343.894 522.74 345.017C522.638 345.579 522.552 346.016 522.485 346.304C522.452 346.446 522.424 346.555 522.406 346.608L522.397 346.634L522.395 346.636L522.622 346.737L522.424 346.59C522.397 346.628 522.397 346.636 522.395 346.636L522.622 346.737L522.424 346.59L522.74 346.824L522.507 346.507C522.459 346.544 522.439 346.571 522.424 346.59L522.74 346.824L522.507 346.507L522.758 346.848V346.426C522.638 346.426 522.552 346.475 522.507 346.507L522.758 346.848V346.426V346.853L522.99 346.494C522.935 346.457 522.85 346.424 522.758 346.426V346.853L522.99 346.494L522.762 346.844L523.099 346.595C523.077 346.566 523.044 346.529 522.99 346.494L522.762 346.844L523.099 346.595L522.747 346.857L523.103 346.601C523.025 346.496 522.946 346.453 522.88 346.42C522.767 346.365 522.664 346.341 522.546 346.319C522.371 346.289 522.164 346.269 521.917 346.256C521.67 346.243 521.383 346.239 521.062 346.239C519.069 346.239 515.741 346.457 512.898 346.673C510.057 346.892 507.708 347.108 507.705 347.108L507.747 347.545L508.18 347.604L507.747 347.545L507.786 347.98C507.788 347.98 507.933 347.967 508.197 347.943C509.122 347.86 511.486 347.652 514.047 347.464C516.606 347.279 519.368 347.113 521.062 347.113C521.534 347.113 521.923 347.126 522.188 347.152C522.319 347.165 522.419 347.183 522.469 347.196L522.496 347.204H522.498L522.518 347.156L522.496 347.204H522.498L522.518 347.156L522.496 347.204L522.622 346.944L522.393 347.11C522.448 347.183 522.485 347.198 522.496 347.204L522.622 346.944L522.393 347.11V347.113L522.397 347.117C522.421 347.15 522.456 347.189 522.515 347.228C522.574 347.266 522.662 347.301 522.758 347.301C522.858 347.301 522.941 347.266 522.994 347.233C523.046 347.2 523.077 347.169 523.099 347.143C523.145 347.093 523.162 347.058 523.177 347.027C523.208 346.968 523.223 346.92 523.241 346.866C523.276 346.759 523.309 346.625 523.348 346.457C523.494 345.808 523.706 344.617 523.969 343.011C525.802 331.776 530.081 300.367 530.081 300.364L530.149 299.855L513.872 300.253L507.238 348.03L507.786 347.98L507.747 347.545Z" fill="#04254E"/>
<path fill-rule="evenodd" clip-rule="evenodd" d="M511.189 350.111L517.175 303.013L532.568 302.637C532.568 302.637 525.47 350 525 349.344C524.53 348.686 511.189 350.111 511.189 350.111Z" fill="#0B065A"/>
<path fill-rule="evenodd" clip-rule="evenodd" d="M549.967 253.426C549.967 253.426 543.166 255.021 540.996 259.967C538.368 265.959 530.712 265.743 531.383 266.791C532.052 267.838 534.5 270.688 534.5 270.688C534.5 270.688 530.798 278.957 533.081 280.856C535.365 282.755 543.835 285.093 543.835 285.093L540.542 292.908L550.553 296.389L556.442 283.459C556.442 283.459 562.909 257.248 549.967 253.426Z" fill="white"/>
<path fill-rule="evenodd" clip-rule="evenodd" d="M549.967 253.426L549.867 253C549.845 253.006 548.116 253.411 546.095 254.453C545.085 254.975 544.001 255.657 543.022 256.534C542.043 257.41 541.169 258.485 540.597 259.792C539.996 261.156 539.128 262.176 538.151 262.967C536.685 264.149 534.967 264.803 533.599 265.24C532.913 265.461 532.319 265.624 531.869 265.788C531.641 265.871 531.449 265.95 531.281 266.059C531.195 266.116 531.112 266.182 531.038 266.278C530.966 266.372 530.903 266.514 530.905 266.665C530.905 266.805 530.953 266.931 531.014 267.025C531.198 267.312 531.48 267.69 531.807 268.111C532.789 269.368 534.168 270.97 534.17 270.974L534.5 270.688L534.102 270.509C534.098 270.517 533.553 271.735 533.005 273.354C532.732 274.163 532.456 275.074 532.249 275.985C532.043 276.899 531.901 277.812 531.901 278.642C531.901 279.156 531.954 279.639 532.091 280.074C532.227 280.509 532.454 280.902 532.802 281.193C533.121 281.457 533.525 281.713 533.991 281.966C534.806 282.412 535.813 282.851 536.875 283.264C540.057 284.506 543.711 285.513 543.717 285.515L543.835 285.093L543.431 284.925L539.959 293.168L550.787 296.934L556.858 283.603L556.869 283.564C556.871 283.544 558.494 276.975 558.494 269.884C558.494 266.335 558.09 262.65 556.845 259.571C556.222 258.031 555.385 256.643 554.275 255.509C553.164 254.377 551.779 253.505 550.092 253.006L549.98 252.974L549.867 253L549.967 253.426L549.843 253.846C551.392 254.302 552.636 255.087 553.65 256.121C555.171 257.67 556.169 259.794 556.781 262.198C557.395 264.6 557.623 267.272 557.62 269.884C557.62 273.365 557.22 276.737 556.818 279.237C556.619 280.487 556.418 281.518 556.268 282.235C556.193 282.596 556.13 282.875 556.086 283.065C556.064 283.162 556.047 283.234 556.036 283.282C556.025 283.33 556.018 283.354 556.018 283.354L556.442 283.459L556.045 283.277L550.321 295.845L541.126 292.648L544.43 284.805L543.951 284.674C543.951 284.674 543.918 284.665 543.857 284.648C543.394 284.517 541.27 283.911 539.006 283.118C537.874 282.722 536.705 282.279 535.697 281.829C535.192 281.604 534.727 281.376 534.329 281.156C533.929 280.935 533.597 280.716 533.361 280.52C533.171 280.362 533.027 280.131 532.924 279.812C532.824 279.495 532.775 279.095 532.775 278.642C532.775 277.913 532.904 277.052 533.101 276.18C533.398 274.871 533.851 273.538 534.227 272.534C534.414 272.034 534.583 271.614 534.705 271.324C534.766 271.177 534.814 271.062 534.849 270.983C534.865 270.946 534.878 270.915 534.886 270.895C534.895 270.876 534.9 270.867 534.9 270.867L535.013 270.614L534.832 270.404C534.832 270.404 534.795 270.36 534.727 270.279C534.489 270.002 533.883 269.289 533.267 268.535C532.959 268.157 532.649 267.77 532.38 267.421C532.111 267.073 531.884 266.763 531.751 266.555L531.58 266.665H531.779C531.779 266.606 531.755 266.562 531.751 266.555L531.58 266.665H531.779H531.53L531.753 266.778C531.766 266.752 531.779 266.708 531.779 266.665H531.53L531.753 266.778L531.633 266.717L531.729 266.813C531.729 266.813 531.74 266.802 531.753 266.778L531.633 266.717L531.729 266.813L531.755 266.794C531.823 266.746 532.017 266.658 532.277 266.571C532.738 266.411 533.416 266.225 534.192 265.968C535.356 265.579 536.757 265.026 538.07 264.117C539.382 263.21 540.61 261.94 541.397 260.142C541.908 258.977 542.699 257.998 543.606 257.185C544.965 255.963 546.589 255.124 547.867 254.595C548.508 254.331 549.063 254.143 549.454 254.023C549.65 253.964 549.806 253.92 549.911 253.892C549.963 253.878 550.002 253.867 550.031 253.861L550.059 253.852H550.068L549.967 253.426L549.843 253.846L549.967 253.426Z" fill="#04254E"/>
<path fill-rule="evenodd" clip-rule="evenodd" d="M549.364 253.833C549.364 253.833 548.803 257.049 549.882 260.474C550.964 263.898 548.693 273.417 550.995 273.535C553.298 273.651 550.964 253.448 550.964 253.448L549.364 253.833Z" fill="#8AEBA0"/>
<path fill-rule="evenodd" clip-rule="evenodd" d="M550.584 277.84C550.584 277.84 555.046 280.284 556.98 275.71C558.916 271.136 558.02 279.621 555.562 284.842C553.105 290.063 551.445 293.498 551.445 293.498C551.445 293.498 550.081 293.774 548.285 293.513C548.285 293.513 556.611 280.889 553.916 280.032C551.222 279.176 549.355 278.621 550.584 277.84Z" fill="#8AEBA0"/>
<path fill-rule="evenodd" clip-rule="evenodd" d="M543.744 285.522C543.746 285.522 544.646 285.714 545.798 285.935C546.952 286.158 548.352 286.407 549.373 286.529C549.613 286.558 549.83 286.385 549.858 286.147C549.887 285.906 549.716 285.688 549.476 285.662C548.501 285.546 547.107 285.297 545.964 285.076C545.391 284.967 544.882 284.864 544.515 284.79C544.332 284.753 544.185 284.722 544.082 284.7C543.982 284.678 543.925 284.667 543.925 284.667C543.689 284.617 543.457 284.768 543.407 285.004C543.357 285.24 543.508 285.472 543.744 285.522Z" fill="#04254E"/>
<path fill-rule="evenodd" clip-rule="evenodd" d="M554.484 287.757C554.484 287.757 561.178 290.935 569.862 280.386C569.862 280.386 582.52 260.292 555.066 250.107C554.253 249.805 553.372 249.722 552.546 249.908C551.368 250.174 550.044 251.014 549.967 253.426C549.967 253.426 549.764 257.902 551.381 262.309C552.998 266.719 549.88 273.417 551.208 273.677C552.535 273.935 555.653 271.523 556.394 275.76C557.137 279.995 557.445 281.256 554.323 288.116" fill="#222831"/>
<path fill-rule="evenodd" clip-rule="evenodd" d="M551.349 274.09H551.351C551.37 274.084 551.644 273.994 552.046 273.907C552.448 273.819 552.979 273.736 553.51 273.736C554.076 273.736 554.633 273.835 555.044 274.077C555.251 274.2 555.424 274.355 555.564 274.562C555.704 274.77 555.813 275.035 555.87 275.386C555.896 275.539 555.907 275.684 555.907 275.817C555.907 276.188 555.82 276.477 555.678 276.722C555.568 276.903 555.424 277.06 555.247 277.198C554.983 277.406 554.64 277.563 554.257 277.668C553.873 277.773 553.451 277.821 553.033 277.821C552.64 277.821 552.251 277.777 551.908 277.698C551.565 277.618 551.268 277.502 551.06 277.375C550.855 277.25 550.586 277.314 550.459 277.521C550.335 277.727 550.4 277.996 550.606 278.122C550.92 278.312 551.298 278.452 551.711 278.548C552.124 278.645 552.574 278.695 553.033 278.695C553.897 278.693 554.795 278.52 555.522 278.072C555.883 277.847 556.202 277.548 556.429 277.167C556.654 276.787 556.783 276.328 556.781 275.817C556.781 275.633 556.766 275.443 556.733 275.244C556.659 274.788 556.506 274.394 556.29 274.073C555.964 273.59 555.501 273.28 555.011 273.101C554.522 272.921 554.004 272.864 553.51 272.862C552.87 272.862 552.266 272.963 551.818 273.061C551.37 273.16 551.08 273.26 551.069 273.262C550.839 273.341 550.717 273.588 550.793 273.817C550.872 274.047 551.119 274.169 551.349 274.09Z" fill="#04254E"/>
<path fill-rule="evenodd" clip-rule="evenodd" d="M552.282 255.653C552.282 255.653 552.297 255.655 552.328 255.66C552.819 255.725 557.124 256.385 561.283 259.145C563.363 260.524 565.409 262.425 566.934 265.041C568.46 267.657 569.467 270.99 569.469 275.244C569.469 275.736 569.454 276.243 569.428 276.761C569.421 276.881 569.513 276.984 569.633 276.99C569.753 276.997 569.856 276.905 569.863 276.785C569.891 276.258 569.906 275.745 569.906 275.244C569.906 270.78 568.809 267.285 567.159 264.565C564.681 260.48 560.975 258.146 557.891 256.833C554.81 255.52 552.347 255.22 552.334 255.22C552.214 255.205 552.105 255.29 552.092 255.41C552.076 255.531 552.162 255.64 552.282 255.653Z" fill="white"/>
<path fill-rule="evenodd" clip-rule="evenodd" d="M553.936 263.682C553.94 263.704 554.427 265.959 556.482 268.935C558.538 271.91 562.163 275.603 568.429 278.489C568.538 278.54 568.669 278.492 568.719 278.382C568.77 278.273 568.722 278.142 568.612 278.092C562.417 275.238 558.857 271.604 556.842 268.686C555.835 267.229 555.214 265.948 554.845 265.037C554.661 264.58 554.541 264.217 554.467 263.968C554.427 263.844 554.403 263.747 554.386 263.684C554.377 263.651 554.373 263.627 554.368 263.612L554.364 263.594V263.59C554.338 263.472 554.222 263.398 554.104 263.422C553.986 263.448 553.912 263.564 553.936 263.682Z" fill="white"/>
<path fill-rule="evenodd" clip-rule="evenodd" d="M557.353 284.392C557.458 284.427 557.889 284.554 558.619 284.554C560.181 284.556 563.09 283.966 567.01 280.686C567.104 280.607 567.115 280.469 567.039 280.378C566.96 280.284 566.822 280.273 566.731 280.349C562.867 283.579 560.07 284.117 558.619 284.117C557.941 284.119 557.555 283.999 557.496 283.979C557.38 283.94 557.257 284.001 557.218 284.114C557.179 284.228 557.24 284.353 557.353 284.392Z" fill="white"/>
<path fill-rule="evenodd" clip-rule="evenodd" d="M553.824 259.418C553.824 259.42 554.878 261.8 556.344 264.425C557.076 265.736 557.913 267.111 558.774 268.28C559.639 269.451 560.524 270.421 561.392 270.928C561.495 270.99 561.63 270.955 561.689 270.85C561.75 270.745 561.715 270.611 561.61 270.55C560.841 270.104 559.971 269.169 559.126 268.022C557.856 266.3 556.628 264.101 555.719 262.336C555.264 261.453 554.891 260.679 554.631 260.126C554.499 259.849 554.397 259.628 554.329 259.475C554.259 259.322 554.222 259.241 554.222 259.241C554.174 259.13 554.045 259.08 553.936 259.13C553.824 259.178 553.774 259.307 553.824 259.418Z" fill="white"/>
<path fill-rule="evenodd" clip-rule="evenodd" d="M543.969 285.321C543.969 285.321 548.711 286.278 549.441 286.267C550.173 286.258 547.599 288.885 543.16 287.39L543.969 285.321Z" fill="#8AEBA0"/>
<path fill-rule="evenodd" clip-rule="evenodd" d="M542.216 264.654C541.897 265.083 541.388 265.246 541.078 265.017C540.769 264.788 540.776 264.252 541.095 263.822C541.414 263.393 541.923 263.229 542.231 263.459C542.542 263.688 542.535 264.224 542.216 264.654Z" fill="#04254E"/>
<path fill-rule="evenodd" clip-rule="evenodd" d="M542.843 259.978L542.869 259.855L542.843 259.978L542.869 259.855L542.843 259.978C542.856 259.98 543.553 260.137 544.272 260.594C544.633 260.821 544.998 261.123 545.297 261.51C545.597 261.899 545.833 262.371 545.94 262.967C545.984 263.205 546.211 263.363 546.447 263.321C546.685 263.277 546.842 263.05 546.801 262.814C546.665 262.06 546.355 261.442 545.973 260.952C545.394 260.216 544.661 259.766 544.076 259.495C543.49 259.222 543.047 259.128 543.022 259.123C542.786 259.073 542.555 259.224 542.507 259.46C542.456 259.698 542.607 259.93 542.843 259.978Z" fill="#04254E"/>
<path fill-rule="evenodd" clip-rule="evenodd" d="M534.576 274.582C534.576 274.582 536.427 277.106 539.229 276.228L534.576 274.582Z" fill="white"/>
<path fill-rule="evenodd" clip-rule="evenodd" d="M534.222 274.842C534.239 274.864 534.598 275.351 535.249 275.845C535.575 276.092 535.975 276.344 536.442 276.531C536.912 276.722 537.452 276.85 538.046 276.85C538.462 276.85 538.901 276.787 539.36 276.643C539.589 276.571 539.718 276.326 539.646 276.097C539.574 275.865 539.327 275.738 539.097 275.81C538.724 275.926 538.374 275.976 538.046 275.976C537.579 275.976 537.153 275.876 536.77 275.721C536.198 275.491 535.73 275.137 535.409 274.84C535.249 274.694 535.125 274.56 535.044 274.466C535.002 274.418 534.972 274.381 534.952 274.357L534.932 274.329L534.928 274.324L534.908 274.34L534.928 274.324L534.908 274.34L534.928 274.324C534.786 274.13 534.51 274.088 534.316 274.23C534.121 274.375 534.08 274.648 534.224 274.842" fill="#04254E"/>
<path fill-rule="evenodd" clip-rule="evenodd" d="M576.349 284.099C575.269 286.558 572.531 287.733 570.234 286.724C567.937 285.716 566.95 282.906 568.029 280.447C569.109 277.989 571.845 276.815 574.141 277.823C576.438 278.833 577.426 281.643 576.349 284.099Z" fill="#222831"/>
<path fill-rule="evenodd" clip-rule="evenodd" d="M541.711 288C541.711 288 547.459 292.495 553.175 290.216C553.709 290.004 554.275 290.443 554.203 291.011C554.001 292.565 553.182 295.668 553.951 296.223C555.125 297.069 562.317 309.267 559.425 322.642C556.534 336.016 552.837 346.857 552.837 346.857L518.807 345.026C518.807 345.026 513.879 344.604 508.669 338.551C505.129 334.436 503.503 326.481 504.681 322.642C505.118 321.217 508.355 320.59 509.423 321.63L514.161 326.302C514.161 326.302 518.101 302.089 523.593 299.554C529.082 297.021 537.671 297.161 539.078 294.628C540.485 292.093 540.89 287.021 541.711 288Z" fill="white"/>
<path fill-rule="evenodd" clip-rule="evenodd" d="M541.711 288L541.442 288.345C541.46 288.358 542.395 289.09 543.897 289.823C545.398 290.557 547.465 291.298 549.751 291.298C550.911 291.298 552.124 291.105 553.337 290.622C553.381 290.605 553.418 290.598 553.455 290.598C553.536 290.598 553.617 290.633 553.676 290.692C553.737 290.751 553.77 290.823 553.77 290.913L553.768 290.959V290.957C553.702 291.468 553.558 292.191 553.431 292.937C553.304 293.684 553.191 294.453 553.191 295.104C553.191 295.395 553.213 295.664 553.278 295.913C553.311 296.038 553.357 296.158 553.422 296.271C553.488 296.385 553.578 296.494 553.696 296.577C553.711 296.588 553.774 296.645 553.853 296.735C554.004 296.905 554.218 297.194 554.465 297.574C555.337 298.913 556.644 301.418 557.725 304.654C558.809 307.893 559.67 311.866 559.668 316.16C559.668 318.229 559.469 320.375 558.999 322.55C557.557 329.224 555.911 335.268 554.629 339.641C553.986 341.829 553.435 343.599 553.044 344.82C552.85 345.432 552.692 345.906 552.588 346.228C552.535 346.387 552.494 346.51 552.465 346.593C552.439 346.673 552.424 346.715 552.424 346.715L552.837 346.857L552.861 346.42L518.829 344.589L518.807 345.026L518.844 344.591L518.84 344.619L518.844 344.591L518.84 344.619L518.844 344.591C518.809 344.586 517.607 344.468 515.787 343.621C513.966 342.773 511.525 341.197 509.001 338.264C507.668 336.719 506.593 334.567 505.863 332.301C505.129 330.032 504.738 327.65 504.738 325.651C504.738 324.538 504.86 323.546 505.098 322.77C505.142 322.626 505.241 322.475 505.4 322.327C505.636 322.106 506.005 321.903 506.429 321.765C506.851 321.625 507.325 321.549 507.76 321.551C508.064 321.549 508.348 321.586 508.584 321.656C508.818 321.726 508.999 321.829 509.117 321.944L509.115 321.942L514.456 327.207L514.591 326.372C514.591 326.372 514.607 326.28 514.637 326.103C514.862 324.777 515.92 318.76 517.559 312.799C518.379 309.818 519.345 306.848 520.415 304.499C520.951 303.326 521.512 302.305 522.083 301.523C522.653 300.738 523.237 300.198 523.776 299.951C525.107 299.335 526.648 298.876 528.232 298.496C530.61 297.928 533.077 297.543 535.109 297.056C536.126 296.813 537.035 296.545 537.78 296.204C538.151 296.031 538.486 295.841 538.77 295.618C539.054 295.395 539.292 295.139 539.46 294.84C539.806 294.219 540.081 293.483 540.319 292.727C540.678 291.593 540.949 290.406 541.193 289.519C541.316 289.075 541.432 288.706 541.534 288.479C541.584 288.367 541.633 288.291 541.65 288.271L541.654 288.267L541.552 288.153L541.615 288.291C541.641 288.28 541.652 288.269 541.654 288.267L541.552 288.153L541.615 288.291L541.508 288.055V288.315C541.55 288.315 541.589 288.304 541.615 288.291L541.508 288.055V288.315V288.074L541.383 288.282C541.403 288.295 541.451 288.315 541.508 288.315V288.074L541.383 288.282L541.434 288.197L541.368 288.271L541.383 288.282L541.434 288.197L541.368 288.271L541.377 288.282L541.405 288.317L541.442 288.345L541.711 288L542.048 287.72C541.989 287.65 541.921 287.587 541.831 287.532C541.744 287.478 541.628 287.438 541.508 287.441C541.344 287.438 541.202 287.508 541.108 287.585C541.019 287.657 540.955 287.736 540.9 287.819C540.798 287.974 540.719 288.149 540.643 288.352C540.509 288.708 540.385 289.149 540.254 289.652C540.055 290.402 539.843 291.278 539.589 292.128C539.336 292.976 539.041 293.795 538.696 294.414C538.569 294.648 538.337 294.877 537.998 295.093C537.404 295.476 536.491 295.804 535.389 296.086C533.735 296.514 531.661 296.861 529.543 297.307C527.426 297.755 525.265 298.302 523.409 299.158C522.612 299.53 521.912 300.242 521.252 301.182C520.103 302.825 519.078 305.198 518.164 307.847C516.794 311.818 515.689 316.409 514.921 320.013C514.154 323.614 513.73 326.228 513.728 326.232L514.161 326.302L514.467 325.992L509.729 321.319L509.727 321.317C509.478 321.075 509.168 320.92 508.831 320.819C508.497 320.718 508.134 320.677 507.76 320.677C507.048 320.677 506.298 320.834 505.66 321.129C505.341 321.278 505.048 321.461 504.803 321.689C504.561 321.914 504.364 322.189 504.264 322.515C503.988 323.406 503.864 324.475 503.864 325.651C503.864 327.762 504.272 330.218 505.031 332.569C505.791 334.919 506.901 337.163 508.339 338.835C510.984 341.909 513.573 343.57 515.509 344.455C517.446 345.343 518.728 345.458 518.768 345.461L518.774 345.463L553.145 347.309L553.252 346.997C553.254 346.988 556.956 336.136 559.854 322.736C560.339 320.493 560.542 318.286 560.542 316.16C560.542 310.782 559.233 305.924 557.802 302.316C557.085 300.511 556.338 299.018 555.704 297.923C555.387 297.377 555.096 296.929 554.849 296.59C554.727 296.42 554.613 296.276 554.511 296.158C554.406 296.04 554.314 295.948 554.207 295.869C554.205 295.867 554.194 295.861 554.178 295.832C554.152 295.788 554.119 295.701 554.098 295.574C554.076 295.448 554.065 295.288 554.065 295.104C554.063 294.554 554.168 293.813 554.292 293.085C554.419 292.351 554.561 291.63 554.635 291.068V291.066C554.642 291.016 554.644 290.963 554.644 290.913C554.646 290.579 554.504 290.277 554.288 290.065C554.071 289.855 553.776 289.726 553.455 289.724C553.309 289.724 553.158 289.753 553.014 289.812C551.914 290.249 550.815 290.423 549.751 290.423C547.657 290.426 545.704 289.735 544.281 289.038C543.569 288.691 542.99 288.341 542.59 288.081C542.391 287.952 542.236 287.843 542.133 287.768C542.081 287.731 542.043 287.703 542.017 287.683L541.989 287.661L541.982 287.657L541.711 288L542.048 287.72L541.711 288Z" fill="#04254E"/>
<path fill-rule="evenodd" clip-rule="evenodd" d="M531.891 319.613C531.891 319.613 531.886 319.637 531.877 319.683C531.751 320.408 530.614 326.687 528.412 332.751C527.312 335.782 525.944 338.758 524.327 340.946C523.519 342.041 522.651 342.934 521.74 343.546C520.824 344.16 519.876 344.492 518.862 344.495C518.51 344.492 518.149 344.453 517.778 344.368C517.542 344.313 517.308 344.46 517.253 344.696C517.201 344.932 517.347 345.166 517.581 345.22C518.016 345.318 518.442 345.369 518.862 345.367C520.112 345.369 521.274 344.934 522.325 344.204C523.245 343.566 524.087 342.703 524.865 341.687C526.222 339.905 527.384 337.65 528.374 335.266C529.858 331.689 530.949 327.818 531.672 324.838C532.395 321.857 532.752 319.766 532.752 319.759C532.793 319.521 532.631 319.296 532.393 319.254C532.155 319.215 531.93 319.374 531.891 319.613Z" fill="#04254E"/>
<path fill-rule="evenodd" clip-rule="evenodd" d="M552.836 346.857C552.836 346.857 551.466 356.711 553.859 363.61C556.252 370.506 560.059 372.902 561.366 384.726C562.648 396.348 557.666 426.398 557.666 426.398C557.666 426.398 531.16 431.525 514.596 425.056C514.596 425.056 513.175 374.591 515.85 361.496C518.525 348.404 518.807 345.026 518.807 345.026L552.836 346.857Z" fill="#8AEBA0"/>
<path fill-rule="evenodd" clip-rule="evenodd" d="M552.837 346.857L552.404 346.796C552.404 346.809 552.011 349.635 552.011 353.334C552.011 356.564 552.306 360.459 553.446 363.752C554.054 365.504 554.753 366.969 555.47 368.356C556.55 370.441 557.668 372.347 558.641 374.827C559.613 377.307 560.444 380.371 560.931 384.774C561.075 386.077 561.139 387.629 561.139 389.351C561.141 396.042 560.164 405.297 559.187 412.867C558.7 416.652 558.21 420.017 557.845 422.436C557.662 423.647 557.509 424.619 557.402 425.29C557.349 425.625 557.308 425.885 557.279 426.059C557.251 426.234 557.236 426.326 557.236 426.326L557.666 426.398L557.583 425.968C557.583 425.968 557.546 425.976 557.472 425.99C556.351 426.199 546.934 427.889 536.169 427.889C528.929 427.891 521.078 427.119 514.755 424.65L514.596 425.056L515.033 425.043C515.033 425.043 515.026 424.836 515.018 424.44C514.946 421.678 514.655 409.807 514.655 396.883C514.655 389.934 514.74 382.679 514.985 376.372C515.107 373.221 515.271 370.303 515.483 367.786C515.695 365.266 515.96 363.142 516.279 361.584C518.953 348.483 519.237 345.096 519.242 345.063L518.807 345.026L518.783 345.463L552.815 347.292L552.837 346.857L552.404 346.796L552.837 346.857L552.861 346.42L518.405 344.567L518.37 344.991V344.997C518.355 345.179 518.012 348.736 515.422 361.409C515.092 363.026 514.828 365.172 514.611 367.712C513.969 375.323 513.781 386.446 513.781 396.883C513.781 411.669 514.159 425.067 514.159 425.07L514.168 425.358L514.436 425.463C520.929 427.998 528.866 428.761 536.169 428.763C547.747 428.763 557.734 426.829 557.749 426.827L558.049 426.77L558.097 426.47C558.099 426.466 559.076 420.566 560.055 412.978C561.034 405.389 562.013 396.121 562.013 389.351C562.013 387.607 561.949 386.027 561.801 384.678C561.145 378.726 559.845 375.102 558.414 372.13C557.699 370.646 556.956 369.324 556.248 367.954C555.538 366.584 554.862 365.163 554.272 363.465C553.182 360.33 552.883 356.51 552.885 353.334C552.885 351.516 552.981 349.908 553.077 348.756C553.125 348.181 553.175 347.718 553.21 347.401C553.228 347.244 553.243 347.122 553.254 347.038C553.261 346.999 553.263 346.966 553.267 346.947C553.269 346.927 553.272 346.916 553.272 346.916L553.337 346.444L552.861 346.42L552.837 346.857Z" fill="#04254E"/>
<path fill-rule="evenodd" clip-rule="evenodd" d="M514.574 331.837L514.548 331.846L514.574 331.837L514.548 331.846L514.574 331.837C514.563 331.811 514.242 330.847 514.242 329.276C514.242 328.465 514.327 327.493 514.585 326.402C514.642 326.169 514.495 325.933 514.261 325.878C514.025 325.821 513.789 325.968 513.735 326.201C513.459 327.364 513.368 328.404 513.368 329.276C513.368 331.02 513.735 332.089 513.748 332.124C513.827 332.351 514.076 332.473 514.303 332.395C514.532 332.314 514.653 332.065 514.574 331.837Z" fill="#04254E"/>
<path fill-rule="evenodd" clip-rule="evenodd" d="M532.568 319.687C532.568 319.687 533.306 319.357 533.446 321.282C533.588 323.205 531.429 341.319 534.432 345.402L521.2 344.932C521.2 344.932 525.986 343.009 529.13 333.247C532.273 323.487 532.568 319.687 532.568 319.687Z" fill="#8AEBA0"/>
<path fill-rule="evenodd" clip-rule="evenodd" d="M61.3244 497.821V498.258H91.602C92.0958 498.258 92.4979 497.858 92.4979 497.362V467.084C92.4979 466.588 92.0958 466.188 91.602 466.188H61.3244C60.8284 466.188 60.4285 466.588 60.4263 467.084V497.362C60.4285 497.858 60.8284 498.258 61.3244 498.258V497.384L61.3004 497.362V467.084L61.3244 467.063H91.602L91.6238 467.084V497.362L91.602 497.384H61.3244V497.821Z" fill="#04254E"/>
<path fill-rule="evenodd" clip-rule="evenodd" d="M74.8054 492.653C74.1017 492.653 73.433 492.34 72.9829 491.794L61.2237 477.594C60.3889 476.588 60.5288 475.096 61.5362 474.261C62.5436 473.428 64.034 473.566 64.8688 474.576L74.5497 486.267L95.4326 453.319C96.1319 452.213 97.5961 451.89 98.6975 452.587C99.801 453.286 100.129 454.748 99.4295 455.852L76.805 491.551C76.3985 492.191 75.7101 492.598 74.9562 492.648C74.9059 492.65 74.8557 492.653 74.8054 492.653Z" fill="#50D270"/>
<path fill-rule="evenodd" clip-rule="evenodd" d="M175.863 419.901V420.338H206.141C206.637 420.338 207.037 419.938 207.037 419.442V389.165C207.037 388.669 206.637 388.269 206.141 388.269H175.863C175.367 388.269 174.967 388.669 174.967 389.165V419.442C174.967 419.938 175.367 420.338 175.863 420.338V419.464L175.841 419.442V389.165L175.863 389.143H206.141L206.163 389.165V419.442L206.141 419.464H175.863V419.901Z" fill="#04254E"/>
<path fill-rule="evenodd" clip-rule="evenodd" d="M189.345 414.733C188.643 414.733 187.974 414.42 187.522 413.874L175.763 399.674C174.93 398.669 175.07 397.176 176.078 396.341C177.085 395.509 178.575 395.649 179.41 396.656L189.091 408.347L209.972 375.399C210.671 374.294 212.135 373.97 213.239 374.667C214.342 375.367 214.67 376.829 213.971 377.932L191.344 413.631C190.94 414.272 190.252 414.68 189.495 414.729C189.445 414.731 189.395 414.733 189.345 414.733Z" fill="#50D270"/>
<path fill-rule="evenodd" clip-rule="evenodd" d="M324.561 335.692V336.129H354.839C355.335 336.129 355.735 335.727 355.735 335.233V304.954C355.735 304.46 355.335 304.058 354.839 304.058H324.561C324.065 304.058 323.665 304.46 323.665 304.954V335.233C323.665 335.727 324.065 336.129 324.561 336.129V335.255L324.539 335.233V304.954L324.561 304.932H354.839L354.86 304.954V335.233L354.839 335.255H324.561V335.692Z" fill="#04254E"/>
<path fill-rule="evenodd" clip-rule="evenodd" d="M338.042 330.522C337.341 330.522 336.672 330.209 336.22 329.665L324.46 315.465C323.628 314.458 323.768 312.965 324.773 312.132C325.78 311.298 327.271 311.437 328.105 312.445L337.789 324.136L358.669 291.188C359.369 290.085 360.833 289.759 361.934 290.458C363.04 291.158 363.368 292.62 362.666 293.723L340.042 329.423C339.635 330.063 338.949 330.469 338.193 330.517C338.143 330.522 338.092 330.522 338.042 330.522Z" fill="#50D270"/>
<path fill-rule="evenodd" clip-rule="evenodd" d="M422.255 279.335V188.146L546.672 188.149C546.915 188.149 547.109 187.952 547.109 187.711C547.109 187.469 546.915 187.274 546.672 187.274H421.381V279.335C421.381 279.578 421.576 279.772 421.818 279.772C422.059 279.772 422.255 279.578 422.255 279.335Z" fill="#04254E"/>
<path fill-rule="evenodd" clip-rule="evenodd" d="M6.85894 438.47H126.727V361.531H256.733V279.772H421.818C422.059 279.772 422.255 279.576 422.255 279.335C422.255 279.095 422.059 278.898 421.818 278.898H255.859V360.657H125.852V437.596H6.85894C6.61746 437.596 6.42188 437.79 6.42188 438.033C6.42188 438.273 6.61746 438.47 6.85894 438.47Z" fill="#04254E"/>
<path fill-rule="evenodd" clip-rule="evenodd" d="M14.1194 440.64C14.1194 444.311 11.143 447.288 7.47162 447.288C3.79986 447.288 0.823242 444.311 0.823242 440.64C0.823242 436.966 3.79986 433.99 7.47162 433.99C11.143 433.99 14.1194 436.966 14.1194 440.64Z" fill="#5954A4"/>
<path fill-rule="evenodd" clip-rule="evenodd" d="M132.647 438.033C132.647 441.704 129.67 444.68 125.999 444.68C122.327 444.68 119.351 441.704 119.351 438.033C119.351 434.359 122.327 431.383 125.999 431.383C129.67 431.383 132.647 434.359 132.647 438.033Z" fill="#5954A4"/>
<path fill-rule="evenodd" clip-rule="evenodd" d="M132.647 362.117C132.647 365.788 129.67 368.765 125.999 368.765C122.327 368.765 119.351 365.788 119.351 362.117C119.351 358.446 122.327 355.469 125.999 355.469C129.67 355.469 132.647 358.446 132.647 362.117Z" fill="#5954A4"/>
<path fill-rule="evenodd" clip-rule="evenodd" d="M262.583 362.117C262.583 365.788 259.607 368.765 255.935 368.765C252.264 368.765 249.288 365.788 249.288 362.117C249.288 358.446 252.264 355.469 255.935 355.469C259.607 355.469 262.583 358.446 262.583 362.117Z" fill="#5954A4"/>
<path fill-rule="evenodd" clip-rule="evenodd" d="M265.492 280.371C265.492 284.045 262.515 287.021 258.844 287.021C255.173 287.021 252.196 284.045 252.196 280.371C252.196 276.7 255.173 273.723 258.844 273.723C262.515 273.723 265.492 276.7 265.492 280.371Z" fill="#5954A4"/>
<path fill-rule="evenodd" clip-rule="evenodd" d="M428.466 279.335C428.466 283.007 425.49 285.983 421.818 285.983C418.145 285.983 415.168 283.007 415.168 279.335C415.168 275.664 418.145 272.688 421.818 272.688C425.49 272.688 428.466 275.664 428.466 279.335Z" fill="#5954A4"/>
<path fill-rule="evenodd" clip-rule="evenodd" d="M554.611 187.711C554.611 191.383 551.634 194.359 547.963 194.359C544.292 194.359 541.315 191.383 541.315 187.711C541.315 184.038 544.292 181.062 547.963 181.062C551.634 181.062 554.611 184.038 554.611 187.711Z" fill="#5954A4"/>
<path fill-rule="evenodd" clip-rule="evenodd" d="M74.6132 386.638C68.5861 376.708 50.5639 381.785 50.8611 393.227C51.1298 403.553 64.9498 413.708 67.6399 415.589L74.3095 412.849C74.4952 412.333 74.8252 411.367 75.1989 410.08C76.3702 406.035 77.9568 398.819 76.7417 392.408C76.3527 390.36 75.6775 388.393 74.6132 386.638Z" fill="white"/>
<path fill-rule="evenodd" clip-rule="evenodd" d="M74.6131 386.639L74.9867 386.411C73.8263 384.499 72.2311 383.116 70.4172 382.22C68.6034 381.322 66.5711 380.904 64.5213 380.904C61.0794 380.906 57.5785 382.073 54.9124 384.158C53.5794 385.201 52.4561 386.477 51.6672 387.954C50.8762 389.434 50.4194 391.114 50.4194 392.948C50.4194 393.044 50.4216 393.14 50.4238 393.238C50.4937 395.915 51.4378 398.551 52.8364 401.027C54.9365 404.74 58.0659 408.107 60.9242 410.732C63.7826 413.354 66.37 415.233 67.3906 415.948L67.5851 416.083L74.6568 413.179L74.7223 412.996C74.9081 412.473 75.2424 411.499 75.6183 410.201C76.499 407.161 77.6135 402.347 77.6135 397.384C77.6135 395.695 77.4846 393.988 77.1699 392.327C76.7743 390.238 76.0838 388.221 74.9867 386.411L74.6131 386.639L74.2394 386.864C75.2708 388.566 75.9308 390.48 76.311 392.489C76.6148 394.084 76.7394 395.738 76.7394 397.384C76.7416 402.215 75.6467 406.966 74.7791 409.958C74.4098 411.234 74.0798 412.194 73.8985 412.703L74.3093 412.849L74.1432 412.445L67.4736 415.185L67.6397 415.59L67.891 415.231C66.5602 414.3 62.4518 411.304 58.6603 407.274C56.7634 405.262 54.9496 402.989 53.5969 400.596C52.2442 398.205 51.3613 395.699 51.2979 393.214C51.2957 393.125 51.2936 393.035 51.2936 392.948C51.2936 391.258 51.711 389.726 52.4365 388.367C53.527 386.33 55.3233 384.681 57.4649 383.542C59.6065 382.403 62.089 381.778 64.5213 381.778C66.4531 381.778 68.3521 382.172 70.0304 383.002C71.7066 383.835 73.1664 385.098 74.2394 386.864L74.6131 386.639Z" fill="#04254E"/>
<path fill-rule="evenodd" clip-rule="evenodd" d="M74.3096 412.849L73.6933 412.628C73.6453 412.762 73.6059 412.864 73.5819 412.934C73.5688 412.967 73.5579 412.993 73.5513 413.011L73.5447 413.028L73.5426 413.033L74.1545 413.271L73.8944 412.67L67.8301 415.297L68.0902 415.898L68.4551 415.353L68.4486 415.349C68.4158 415.327 68.265 415.227 68.0159 415.052L67.64 415.589L67.8892 416.195L74.5587 413.457L74.3096 412.849L73.6933 412.628L74.3096 412.849L74.0605 412.242L66.2808 415.439L67.2642 416.127C67.5592 416.332 67.7231 416.442 67.7274 416.444L68.0246 416.641L74.6658 413.765L74.7642 413.511C74.7663 413.505 74.8275 413.352 74.9281 413.07L75.4241 411.682L74.0605 412.242L74.3096 412.849Z" fill="#04254E"/>
<path fill-rule="evenodd" clip-rule="evenodd" d="M74.5259 412.762L75.1684 414.331L75.2339 414.486L68.0049 417.456L67.9415 417.301L67.2969 415.729L67.64 415.59L74.3095 412.849L74.5259 412.762Z" fill="#50D270"/>
<path fill-rule="evenodd" clip-rule="evenodd" d="M75.072 419.901L72.1153 421.114C71.121 421.523 69.9846 421.049 69.576 420.052L69.1826 419.097L75.7407 416.403L76.1341 417.36C76.5428 418.354 76.0664 419.493 75.072 419.901Z" fill="#50D270"/>
<path fill-rule="evenodd" clip-rule="evenodd" d="M73.1314 412.775C73.1227 412.753 73.0134 412.458 72.4977 410.95C71.9798 409.442 71.0532 406.719 69.4055 401.833C68.9706 400.544 68.7979 399.409 68.7979 398.428C68.7979 397.978 68.8329 397.561 68.8985 397.174L69.082 396.068L68.1992 396.756C68.103 396.831 68.0047 396.907 67.902 396.984C65.1616 399.047 63.103 399.949 61.6782 400.222L61.0029 400.351L61.4072 400.906C62.1611 401.947 63.0025 403.358 63.8351 404.881C65.0829 407.167 66.3089 409.709 67.2245 411.678C67.6813 412.663 68.0615 413.505 68.3259 414.099C68.457 414.396 68.5619 414.632 68.6319 414.794C68.7018 414.956 68.7389 415.041 68.7389 415.041C68.8351 415.262 69.0908 415.364 69.3137 415.268C69.5344 415.174 69.6371 414.916 69.541 414.696C69.541 414.691 68.4658 412.198 67.0038 409.169C66.2717 407.652 65.4435 406.005 64.6021 404.462C63.7586 402.919 62.9063 401.486 62.1153 400.395L61.7612 400.651L61.8421 401.079C63.4592 400.767 65.6161 399.796 68.4264 397.681C68.5313 397.602 68.6362 397.524 68.7346 397.447L68.468 397.102L68.0353 397.03C67.9632 397.465 67.9238 397.93 67.9238 398.428C67.9238 399.512 68.1161 400.743 68.5772 402.113C70.2774 407.156 71.2105 409.897 71.7197 411.376C72.2267 412.856 72.3097 413.072 72.3141 413.085C72.3993 413.31 72.6507 413.424 72.8779 413.339C73.103 413.253 73.2167 413 73.1314 412.775Z" fill="#04254E"/>
<path fill-rule="evenodd" clip-rule="evenodd" d="M76.661 416.407L68.2868 419.844L67.3428 417.545L75.7169 414.106L76.661 416.407Z" fill="#50D270"/>
<path fill-rule="evenodd" clip-rule="evenodd" d="M76.661 416.407L76.4949 416.003L68.5251 419.274L67.9132 417.784L75.4788 414.676L76.2567 416.571L76.661 416.407L76.4949 416.003L76.661 416.407L77.0653 416.239L75.9552 413.535L66.7725 417.307L68.0487 420.415L77.2314 416.643L77.0653 416.239L76.661 416.407Z" fill="#04254E"/>
<path fill-rule="evenodd" clip-rule="evenodd" d="M43.5532 371.89L50.0348 378.885C50.1987 379.062 50.4762 379.073 50.6533 378.909C50.8303 378.743 50.8412 378.468 50.6751 378.291L44.1935 371.296C44.0296 371.119 43.7542 371.11 43.5772 371.274C43.4002 371.438 43.3893 371.713 43.5532 371.89Z" fill="#081535"/>
<path fill-rule="evenodd" clip-rule="evenodd" d="M31.379 391.868L44.115 393.601C44.3554 393.634 44.5739 393.466 44.6067 393.225C44.6395 392.987 44.4712 392.766 44.233 392.733L31.497 391.003C31.2566 390.97 31.0359 391.136 31.0031 391.376C30.9725 391.615 31.1386 391.835 31.379 391.868Z" fill="#081535"/>
<path fill-rule="evenodd" clip-rule="evenodd" d="M36.8773 405.295L45.5902 403.627C45.8284 403.581 45.9835 403.352 45.9376 403.116C45.8917 402.878 45.6623 402.722 45.4263 402.768L36.7112 404.436C36.4752 404.482 36.3201 404.711 36.366 404.947C36.4097 405.185 36.6391 405.34 36.8773 405.295Z" fill="#081535"/>
<path fill-rule="evenodd" clip-rule="evenodd" d="M78.9249 365.869L74.3882 376.848C74.2964 377.071 74.4013 377.327 74.6242 377.419C74.8471 377.51 75.1028 377.406 75.1967 377.18L79.7335 366.204C79.8252 365.981 79.7203 365.725 79.4974 365.631C79.2745 365.539 79.0189 365.646 78.9249 365.869Z" fill="#081535"/>
<path fill-rule="evenodd" clip-rule="evenodd" d="M94.8776 378.389L82.524 387.25C82.3273 387.392 82.2836 387.665 82.4235 387.86C82.5655 388.057 82.8387 388.103 83.0332 387.961L95.3868 379.099C95.5835 378.959 95.6272 378.686 95.4873 378.489C95.3474 378.293 95.0743 378.249 94.8776 378.389Z" fill="#081535"/>
<path fill-rule="evenodd" clip-rule="evenodd" d="M160.148 347.202H208.577C209.414 347.202 210.094 346.523 210.094 345.686V275.957C210.094 275.118 209.414 274.44 208.577 274.44H160.148C159.309 274.44 158.632 275.118 158.632 275.957V345.686C158.632 346.523 159.309 347.202 160.148 347.202Z" fill="#04254E"/>
<path fill-rule="evenodd" clip-rule="evenodd" d="M162.489 344.348H206.235C206.72 344.348 207.111 343.955 207.111 343.472V278.168C207.111 277.685 206.72 277.292 206.235 277.292H162.489C162.006 277.292 161.615 277.685 161.615 278.168V343.472C161.615 343.955 162.006 344.348 162.489 344.348Z" fill="#50D270"/>
<path fill-rule="evenodd" clip-rule="evenodd" d="M164.447 342.81H204.277C204.876 342.81 205.361 342.325 205.361 341.726V280.935C205.361 280.336 204.876 279.851 204.277 279.851H164.447C163.848 279.851 163.363 280.336 163.363 280.935V341.726C163.363 342.325 163.848 342.81 164.447 342.81Z" fill="white"/>
<path fill-rule="evenodd" clip-rule="evenodd" d="M183.844 272.322C184.69 272.322 185.376 271.636 185.376 270.791C185.376 269.945 184.69 269.259 183.844 269.259C182.999 269.259 182.312 269.945 182.312 270.791C182.312 271.636 182.999 272.322 183.844 272.322ZM183.844 268.026C185.352 268.026 186.576 269.248 186.576 270.756V274.257H181.115C181.115 274.257 181.115 271.477 181.115 270.756C181.115 269.248 182.336 268.026 183.844 268.026Z" fill="#222831"/>
<path fill-rule="evenodd" clip-rule="evenodd" d="M183.844 272.322V272.759C184.932 272.759 185.813 271.879 185.813 270.791C185.813 269.704 184.932 268.822 183.844 268.822C182.758 268.822 181.875 269.704 181.875 270.791C181.875 271.879 182.758 272.759 183.844 272.759V271.885C183.54 271.885 183.269 271.765 183.07 271.566C182.871 271.365 182.749 271.094 182.749 270.791C182.749 270.487 182.871 270.216 183.07 270.017C183.269 269.818 183.54 269.696 183.844 269.696C184.148 269.696 184.419 269.818 184.617 270.017C184.816 270.216 184.939 270.487 184.939 270.791C184.939 271.094 184.816 271.365 184.617 271.566C184.419 271.765 184.148 271.885 183.844 271.885V272.322ZM183.844 268.026V268.463C184.48 268.463 185.05 268.719 185.465 269.134C185.88 269.552 186.136 270.122 186.138 270.756V273.817L181.114 273.819V274.256H181.551C181.551 274.254 181.551 273.02 181.551 271.984C181.551 271.466 181.551 270.996 181.551 270.756C181.551 270.122 181.807 269.552 182.222 269.134C182.64 268.719 183.21 268.463 183.844 268.463V267.589C182.096 267.589 180.677 269.007 180.677 270.756C180.677 270.996 180.677 271.466 180.677 271.984C180.677 273.02 180.677 274.254 180.677 274.256V274.691H187.012V270.756C187.01 269.007 185.594 267.589 183.844 267.589V268.026Z" fill="#04254E"/>
<path fill-rule="evenodd" clip-rule="evenodd" d="M167.811 275.644V278.378H200.916V275.644C200.916 274.582 200.055 273.723 198.995 273.723H169.731C168.669 273.723 167.811 274.582 167.811 275.644Z" fill="#04254E"/>
<path fill-rule="evenodd" clip-rule="evenodd" d="M167.81 275.644H167.373V278.815H201.353V275.644C201.353 274.34 200.295 273.286 198.995 273.286H169.731C168.429 273.286 167.373 274.342 167.373 275.644H168.247C168.247 275.231 168.413 274.864 168.682 274.595C168.951 274.326 169.318 274.16 169.731 274.16H198.995C199.405 274.16 199.773 274.326 200.044 274.595C200.312 274.864 200.478 275.233 200.478 275.644V277.941H168.247V275.644H167.81Z" fill="#222831"/>
<path fill-rule="evenodd" clip-rule="evenodd" d="M200.916 278.378H167.811V277.694H168.248V277.941H200.479V275.644C200.479 275.233 200.313 274.864 200.044 274.595C199.799 274.351 199.474 274.193 199.109 274.165C198.995 274.003 198.866 273.855 198.731 273.723H198.995C200.055 273.723 200.916 274.582 200.916 275.644V278.378Z" fill="#04254E"/>
<path fill-rule="evenodd" clip-rule="evenodd" d="M221.94 309.799H222.005L222.015 309.796H221.978L221.94 309.799Z" fill="#FBF4E9"/>
<path fill-rule="evenodd" clip-rule="evenodd" d="M222.944 309.204C222.834 309.189 222.721 309.195 222.609 309.224C222.362 309.285 222.122 309.453 221.921 309.731L221.925 309.735H221.941L221.934 309.737L222.1 344.63L223.892 344.621L223.724 309.729L223.715 309.724C223.499 309.418 223.226 309.243 222.944 309.204Z" fill="#50D270"/>
<path fill-rule="evenodd" clip-rule="evenodd" d="M221.893 309.737L221.917 309.735H221.925L221.921 309.731C221.56 309.377 221.091 309.2 220.621 309.2V309.211L220.619 309.2C220.147 309.202 219.677 309.383 219.318 309.744L219.314 309.748L219.323 309.746L219.345 309.748H219.305L219.471 344.641L220.782 344.637H220.789L222.1 344.63L221.934 309.737H221.893Z" fill="white"/>
<path fill-rule="evenodd" clip-rule="evenodd" d="M219.385 309.807L219.371 309.81H219.347H219.419L219.385 309.807Z" fill="#FAEEDD"/>
<path fill-rule="evenodd" clip-rule="evenodd" d="M220.579 301.204L220.575 301.195V301.215L219.723 303.592L220.586 303.588H220.595L221.458 303.584L220.584 301.215L220.581 301.193L220.579 301.204Z" fill="#0B065A"/>
<path fill-rule="evenodd" clip-rule="evenodd" d="M219.471 344.641L219.305 309.748H219.299H219.314L219.318 309.744C219.095 309.436 218.813 309.263 218.532 309.219L218.516 309.217L218.462 309.213L218.414 309.211C218.073 309.204 217.743 309.385 217.524 309.755L217.513 309.757L217.681 344.65L219.471 344.641Z" fill="#50D270"/>
<path fill-rule="evenodd" clip-rule="evenodd" d="M220.594 303.588V303.478H220.586L219.722 303.483C219.676 303.483 219.635 303.511 219.62 303.555L217.41 309.72C217.397 309.759 217.406 309.801 217.432 309.831C217.461 309.86 217.502 309.873 217.541 309.864L217.55 309.86C217.579 309.853 217.605 309.836 217.618 309.809C217.817 309.475 218.101 309.32 218.396 309.32H218.407L218.455 309.322L218.461 309.213L218.453 309.322L218.503 309.326L218.51 309.329H218.514C218.765 309.366 219.021 309.519 219.231 309.807C219.248 309.833 219.279 309.849 219.309 309.851C219.342 309.855 219.373 309.842 219.397 309.82C219.733 309.482 220.175 309.311 220.618 309.309V309.2L220.511 309.226L220.513 309.237C220.527 309.289 220.579 309.326 220.634 309.32C220.688 309.313 220.73 309.267 220.73 309.213V309.202L220.621 309.2L220.627 309.309L220.623 309.246L220.625 309.309H220.627L220.623 309.246L220.625 309.309C221.066 309.309 221.506 309.475 221.844 309.807C221.866 309.831 221.897 309.842 221.93 309.84C221.96 309.836 221.991 309.82 222.008 309.794C222.201 309.532 222.419 309.383 222.638 309.331L222.644 309.329C222.703 309.309 222.758 309.3 222.812 309.3C222.847 309.3 222.885 309.302 222.922 309.311L222.93 309.313C223.175 309.346 223.422 309.499 223.625 309.788C223.641 309.809 223.663 309.825 223.689 309.831L223.7 309.833C223.739 309.844 223.781 309.831 223.807 309.801C223.833 309.77 223.842 309.729 223.826 309.689L221.56 303.546C221.543 303.503 221.501 303.474 221.455 303.474L220.592 303.478L220.594 303.588V303.697L221.381 303.693L223.623 309.766L223.724 309.729L223.75 309.621L223.739 309.619L223.715 309.724L223.802 309.663C223.575 309.335 223.276 309.138 222.959 309.097L222.944 309.204L222.968 309.097C222.915 309.086 222.863 309.082 222.812 309.082C222.734 309.082 222.653 309.095 222.576 309.121L222.609 309.224L222.583 309.119C222.308 309.187 222.045 309.372 221.831 309.665L221.921 309.731L221.997 309.652C221.617 309.278 221.121 309.09 220.625 309.09H220.614C220.555 309.095 220.511 309.141 220.511 309.2V309.208L220.621 309.211L220.728 309.184L220.723 309.173C220.712 309.125 220.669 309.09 220.618 309.09C220.118 309.093 219.62 309.285 219.242 309.665L219.318 309.744L219.408 309.678C219.172 309.35 218.864 309.158 218.547 309.112L218.531 309.219L218.551 309.112L218.536 309.11L218.525 309.108L218.47 309.104H218.468L218.42 309.101H218.396C218.02 309.099 217.659 309.309 217.43 309.7L217.524 309.755L217.498 309.648L217.487 309.652L217.513 309.757L217.618 309.794L219.801 303.701L220.588 303.697H220.594V303.588Z" fill="#04254E"/>
<path fill-rule="evenodd" clip-rule="evenodd" d="M224.25 344.405L222.08 344.416L219.482 344.429L217.312 344.438L217.327 347.871L219.478 347.86L222.115 347.847L224.268 347.838L224.25 344.405Z" fill="#04254E"/>
<path fill-rule="evenodd" clip-rule="evenodd" d="M200.866 297.937H167.452C167.194 297.937 166.984 297.727 166.984 297.469C166.984 297.211 167.194 296.999 167.452 296.999H200.866C201.123 296.999 201.333 297.211 201.333 297.469C201.333 297.727 201.123 297.937 200.866 297.937Z" fill="#04254E"/>
<path fill-rule="evenodd" clip-rule="evenodd" d="M200.866 301.663H167.452C167.194 301.663 166.984 301.453 166.984 301.193C166.984 300.935 167.194 300.725 167.452 300.725H200.866C201.123 300.725 201.333 300.935 201.333 301.193C201.333 301.453 201.123 301.663 200.866 301.663Z" fill="#04254E"/>
<path fill-rule="evenodd" clip-rule="evenodd" d="M200.866 305.389H167.452C167.194 305.389 166.984 305.177 166.984 304.919C166.984 304.661 167.194 304.449 167.452 304.449H200.866C201.123 304.449 201.333 304.661 201.333 304.919C201.333 305.177 201.123 305.389 200.866 305.389Z" fill="#04254E"/>
<path fill-rule="evenodd" clip-rule="evenodd" d="M200.866 309.115H167.452C167.194 309.115 166.984 308.903 166.984 308.645C166.984 308.387 167.194 308.175 167.452 308.175H200.866C201.123 308.175 201.333 308.387 201.333 308.645C201.333 308.903 201.123 309.115 200.866 309.115Z" fill="#04254E"/>
<path fill-rule="evenodd" clip-rule="evenodd" d="M347.723 251.435C345.947 248.852 345.785 245.369 345.785 245.369H333.951C333.951 245.369 333.79 248.852 332.013 251.435C330.236 254.021 326.523 255.635 326.523 255.635H353.213C353.213 255.635 349.5 254.021 347.723 251.435Z" fill="#04254E"/>
<path fill-rule="evenodd" clip-rule="evenodd" d="M347.723 251.435L348.083 251.188C347.242 249.969 346.768 248.498 346.514 247.34C346.388 246.759 346.313 246.256 346.272 245.902C346.252 245.725 346.239 245.583 346.23 245.489C346.228 245.441 346.224 245.404 346.224 245.38L346.222 245.354V245.347L346.202 244.932H333.534L333.514 245.347V245.354C333.51 245.441 333.457 246.306 333.197 247.449C332.937 248.59 332.467 250.006 331.654 251.188C330.824 252.401 329.493 253.428 328.368 254.134C327.808 254.49 327.299 254.766 326.932 254.954C326.748 255.046 326.602 255.118 326.501 255.166C326.451 255.188 326.412 255.207 326.385 255.218L326.357 255.231L326.348 255.233L324.421 256.073H355.315L353.387 255.233L353.379 255.231C353.285 255.188 352.362 254.775 351.261 254.069C350.162 253.363 348.888 252.362 348.083 251.188L347.723 251.435L347.362 251.685C348.309 253.057 349.722 254.128 350.9 254.875C352.078 255.618 353.024 256.029 353.04 256.035L353.212 255.636V255.199H326.523V255.636L326.698 256.035C326.711 256.029 327.657 255.618 328.835 254.875C330.013 254.128 331.427 253.057 332.373 251.685C333.309 250.321 333.805 248.754 334.076 247.528C334.344 246.298 334.388 245.406 334.388 245.389L333.951 245.369V245.806H345.785V245.369L345.347 245.389C345.35 245.406 345.391 246.298 345.66 247.528C345.931 248.754 346.427 250.321 347.362 251.685L347.723 251.435Z" fill="#04254E"/>
<path fill-rule="evenodd" clip-rule="evenodd" d="M398.258 243.476C398.258 245.618 396.523 247.353 394.382 247.353H285.018C282.876 247.353 281.141 245.618 281.141 243.476V171.441C281.141 169.3 282.876 167.565 285.018 167.565H394.382C396.523 167.565 398.258 169.3 398.258 171.441V243.476Z" fill="#04254E"/>
<path fill-rule="evenodd" clip-rule="evenodd" d="M398.258 243.476H397.821C397.821 244.427 397.437 245.286 396.814 245.909C396.189 246.532 395.332 246.916 394.382 246.916H285.017C284.067 246.916 283.21 246.532 282.585 245.909C281.962 245.286 281.58 244.427 281.578 243.476V171.441C281.58 170.49 281.962 169.633 282.585 169.009C283.21 168.386 284.067 168.002 285.017 168.002H394.382C395.332 168.002 396.189 168.386 396.814 169.009C397.437 169.633 397.821 170.49 397.821 171.441V243.476H398.695V171.441C398.693 169.059 396.763 167.128 394.382 167.128H285.017C282.635 167.128 280.706 169.059 280.704 171.441V243.476C280.706 245.858 282.635 247.79 285.017 247.79H394.382C396.763 247.79 398.693 245.858 398.695 243.476H398.258Z" fill="#04254E"/>
<path fill-rule="evenodd" clip-rule="evenodd" d="M281.141 236.285V243.476C281.141 245.618 282.876 247.353 285.018 247.353H394.382C396.523 247.353 398.258 245.618 398.258 243.476V236.285H281.141Z" fill="white"/>
<path fill-rule="evenodd" clip-rule="evenodd" d="M281.141 236.284H280.704V243.476C280.706 245.858 282.635 247.79 285.017 247.79H394.382C396.763 247.79 398.693 245.858 398.695 243.476V235.847H280.704V236.284H281.141V236.722H397.821V243.476C397.821 244.427 397.437 245.286 396.814 245.909C396.189 246.531 395.332 246.916 394.382 246.916H285.017C284.067 246.916 283.21 246.531 282.585 245.909C281.962 245.286 281.58 244.427 281.578 243.476V236.284H281.141V236.722V236.284Z" fill="#04254E"/>
<path fill-rule="evenodd" clip-rule="evenodd" d="M355.789 257H324.211C324.094 257 324 256.915 324 256.81V254.19C324 254.085 324.094 254 324.211 254H355.789C355.906 254 356 254.085 356 254.19V256.81C356 256.915 355.906 257 355.789 257Z" fill="#04254E"/>
<path fill-rule="evenodd" clip-rule="evenodd" d="M356.283 256.661V256.323H323.717V256.514H323.999C323.999 256.409 323.872 256.323 323.717 256.323V256.514H323.999V254.486H323.717V254.677C323.872 254.677 323.999 254.591 323.999 254.486H323.717V254.677H356.283V254.486H356.001C356.001 254.591 356.126 254.677 356.283 254.677V254.486H356.001V256.514H356.283V256.323C356.126 256.323 356.001 256.409 356.001 256.514H356.283V256.323V257C356.678 257 357 256.783 357 256.514V254.486C357 254.217 356.678 254 356.283 254H323.717C323.32 254 323 254.217 323 254.486V256.514C323 256.783 323.32 257 323.717 257H356.283V256.661Z" fill="#04254E"/>
<path fill-rule="evenodd" clip-rule="evenodd" d="M392.904 232.211H286.132C285.721 232.211 285.389 231.879 285.389 231.468V172.205C285.389 171.794 285.721 171.461 286.132 171.461H392.904C393.315 171.461 393.647 171.794 393.647 172.205V231.468C393.647 231.879 393.315 232.211 392.904 232.211Z" fill="white"/>
<path fill-rule="evenodd" clip-rule="evenodd" d="M392.905 232.211V231.774H286.132C285.964 231.774 285.826 231.636 285.826 231.468V172.205C285.826 172.036 285.964 171.898 286.132 171.898H392.905C393.073 171.898 393.21 172.036 393.21 172.205V231.468C393.21 231.636 393.073 231.774 392.905 231.774V232.648C393.556 232.648 394.085 232.119 394.085 231.468V172.205C394.085 171.553 393.556 171.024 392.905 171.024H286.132C285.481 171.024 284.952 171.553 284.952 172.205V231.468C284.952 232.119 285.481 232.648 286.132 232.648H392.905V232.211Z" fill="#04254E"/>
<path fill-rule="evenodd" clip-rule="evenodd" d="M390.476 177.589C390.476 176.652 389.716 175.892 388.778 175.892H291.219C290.282 175.892 289.521 176.652 289.521 177.589V182.36H390.476V177.589Z" fill="#50D270"/>
<path fill-rule="evenodd" clip-rule="evenodd" d="M289.521 182.36V226.083C289.521 227.021 290.282 227.781 291.219 227.781H388.778C389.716 227.781 390.476 227.021 390.476 226.083V182.36H289.521Z" fill="white"/>
<path fill-rule="evenodd" clip-rule="evenodd" d="M340.083 244.558H339.473C337.924 244.558 336.667 243.302 336.667 241.752V241.143C336.667 239.591 337.924 238.334 339.473 238.334H340.083C341.633 238.334 342.889 239.591 342.889 241.143V241.752C342.889 243.302 341.633 244.558 340.083 244.558Z" fill="#222831"/>
<path fill-rule="evenodd" clip-rule="evenodd" d="M329.841 196.051H370.59V195.308H329.841V196.051Z" fill="#C4D6EB"/>
<path fill-rule="evenodd" clip-rule="evenodd" d="M309.408 189.407H370.59V187.712H309.408V189.407Z" fill="#50D270"/>
<path fill-rule="evenodd" clip-rule="evenodd" d="M329.718 198.354H370.59V197.613H329.718V198.354Z" fill="#C4D6EB"/>
<path fill-rule="evenodd" clip-rule="evenodd" d="M329.718 193.745H370.59V193.004H329.718V193.745Z" fill="#C4D6EB"/>
<path fill-rule="evenodd" clip-rule="evenodd" d="M329.718 200.657H370.59V199.917H329.718V200.657Z" fill="#C4D6EB"/>
<path fill-rule="evenodd" clip-rule="evenodd" d="M329.718 202.961H370.59V202.22H329.718V202.961Z" fill="#C4D6EB"/>
<path fill-rule="evenodd" clip-rule="evenodd" d="M329.718 205.266H370.59V204.525H329.718V205.266Z" fill="#C4D6EB"/>
<path fill-rule="evenodd" clip-rule="evenodd" d="M329.718 207.569H370.59V206.829H329.718V207.569Z" fill="#C4D6EB"/>
<path fill-rule="evenodd" clip-rule="evenodd" d="M329.718 209.873H370.59V209.132H329.718V209.873Z" fill="#C4D6EB"/>
<path fill-rule="evenodd" clip-rule="evenodd" d="M329.718 212.178H351.812V211.438H329.718V212.178Z" fill="#C4D6EB"/>
<path fill-rule="evenodd" clip-rule="evenodd" d="M327.255 224.182H310.133C309.751 224.182 309.443 223.872 309.443 223.492V193.669C309.443 193.289 309.751 192.978 310.133 192.978H327.255C327.638 192.978 327.948 193.289 327.948 193.669V223.492C327.948 223.872 327.638 224.182 327.255 224.182Z" fill="#50D270"/>
<path fill-rule="evenodd" clip-rule="evenodd" d="M533.378 126.375C533.378 152.399 512.281 173.496 486.256 173.496C460.234 173.496 439.137 152.399 439.137 126.375C439.137 100.35 460.234 79.2535 486.256 79.2535C512.281 79.2535 533.378 100.35 533.378 126.375Z" fill="white"/>
<path fill-rule="evenodd" clip-rule="evenodd" d="M486.257 163.951C465.505 163.951 448.68 147.127 448.68 126.375C448.68 105.622 465.505 88.7982 486.257 88.7982C507.01 88.7982 523.833 105.622 523.833 126.375C523.833 147.127 507.01 163.951 486.257 163.951ZM486.256 79.2535C460.234 79.2535 439.137 100.35 439.137 126.375C439.137 152.399 460.234 173.496 486.256 173.496C512.281 173.496 533.378 152.399 533.378 126.375C533.378 100.35 512.281 79.2535 486.256 79.2535Z" fill="#8A54A2"/>
<path fill-rule="evenodd" clip-rule="evenodd" d="M486.257 163.951V163.514C476.001 163.513 466.718 159.357 459.996 152.636C453.274 145.914 449.119 136.632 449.117 126.375C449.119 116.117 453.274 106.835 459.996 100.113C466.718 93.3915 476.001 89.2355 486.257 89.2353C496.514 89.2355 505.798 93.3915 512.52 100.113C519.24 106.835 523.396 116.117 523.396 126.375C523.396 136.632 519.24 145.914 512.52 152.636C505.798 159.357 496.514 163.513 486.257 163.514V164.388C507.251 164.388 524.27 147.369 524.27 126.375C524.27 105.38 507.251 88.3614 486.257 88.3611C465.262 88.3614 448.245 105.38 448.243 126.375C448.245 147.369 465.262 164.388 486.257 164.388V163.951ZM486.257 79.2535V78.8164C459.991 78.8166 438.7 100.109 438.7 126.375C438.7 152.64 459.991 173.933 486.257 173.933C512.524 173.933 533.816 152.64 533.816 126.375C533.816 100.109 512.524 78.8166 486.257 78.8164V79.6905C499.15 79.6908 510.819 84.9152 519.268 93.364C527.716 101.814 532.941 113.482 532.941 126.375C532.941 139.267 527.716 150.936 519.268 159.385C510.819 167.834 499.15 173.059 486.257 173.059C473.365 173.059 461.696 167.834 453.247 159.385C444.799 150.936 439.574 139.267 439.574 126.375C439.574 113.482 444.799 101.814 453.247 93.364C461.696 84.9152 473.365 79.6908 486.257 79.6905V79.2535Z" fill="#04254E"/>
<path fill-rule="evenodd" clip-rule="evenodd" d="M486.257 149.239C473.63 149.239 463.394 139.002 463.394 126.375C463.394 113.747 473.63 103.511 486.257 103.511C498.886 103.511 509.122 113.747 509.122 126.375C509.122 139.002 498.886 149.239 486.257 149.239ZM486.257 97.7026C470.422 97.7026 457.585 110.54 457.585 126.375C457.585 142.21 470.422 155.047 486.257 155.047C502.094 155.047 514.93 142.21 514.93 126.375C514.93 110.54 502.094 97.7026 486.257 97.7026Z" fill="#8A54A2"/>
<path fill-rule="evenodd" clip-rule="evenodd" d="M486.257 149.239V148.802C480.064 148.802 474.458 146.292 470.4 142.233C466.34 138.173 463.831 132.569 463.831 126.375C463.831 120.18 466.34 114.576 470.4 110.516C474.458 106.457 480.064 103.948 486.257 103.947C492.452 103.948 498.055 106.457 502.116 110.516C506.176 114.576 508.685 120.18 508.685 126.375C508.685 132.569 506.176 138.173 502.116 142.233C498.055 146.292 492.452 148.802 486.257 148.802V149.676C499.126 149.676 509.559 139.244 509.559 126.375C509.559 113.505 499.126 103.074 486.257 103.073C473.388 103.074 462.957 113.505 462.957 126.375C462.957 139.244 473.388 149.676 486.257 149.676V149.239ZM486.257 97.7026V97.2656C470.182 97.266 457.148 110.298 457.148 126.375C457.148 142.451 470.182 155.483 486.257 155.484C502.334 155.483 515.367 142.451 515.367 126.375C515.367 110.298 502.334 97.266 486.257 97.2656V98.1397C494.056 98.1399 501.113 101.299 506.222 106.41C511.333 111.521 514.493 118.576 514.493 126.375C514.493 134.173 511.333 141.229 506.222 146.34C501.113 151.45 494.056 154.609 486.257 154.61C478.46 154.609 471.403 151.45 466.292 146.34C461.183 141.229 458.023 134.173 458.023 126.375C458.023 118.577 461.183 111.521 466.292 106.41C471.403 101.299 478.46 98.1399 486.257 98.1397V97.7026Z" fill="#04254E"/>
<path fill-rule="evenodd" clip-rule="evenodd" d="M477.419 126.375C477.419 121.494 481.377 117.537 486.257 117.537C491.139 117.537 495.096 121.494 495.096 126.375C495.096 131.255 491.139 135.212 486.257 135.212C481.377 135.212 477.419 131.255 477.419 126.375Z" fill="#8A54A2"/>
<path fill-rule="evenodd" clip-rule="evenodd" d="M477.419 126.375H477.857C477.857 124.054 478.796 121.956 480.317 120.434C481.838 118.913 483.936 117.974 486.257 117.974C488.58 117.974 490.676 118.913 492.199 120.434C493.72 121.956 494.657 124.054 494.659 126.375C494.657 128.696 493.72 130.793 492.199 132.315C490.676 133.836 488.58 134.775 486.257 134.775C483.936 134.775 481.838 133.836 480.317 132.315C478.796 130.793 477.857 128.696 477.857 126.375H476.982C476.982 131.497 481.135 135.649 486.257 135.649C491.379 135.649 495.531 131.497 495.534 126.375C495.531 121.252 491.379 117.1 486.257 117.1C481.135 117.1 476.982 121.252 476.982 126.375H477.419Z" fill="#04254E"/>
<path fill-rule="evenodd" clip-rule="evenodd" d="M498.717 120.545L487.124 125.058L498.516 119.505L498.717 120.545Z" fill="#50D270"/>
<path fill-rule="evenodd" clip-rule="evenodd" d="M498.718 120.546L498.56 120.138L496.849 120.804L498.195 120.148L498.289 120.629L498.718 120.546L498.56 120.138L498.718 120.546L499.148 120.462L498.836 118.863L486.932 124.665L487.282 125.465L499.216 120.82L499.148 120.462L498.718 120.546Z" fill="#04254E"/>
<path fill-rule="evenodd" clip-rule="evenodd" d="M497.135 120.179C497.148 120.055 497.201 119.973 497.275 119.938C497.275 119.938 500.878 116.049 509.014 112.498C520.64 107.426 522.432 107.199 522.439 107.197C522.745 107.068 522.52 107.414 522.928 107.717C523.752 108.327 524.327 109.642 524.211 110.654C524.154 111.155 524.617 111.212 524.314 111.347C524.309 111.349 522.911 112.438 511.274 117.508C503.11 121.065 497.732 120.976 497.732 120.976C497.655 121.007 497.557 120.988 497.456 120.913C497.249 120.761 497.107 120.432 497.135 120.179Z" fill="#50D270"/>
<path fill-rule="evenodd" clip-rule="evenodd" d="M497.135 120.179L497.57 120.228V120.223L497.524 120.213L497.568 120.231L497.57 120.223L497.524 120.213L497.568 120.231L497.376 120.153L497.461 120.334C497.526 120.304 497.561 120.249 497.568 120.231L497.376 120.153L497.461 120.334L497.537 120.298L497.596 120.235L497.599 120.234C497.675 120.15 501.244 116.367 509.189 112.899C514.996 110.365 518.344 109.043 520.234 108.357C521.178 108.014 521.757 107.83 522.094 107.733C522.262 107.684 522.371 107.658 522.432 107.643C522.463 107.636 522.483 107.632 522.494 107.631L522.505 107.629L522.507 107.628L522.516 107.627L522.529 107.625L522.546 107.62L522.555 107.618L522.439 107.197L522.494 107.63L522.441 107.221L522.494 107.631V107.63L522.441 107.221L522.494 107.631L522.553 107.623L522.607 107.6L522.614 107.597L522.575 107.485L522.599 107.601L522.614 107.597L522.575 107.485L522.599 107.601L522.544 107.329V107.606C522.57 107.606 522.588 107.603 522.599 107.601L522.544 107.329V107.606V107.258L522.446 107.592C522.483 107.603 522.518 107.606 522.544 107.606V107.258L522.446 107.592L522.548 107.241L522.266 107.476C522.301 107.519 522.373 107.573 522.446 107.592L522.548 107.241L522.266 107.476L522.494 107.286L522.22 107.403C522.225 107.413 522.236 107.438 522.266 107.476L522.494 107.286L522.22 107.403L522.31 107.365L522.218 107.397L522.22 107.403L522.31 107.365L522.218 107.397C522.22 107.4 522.229 107.432 522.245 107.477C522.266 107.546 522.304 107.649 522.373 107.756C522.441 107.863 522.54 107.973 522.668 108.068C522.972 108.29 523.263 108.664 523.466 109.089C523.672 109.512 523.79 109.986 523.79 110.387C523.79 110.462 523.785 110.535 523.776 110.605L523.779 110.604C523.772 110.649 523.77 110.694 523.77 110.739C523.77 110.866 523.792 110.984 523.829 111.084C523.881 111.233 523.96 111.339 524.002 111.395L524.026 111.426L524.028 111.431V111.431L524.224 111.301L524.008 111.392C524.021 111.419 524.028 111.429 524.028 111.431L524.224 111.301L524.008 111.392L524.34 111.252H523.982C523.982 111.318 523.997 111.365 524.008 111.392L524.34 111.252H523.982H524.364L524.019 111.084C523.995 111.133 523.98 111.197 523.982 111.252H524.364L524.019 111.084L524.323 111.231L524.122 110.958C524.102 110.973 524.056 111.009 524.019 111.084L524.323 111.231L524.122 110.958L524.227 111.101L524.141 110.946L524.122 110.958L524.227 111.101L524.141 110.946L524.146 110.954L524.141 110.945V110.946L524.146 110.954L524.141 110.945L524.135 110.948L524.133 110.949C524.098 110.966 524.091 110.971 524.082 110.976L524.063 110.989L524.054 110.995C524.052 110.997 524.03 111.013 523.964 111.055C523.737 111.2 523.007 111.631 521.093 112.565C519.179 113.499 516.078 114.938 511.099 117.108C503.379 120.471 498.189 120.539 497.767 120.539C497.743 120.539 497.736 120.539 497.732 120.539H497.647L497.568 120.57L497.655 120.788V120.553C497.631 120.553 497.601 120.558 497.568 120.57L497.655 120.788V120.553V120.717L497.714 120.562C497.706 120.559 497.684 120.553 497.655 120.553V120.717L497.714 120.562L497.695 120.612L497.721 120.565L497.714 120.562L497.695 120.612L497.721 120.565L497.717 120.562C497.695 120.549 497.647 120.495 497.616 120.428C497.583 120.362 497.568 120.284 497.568 120.246V120.232L497.57 120.228L497.135 120.179L496.7 120.125C496.696 120.169 496.694 120.209 496.694 120.246C496.696 120.448 496.746 120.635 496.829 120.808C496.915 120.979 497.028 121.139 497.196 121.264C497.321 121.357 497.474 121.426 497.655 121.427C497.734 121.427 497.817 121.413 497.894 121.381L497.732 120.976V121.413V121.219L497.73 121.413H497.732V121.219L497.73 121.413C497.734 121.413 497.745 121.413 497.767 121.413C498.285 121.413 503.599 121.329 511.447 117.909C517.271 115.371 520.536 113.829 522.352 112.917C523.261 112.461 523.807 112.163 524.13 111.976C524.292 111.882 524.399 111.816 524.469 111.771C524.502 111.748 524.528 111.731 524.546 111.719L524.565 111.704L524.57 111.701L524.371 111.428L524.568 111.703L524.57 111.701L524.371 111.428L524.568 111.703L524.321 111.356L524.559 111.709L524.568 111.703L524.321 111.356L524.559 111.709L524.316 111.351L524.546 111.717L524.559 111.709L524.316 111.351L524.546 111.717L524.314 111.347L524.539 111.721L524.546 111.717L524.314 111.347L524.539 111.721L524.583 111.692V111.691L524.314 111.347L524.493 111.745C524.554 111.717 524.618 111.687 524.694 111.617C524.731 111.581 524.773 111.532 524.806 111.467C524.836 111.403 524.856 111.323 524.856 111.252C524.854 111.152 524.828 111.079 524.804 111.03C524.762 110.945 524.729 110.911 524.71 110.881C524.677 110.839 524.664 110.819 524.657 110.802C524.648 110.786 524.644 110.776 524.644 110.739L524.646 110.704V110.703C524.657 110.599 524.664 110.493 524.664 110.387C524.661 109.822 524.509 109.239 524.253 108.708C523.997 108.179 523.639 107.7 523.189 107.365C523.141 107.33 523.123 107.306 523.11 107.285C523.088 107.253 523.082 107.229 523.055 107.142C523.049 107.12 523.04 107.093 523.025 107.058C523.001 107.007 522.964 106.928 522.872 106.85C522.828 106.812 522.769 106.779 522.71 106.759C522.651 106.739 522.592 106.732 522.544 106.732C522.419 106.734 522.343 106.765 522.269 106.794L522.439 107.197L522.33 106.773C522.319 106.776 522.31 106.777 522.269 106.794L522.439 107.197L522.33 106.773L522.437 107.193L522.356 106.767L522.33 106.773L522.437 107.193L522.356 106.767L522.36 106.783L522.356 106.767L522.36 106.783L522.356 106.767C522.238 106.788 521.665 106.9 519.716 107.615C517.767 108.331 514.443 109.653 508.84 112.098C500.638 115.677 496.989 119.605 496.956 119.641L497.275 119.938L497.092 119.542C496.969 119.598 496.871 119.696 496.807 119.801C496.744 119.906 496.714 120.018 496.7 120.129V120.125L497.135 120.179Z" fill="#04254E"/>
<path fill-rule="evenodd" clip-rule="evenodd" d="M522.24 108.151C522.295 107.679 522.496 107.363 522.778 107.232L590.398 77.8844C590.693 77.7615 590.476 78.0913 590.868 78.3804C591.654 78.9628 592.203 80.2185 592.091 81.1851C592.037 81.663 592.478 81.7172 592.19 81.8461L524.517 111.195C524.224 111.313 523.853 111.242 523.466 110.956C522.677 110.374 522.129 109.118 522.24 108.151Z" fill="#0B065A"/>
<path fill-rule="evenodd" clip-rule="evenodd" d="M522.24 108.151L522.675 108.201C522.695 108.014 522.745 107.878 522.797 107.788C522.852 107.698 522.906 107.654 522.961 107.628L522.778 107.232L522.952 107.633L590.573 78.2852L590.398 77.8844L590.568 78.2874L590.575 78.285L590.498 78.0708V78.295C590.555 78.2942 590.575 78.2843 590.575 78.285L590.498 78.0708V78.295V77.9432L590.4 78.2806C590.437 78.2917 590.472 78.295 590.498 78.295V77.9432L590.4 78.2806L590.503 77.9261L590.221 78.1637C590.254 78.2072 590.328 78.2614 590.4 78.2806L590.503 77.9261L590.221 78.1637L590.452 77.9701L590.173 78.0889C590.177 78.0992 590.188 78.1252 590.221 78.1637L590.452 77.9701L590.173 78.0889L590.275 78.045L590.17 78.0826L590.173 78.0889L590.275 78.045L590.17 78.0826C590.17 78.0837 590.181 78.1141 590.195 78.1584C590.216 78.2251 590.254 78.3245 590.319 78.4285C590.385 78.533 590.483 78.6399 590.608 78.7319C590.892 78.9417 591.169 79.2957 591.364 79.6989C591.558 80.1012 591.67 80.5505 591.67 80.9299C591.67 81.0011 591.665 81.0702 591.659 81.1366V81.1353C591.652 81.1796 591.65 81.2231 591.65 81.2657C591.65 81.3894 591.672 81.5048 591.707 81.6018C591.759 81.7476 591.836 81.8505 591.875 81.9041L591.897 81.9331L591.901 81.9375L592.104 81.802L591.879 81.8971C591.893 81.9246 591.899 81.9351 591.901 81.9375L592.104 81.802L591.879 81.8971L592.216 81.7555H591.851C591.851 81.8219 591.868 81.87 591.879 81.8971L592.216 81.7555H591.851H592.238L591.89 81.5861C591.866 81.6353 591.851 81.7002 591.851 81.7555H592.238L591.89 81.5861L592.198 81.736L591.995 81.4591C591.973 81.4747 591.93 81.5105 591.89 81.5861L592.198 81.736L591.995 81.4591L592.104 81.6099L592.015 81.446L591.995 81.4591L592.104 81.6099L592.015 81.446L592.028 81.4692L592.015 81.4454V81.446L592.028 81.4692L592.015 81.4454L592.011 81.4473L592.19 81.8462L592.017 81.4452L524.342 110.794L524.517 111.195L524.353 110.79C524.318 110.804 524.279 110.812 524.229 110.812C524.115 110.813 523.938 110.763 523.724 110.605C523.44 110.395 523.162 110.041 522.97 109.637C522.773 109.235 522.662 108.786 522.662 108.406C522.662 108.335 522.666 108.266 522.675 108.202V108.201L522.24 108.151L521.805 108.101C521.794 108.202 521.788 108.304 521.788 108.406C521.79 108.95 521.936 109.509 522.181 110.017C522.428 110.525 522.771 110.985 523.206 111.307C523.527 111.546 523.875 111.685 524.229 111.686C524.382 111.686 524.537 111.658 524.679 111.601L524.683 111.599L592.371 82.2439L592.369 82.2448C592.428 82.2168 592.491 82.1877 592.566 82.118C592.603 82.0828 592.644 82.0345 592.677 81.9699C592.708 81.9058 592.727 81.8261 592.725 81.7555C592.725 81.6567 592.699 81.5835 592.675 81.5352C592.633 81.4508 592.603 81.4181 592.583 81.3896C592.552 81.3499 592.542 81.3317 592.535 81.3182C592.528 81.3042 592.526 81.2979 592.524 81.2657L592.526 81.2349V81.2338C592.537 81.1337 592.544 81.0321 592.544 80.9299C592.542 80.3868 592.395 79.8276 592.15 79.3188C591.903 78.811 591.56 78.3516 591.128 78.0293C591.084 77.9969 591.069 77.9757 591.056 77.9583C591.038 77.9303 591.031 77.91 591.007 77.8263C590.999 77.8049 590.992 77.7784 590.977 77.7439C590.955 77.6943 590.918 77.6156 590.826 77.5378C590.78 77.5 590.723 77.4672 590.664 77.4478C590.605 77.4279 590.549 77.4209 590.498 77.4209C590.376 77.4231 590.302 77.4532 590.229 77.4814L522.601 106.832L522.594 106.835C522.367 106.941 522.179 107.121 522.048 107.339C521.917 107.559 521.838 107.816 521.805 108.102V108.101L522.24 108.151Z" fill="#04254E"/>
<path fill-rule="evenodd" clip-rule="evenodd" d="M589.9 78.7962C590.011 77.8296 590.739 77.5182 591.525 78.1006C592.312 78.683 592.861 79.9384 592.749 80.905C592.64 81.8718 591.912 82.1832 591.126 81.6008C590.339 81.0184 589.79 79.7627 589.9 78.7962Z" fill="#0B065A"/>
<path fill-rule="evenodd" clip-rule="evenodd" d="M589.899 78.7962L590.334 78.8456C590.363 78.5934 590.441 78.4354 590.516 78.3545C590.553 78.313 590.588 78.2881 590.627 78.2708C590.664 78.254 590.706 78.2442 590.763 78.2439C590.874 78.2431 591.051 78.2929 591.265 78.4518C591.551 78.6616 591.827 79.0158 592.021 79.419C592.216 79.8211 592.327 80.2706 592.327 80.6498C592.327 80.721 592.323 80.7898 592.316 80.856C592.288 81.1078 592.209 81.2656 592.135 81.3467C592.098 81.388 592.061 81.4129 592.024 81.4301C591.986 81.447 591.943 81.4568 591.888 81.457C591.777 81.4579 591.6 81.4078 591.385 81.2494C591.099 81.0396 590.824 80.6856 590.629 80.2824C590.435 79.8801 590.321 79.4306 590.323 79.0514C590.323 78.9797 590.328 78.9111 590.334 78.8464V78.8456L589.899 78.7962L589.467 78.7459C589.454 78.8473 589.449 78.9494 589.449 79.0514C589.449 79.5945 589.598 80.1535 589.843 80.6624C590.09 81.1703 590.433 81.6297 590.865 81.9522C591.189 82.1908 591.536 82.33 591.888 82.3311C592.058 82.3314 592.227 82.2973 592.38 82.228C592.611 82.1248 592.804 81.9448 592.937 81.7243C593.07 81.5033 593.151 81.2435 593.184 80.9546C593.195 80.8536 593.201 80.752 593.201 80.6498C593.199 80.1067 593.053 79.5477 592.808 79.0387C592.561 78.5311 592.218 78.0717 591.785 77.7492C591.462 77.5101 591.114 77.3709 590.763 77.3698C590.592 77.3696 590.424 77.4039 590.269 77.473C590.037 77.5761 589.845 77.7564 589.714 77.9769C589.578 78.1978 589.499 78.4579 589.467 78.7468V78.7459L589.899 78.7962Z" fill="#04254E"/>
<path fill-rule="evenodd" clip-rule="evenodd" d="M589.806 82.1973L561.51 94.4668L582.039 98.526C589.727 100.047 595.564 91.7122 591.506 85.0065L589.806 82.1973Z" fill="#50D270"/>
<path fill-rule="evenodd" clip-rule="evenodd" d="M589.806 82.1974L589.631 81.7964L560.05 94.6238L581.954 98.9548C582.603 99.0836 583.243 99.1448 583.866 99.1448C586.532 99.1452 588.89 98.0171 590.57 96.2722C592.253 94.5272 593.269 92.1618 593.271 89.6657C593.271 88.0403 592.837 86.3611 591.879 84.7802L589.983 81.6445L589.631 81.7964L589.806 82.1974L589.432 82.4238L591.132 85.2328C592.006 86.6799 592.395 88.1952 592.397 89.6657C592.397 91.9221 591.473 94.0777 589.941 95.6655C588.409 97.2534 586.283 98.2702 583.866 98.2706C583.3 98.2706 582.719 98.2151 582.122 98.0973L562.97 94.31L589.978 82.5984L589.806 82.1974L589.432 82.4238L589.806 82.1974Z" fill="#04254E"/>
<path fill-rule="evenodd" clip-rule="evenodd" d="M588.459 79.1425L588.075 76.7257C587.05 70.276 578.87 68.0887 574.762 73.1658L560.192 91.1741L588.459 79.1425Z" fill="#50D270"/>
<path fill-rule="evenodd" clip-rule="evenodd" d="M588.46 79.1425L588.892 79.0739L588.508 76.6569C588.173 74.5479 587.102 72.8534 585.66 71.7002C584.22 70.5457 582.411 69.9233 580.579 69.9231C579.46 69.9229 578.331 70.1558 577.277 70.6445C576.222 71.1327 575.241 71.8772 574.421 72.891L558.748 92.2636L588.945 79.4109L588.892 79.0739L588.46 79.1425L588.289 78.7402L561.635 90.0848L575.101 73.4408C575.839 72.5293 576.709 71.8711 577.644 71.4375C578.58 71.0046 579.581 70.7972 580.579 70.797C582.212 70.7968 583.833 71.3551 585.114 72.3822C586.397 73.4106 587.341 74.8993 587.644 76.7944L588.029 79.2111L588.46 79.1425L588.289 78.7402L588.46 79.1425Z" fill="#04254E"/>
<path fill-rule="evenodd" clip-rule="evenodd" d="M469.106 233.911V234.348H499.384C499.88 234.348 500.28 233.946 500.28 233.452V203.173C500.28 202.679 499.88 202.277 499.384 202.277H469.106C468.61 202.277 468.21 202.679 468.21 203.173V233.452C468.21 233.946 468.61 234.348 469.106 234.348V233.474L469.085 233.452V203.173L469.106 203.151H499.384L499.406 203.173V233.452L499.384 233.474H469.106V233.911Z" fill="#04254E"/>
<path fill-rule="evenodd" clip-rule="evenodd" d="M378.06 529.713H417.99C418.23 529.713 418.427 529.517 418.427 529.276C418.427 529.034 418.23 528.839 417.99 528.839H378.06C377.817 528.839 377.623 529.034 377.623 529.276C377.623 529.517 377.817 529.713 378.06 529.713Z" fill="#04254E"/>
<path fill-rule="evenodd" clip-rule="evenodd" d="M331.038 529.713H370.968C371.211 529.713 371.405 529.517 371.405 529.276C371.405 529.034 371.211 528.839 370.968 528.839H331.038C330.798 528.839 330.601 529.034 330.601 529.276C330.601 529.517 330.798 529.713 331.038 529.713Z" fill="#04254E"/>
<path fill-rule="evenodd" clip-rule="evenodd" d="M429.41 529.713H599.176C599.419 529.713 599.613 529.517 599.613 529.276C599.613 529.034 599.419 528.839 599.176 528.839H429.41C429.168 528.839 428.973 529.034 428.973 529.276C428.973 529.517 429.168 529.713 429.41 529.713Z" fill="#04254E"/>
<path fill-rule="evenodd" clip-rule="evenodd" d="M552.356 347.327C552.356 347.327 531.27 348.562 525 352.003C521.331 354.018 515.612 365.441 515.612 365.441L519.226 345.402L552.356 347.327Z" fill="#50D270"/>
</svg>
