<svg width="600" height="600" viewBox="0 0 600 600" fill="none" xmlns="http://www.w3.org/2000/svg">
<path fill-rule="evenodd" clip-rule="evenodd" d="M178.922 551.245C178.922 551.245 95.8448 541.027 109.519 473.438C123.191 405.849 130.952 401.957 106.051 322.635C81.1493 243.315 238.116 154.826 315.934 236.199C393.75 317.573 436.216 264.466 490.909 311.586C545.602 358.704 509.586 495.661 448.887 551.245H178.922Z" fill="#8AEBA0" fill-opacity="0.5"/>
<path fill-rule="evenodd" clip-rule="evenodd" d="M384.835 525.151C384.835 525.151 383.67 539.255 382.77 540.455C381.87 541.657 393.629 541.206 393.629 541.206L394.583 526.053L384.835 525.151Z" fill="white"/>
<path fill-rule="evenodd" clip-rule="evenodd" d="M384.835 525.15L384.38 525.114C384.38 525.114 384.361 525.334 384.327 525.721C384.21 527.076 383.903 530.485 383.53 533.678C383.343 535.276 383.139 536.819 382.933 538.021C382.83 538.621 382.727 539.136 382.631 539.521C382.58 539.713 382.532 539.873 382.491 539.99C382.45 540.107 382.406 540.183 382.404 540.18C382.331 540.276 382.262 540.416 382.262 540.581C382.262 540.73 382.324 540.872 382.397 540.965C382.468 541.055 382.544 541.112 382.619 541.16C382.763 541.249 382.914 541.304 383.086 541.355C383.388 541.439 383.757 541.501 384.19 541.552C385.483 541.703 387.335 541.746 389.071 541.746C391.479 541.746 393.642 541.664 393.647 541.664L394.059 541.648L395.066 525.636L384.419 524.651L384.38 525.114L384.835 525.15L384.794 525.606L394.098 526.467L393.173 541.176L393.629 541.206L393.613 540.748C393.61 540.748 393.478 540.753 393.24 540.762C392.523 540.785 390.861 540.83 389.071 540.83C387.582 540.83 386.003 540.798 384.812 540.695C384.222 540.645 383.723 540.574 383.407 540.492C383.251 540.453 383.139 540.407 383.107 540.386L383.1 540.379H383.098L383.047 540.446L383.107 540.389L383.098 540.379L383.047 540.446L383.107 540.389L382.94 540.551L383.15 540.453C383.134 540.418 383.118 540.398 383.107 540.389L382.94 540.551L383.15 540.453L382.873 540.581H383.178C383.18 540.535 383.166 540.487 383.15 540.453L382.873 540.581H383.178H382.935L383.137 540.732C383.143 540.723 383.178 540.668 383.178 540.581H382.935L383.137 540.732V540.73C383.194 540.654 383.233 540.579 383.272 540.498C383.343 540.34 383.404 540.16 383.464 539.944C383.578 539.539 383.688 539.015 383.796 538.397C384.178 536.242 384.551 532.948 384.828 530.183C385.108 527.419 385.293 525.189 385.293 525.189L384.835 525.15L384.794 525.606L384.835 525.15Z" fill="#04254E"/>
<path fill-rule="evenodd" clip-rule="evenodd" d="M381.303 536.591C381.303 536.591 388.421 539.164 394.254 537.621C394.254 537.621 395.369 536.075 395.282 538.649C395.197 541.222 397.855 548.342 396.14 549.37C396.14 549.37 386.019 550.141 382.074 550.744C378.13 551.343 365.007 552.371 361.919 546.453C361.919 546.453 360.632 543.452 368.352 543.108C376.072 542.765 381.216 538.221 381.303 536.591Z" fill="#222831"/>
<path fill-rule="evenodd" clip-rule="evenodd" d="M381.303 536.591L381.147 537.021C381.158 537.026 382.228 537.412 383.878 537.797C385.531 538.184 387.763 538.571 390.114 538.571C391.522 538.571 392.976 538.431 394.37 538.063L394.528 538.021L394.625 537.889C394.634 537.875 394.707 537.779 394.789 537.703C394.828 537.667 394.872 537.635 394.895 537.621L394.908 537.614H394.913L394.872 537.502V537.619C394.899 537.619 394.913 537.614 394.913 537.614L394.872 537.502V537.619V537.41L394.741 537.573C394.769 537.598 394.835 537.621 394.872 537.619V537.41L394.741 537.573L394.812 537.483L394.723 537.554L394.741 537.573L394.812 537.483L394.723 537.554L394.744 537.538L394.723 537.554L394.744 537.538L394.723 537.554C394.723 537.554 394.732 537.568 394.744 537.6C394.783 537.699 394.831 537.957 394.828 538.379C394.828 538.459 394.828 538.543 394.824 538.635V538.633C394.824 538.679 394.821 538.727 394.821 538.775C394.824 539.331 394.918 539.997 395.055 540.744C395.259 541.861 395.563 543.147 395.815 544.384C396.065 545.615 396.261 546.804 396.259 547.673C396.261 548.058 396.22 548.379 396.149 548.598C396.115 548.708 396.074 548.793 396.03 548.853C395.989 548.914 395.948 548.951 395.904 548.978L396.14 549.37L396.106 548.914C396.103 548.914 393.571 549.107 390.547 549.374C387.518 549.645 384.002 549.986 382.005 550.29C380.65 550.496 378.168 550.757 375.401 550.755C372.821 550.757 369.986 550.528 367.585 549.837C366.383 549.494 365.291 549.033 364.391 548.44C363.491 547.845 362.786 547.124 362.326 546.243L361.918 546.453L362.34 546.275L362.154 546.353L362.342 546.282L362.34 546.275L362.154 546.353L362.342 546.282C362.342 546.277 362.296 546.156 362.296 545.979C362.296 545.828 362.326 545.638 362.443 545.423C362.532 545.263 362.674 545.082 362.905 544.894C363.253 544.61 363.814 544.313 364.696 544.068C365.575 543.825 366.77 543.637 368.372 543.566C372.317 543.39 375.604 542.142 377.928 540.723C379.091 540.011 380.014 539.258 380.664 538.559C380.989 538.211 381.245 537.875 381.433 537.554C381.619 537.234 381.74 536.932 381.761 536.616L381.303 536.591L381.147 537.021L381.303 536.591L380.845 536.568C380.842 536.657 380.785 536.852 380.643 537.094C380.396 537.52 379.911 538.081 379.224 538.667C378.191 539.548 376.706 540.494 374.858 541.24C373.013 541.989 370.808 542.541 368.331 542.651C366.861 542.717 365.703 542.877 364.783 543.099C363.407 543.434 362.56 543.91 362.044 544.443C361.786 544.709 361.616 544.988 361.516 545.254C361.415 545.519 361.38 545.771 361.38 545.979C361.38 546.353 361.481 546.595 361.497 546.634L361.504 546.65L361.513 546.666C362.058 547.71 362.887 548.546 363.887 549.205C365.391 550.194 367.283 550.803 369.29 551.174C371.298 551.543 373.425 551.671 375.401 551.671C378.228 551.671 380.742 551.407 382.143 551.195C384.091 550.899 387.608 550.554 390.627 550.288C392.136 550.153 393.523 550.038 394.533 549.956C395.039 549.915 395.449 549.883 395.733 549.86C396.016 549.839 396.174 549.828 396.174 549.828L396.282 549.819L396.376 549.761C396.541 549.663 396.678 549.528 396.783 549.377C396.941 549.148 397.035 548.885 397.095 548.598C397.152 548.315 397.175 548.005 397.175 547.673C397.175 547.007 397.081 546.245 396.944 545.437C396.74 544.226 396.435 542.914 396.184 541.721C396.058 541.126 395.946 540.56 395.865 540.057C395.785 539.553 395.737 539.111 395.737 538.775C395.737 538.738 395.739 538.701 395.739 538.665V538.662C395.744 538.564 395.744 538.47 395.744 538.379C395.742 537.873 395.698 537.525 395.586 537.241C395.529 537.099 395.446 536.966 395.318 536.863C395.195 536.758 395.021 536.701 394.872 536.703C394.677 536.705 394.533 536.771 394.418 536.84C394.247 536.945 394.125 537.067 394.034 537.168C393.945 537.266 393.89 537.342 393.883 537.353L394.254 537.621L394.137 537.177C392.839 537.52 391.463 537.655 390.114 537.655C387.864 537.655 385.691 537.282 384.087 536.907C383.285 536.719 382.624 536.531 382.166 536.391C381.937 536.32 381.758 536.263 381.637 536.222C381.577 536.201 381.532 536.185 381.502 536.176L381.467 536.162L381.458 536.16L380.877 535.95L380.845 536.568L381.303 536.591Z" fill="#04254E"/>
<path fill-rule="evenodd" clip-rule="evenodd" d="M461.973 523.074C461.973 523.074 462.759 537.207 462.033 538.518C461.305 539.832 472.891 537.767 472.891 537.767L471.751 522.625L461.973 523.074Z" fill="white"/>
<path fill-rule="evenodd" clip-rule="evenodd" d="M461.974 523.074L461.516 523.102C461.516 523.102 461.523 523.202 461.532 523.392C461.603 524.716 461.884 530.274 461.882 534.278C461.884 535.336 461.864 536.286 461.816 537.01C461.793 537.374 461.761 537.678 461.726 537.907C461.708 538.021 461.687 538.118 461.669 538.186C461.651 538.255 461.632 538.296 461.632 538.296C461.584 538.383 461.543 538.495 461.541 538.628C461.541 538.743 461.577 538.862 461.635 538.953C461.685 539.033 461.749 539.093 461.809 539.139C461.916 539.216 462.019 539.258 462.129 539.292C462.289 539.34 462.463 539.368 462.663 539.386C462.86 539.404 463.079 539.413 463.322 539.413C464.077 539.413 465.048 539.336 466.09 539.223C469.213 538.887 472.967 538.218 472.972 538.218L473.379 538.145L472.175 522.149L461.49 522.639L461.516 523.102L461.974 523.074L461.994 523.532L471.328 523.104L472.436 537.802L472.892 537.767L472.811 537.316C472.811 537.316 472.708 537.335 472.521 537.367C471.866 537.481 470.186 537.763 468.356 538.019C467.441 538.145 466.49 538.266 465.611 538.353C464.735 538.44 463.931 538.498 463.322 538.498C462.937 538.498 462.626 538.472 462.459 538.434C462.418 538.424 462.386 538.413 462.367 538.406L462.351 538.399L462.347 538.397L462.26 538.553L462.399 538.45C462.37 538.408 462.347 538.399 462.347 538.397L462.26 538.553L462.399 538.45L462.157 538.628H462.457C462.459 538.564 462.431 538.488 462.399 538.45L462.157 538.628H462.457H462.23L462.434 538.74C462.438 538.733 462.457 538.694 462.457 538.628H462.23L462.434 538.74C462.491 538.635 462.523 538.534 462.555 538.422C462.605 538.227 462.642 537.996 462.674 537.722C462.766 536.9 462.798 535.684 462.798 534.278C462.798 529.661 462.431 523.053 462.431 523.049L461.974 523.074L461.994 523.532L461.974 523.074Z" fill="#04254E"/>
<path fill-rule="evenodd" clip-rule="evenodd" d="M460.048 534.892C460.048 534.892 467.452 536.462 473.017 534.129C473.017 534.129 473.908 532.447 474.178 535.009C474.446 537.568 478.059 544.253 476.502 545.508C476.502 545.508 466.584 547.666 462.759 548.802C458.933 549.94 446.076 552.765 442.205 547.328C442.205 547.328 440.517 544.532 448.116 543.129C455.714 541.728 460.186 536.517 460.048 534.892Z" fill="#222831"/>
<path fill-rule="evenodd" clip-rule="evenodd" d="M460.048 534.892L459.952 535.341C459.973 535.343 462.436 535.865 465.616 535.867C467.976 535.865 470.735 535.581 473.194 534.553L473.345 534.489L473.42 534.345C473.43 534.329 473.494 534.214 473.569 534.127C473.606 534.084 473.643 534.049 473.661 534.038L473.668 534.033L473.633 533.969L473.654 534.038L473.668 534.033L473.633 533.969L473.654 534.038L473.601 533.862V534.045C473.624 534.045 473.643 534.04 473.654 534.038L473.601 533.862V534.045V533.825L473.523 534.031C473.549 534.04 473.578 534.045 473.601 534.045V533.825L473.523 534.031L473.585 533.871L473.48 534.006C473.487 534.013 473.503 534.022 473.523 534.031L473.585 533.871L473.48 534.006L473.528 533.944L473.473 534.001L473.48 534.006L473.528 533.944L473.473 534.001C473.482 534.008 473.537 534.093 473.585 534.269C473.636 534.443 473.686 534.702 473.723 535.057C473.787 535.65 473.993 536.369 474.261 537.177C474.664 538.383 475.211 539.78 475.657 541.087C475.879 541.739 476.076 542.369 476.214 542.937C476.353 543.502 476.433 544.008 476.431 544.393C476.433 544.61 476.406 544.789 476.365 544.913C476.321 545.038 476.271 545.105 476.214 545.153L476.502 545.508L476.404 545.061C476.404 545.061 473.922 545.602 470.962 546.284C467.999 546.966 464.565 547.788 462.628 548.365C460.568 548.979 455.781 550.098 451.303 550.098C449.453 550.098 447.658 549.906 446.138 549.427C445.378 549.187 444.686 548.875 444.087 548.486C443.487 548.095 442.979 547.625 442.578 547.062L442.205 547.328L442.596 547.092L442.347 547.241L442.601 547.097L442.596 547.092L442.347 547.241L442.601 547.097L442.592 547.101L442.601 547.097L442.592 547.101L442.601 547.097C442.594 547.085 442.502 546.907 442.502 546.657C442.505 546.495 442.537 546.3 442.658 546.069C442.841 545.725 443.237 545.286 444.096 544.835C444.95 544.386 446.257 543.937 448.198 543.58C452.024 542.875 455.073 541.227 457.177 539.528C458.23 538.676 459.045 537.816 459.609 537.037C459.89 536.648 460.11 536.282 460.263 535.938C460.415 535.595 460.506 535.281 460.508 534.968C460.508 534.929 460.506 534.892 460.504 534.853L460.048 534.892L459.952 535.341L460.048 534.892L459.59 534.931L459.593 534.968C459.595 535.082 459.547 535.299 459.425 535.565C459.217 536.034 458.8 536.657 458.192 537.328C457.278 538.335 455.936 539.455 454.226 540.43C452.516 541.405 450.435 542.236 448.034 542.68C445.362 543.173 443.782 543.837 442.832 544.546C442.358 544.903 442.042 545.274 441.85 545.641C441.655 546.005 441.587 546.359 441.587 546.657C441.589 547.186 441.788 547.52 441.813 547.564L441.822 547.58L441.832 547.593C442.306 548.26 442.903 548.809 443.585 549.253C444.611 549.919 445.827 550.357 447.141 550.631C448.455 550.904 449.87 551.014 451.303 551.014C455.932 551.011 460.758 549.874 462.889 549.242C464.778 548.681 468.214 547.857 471.168 547.177C472.644 546.836 474.002 546.531 474.991 546.311C475.485 546.201 475.888 546.112 476.165 546.05C476.445 545.991 476.598 545.957 476.598 545.957L476.703 545.934L476.79 545.865C477.006 545.691 477.15 545.453 477.232 545.201C477.317 544.949 477.347 544.679 477.347 544.393C477.347 543.722 477.18 542.944 476.937 542.097C476.573 540.831 476.033 539.416 475.563 538.125C475.33 537.479 475.115 536.863 474.947 536.321C474.783 535.778 474.668 535.304 474.634 534.961C474.57 534.379 474.483 533.988 474.345 533.69C474.277 533.541 474.192 533.411 474.066 533.303C474.004 533.25 473.931 533.205 473.851 533.175C473.768 533.145 473.684 533.129 473.601 533.129C473.494 533.129 473.398 533.154 473.317 533.186C473.178 533.246 473.077 533.326 472.995 533.404C472.871 533.521 472.782 533.644 472.718 533.74C472.654 533.837 472.617 533.905 472.612 533.917L473.018 534.13L472.839 533.708C470.554 534.668 467.901 534.951 465.616 534.951C464.075 534.951 462.702 534.823 461.717 534.697C461.223 534.633 460.827 534.569 460.556 534.521C460.419 534.498 460.316 534.478 460.245 534.464C460.211 534.457 460.183 534.452 460.167 534.45L460.142 534.443L459.538 534.315L459.59 534.931L460.048 534.892Z" fill="#04254E"/>
<path fill-rule="evenodd" clip-rule="evenodd" d="M339.753 279.061L401.081 297.758L399.572 303.853L336.545 293.411C336.545 293.411 333.221 285.696 339.753 279.061Z" fill="#04254E"/>
<path fill-rule="evenodd" clip-rule="evenodd" d="M339.753 279.061L339.62 279.5L400.531 298.067L399.229 303.333L336.619 292.96L336.545 293.411L336.964 293.23L336.838 293.285L336.964 293.23L336.838 293.285L336.964 293.23C336.955 293.207 336.156 291.314 336.156 288.651C336.156 287.323 336.355 285.803 336.941 284.219C337.53 282.632 338.505 280.982 340.078 279.384L339.753 279.061L339.62 279.5L339.753 279.061L339.425 278.74C337.763 280.43 336.713 282.197 336.083 283.901C335.451 285.602 335.24 287.232 335.24 288.651C335.243 291.54 336.11 293.555 336.124 293.591L336.223 293.823L399.915 304.374L401.628 297.444L339.62 278.543L339.425 278.74L339.753 279.061Z" fill="#04254E"/>
<path fill-rule="evenodd" clip-rule="evenodd" d="M364.226 305.132C364.226 305.132 365.085 299.848 364.986 298.241C364.888 296.634 366.136 289.745 367.175 287.422C368.34 284.814 381.22 288.262 380.163 291.38C379.558 293.161 380.643 299.677 380.71 300.728C380.778 301.781 380.094 303.054 377.784 303.122C375.124 303.2 371.154 307.699 370.92 309.269C370.685 310.84 363.757 308.372 364.226 305.132Z" fill="white"/>
<path fill-rule="evenodd" clip-rule="evenodd" d="M364.226 305.132L364.677 305.206C364.677 305.203 364.87 304.02 365.064 302.598C365.16 301.886 365.256 301.114 365.33 300.402C365.403 299.686 365.451 299.031 365.453 298.534C365.453 298.418 365.449 298.312 365.444 298.211C365.44 298.163 365.44 298.104 365.44 298.038C365.437 297.603 365.511 296.845 365.637 295.947C365.827 294.599 366.133 292.909 366.488 291.359C366.664 290.583 366.852 289.842 367.04 289.196C367.228 288.548 367.42 287.994 367.594 287.607C367.631 287.527 367.69 287.451 367.793 287.371C367.951 287.252 368.212 287.142 368.558 287.069C368.903 286.996 369.329 286.959 369.805 286.959C370.724 286.959 371.829 287.097 372.96 287.339C374.659 287.703 376.422 288.305 377.727 289.006C378.379 289.354 378.915 289.727 379.267 290.086C379.441 290.265 379.572 290.437 379.652 290.592C379.732 290.75 379.767 290.885 379.767 291.011C379.767 291.085 379.755 291.156 379.73 291.233C379.647 291.478 379.599 291.753 379.567 292.065C379.535 292.378 379.522 292.724 379.522 293.097C379.524 294.448 379.693 296.158 379.872 297.644C379.959 298.385 380.048 299.068 380.119 299.617C380.156 299.89 380.186 300.13 380.208 300.325C380.234 300.519 380.25 300.673 380.254 300.757C380.256 300.794 380.256 300.831 380.256 300.867C380.256 301.069 380.222 301.275 380.142 301.472C380.023 301.762 379.815 302.035 379.446 302.257C379.08 302.477 378.539 302.641 377.77 302.664C376.98 302.69 376.175 303.024 375.385 303.502C374.201 304.226 373.045 305.302 372.145 306.357C371.696 306.886 371.312 307.41 371.021 307.889C370.877 308.129 370.753 308.358 370.659 308.576C370.566 308.793 370.499 308.997 370.467 309.203V309.207L370.476 309.21L370.467 309.205V309.207L370.476 309.21L370.467 309.205L370.474 309.21L370.467 309.203V309.205L370.474 309.21L370.467 309.203C370.467 309.205 370.44 309.233 370.357 309.255C370.277 309.278 370.151 309.297 369.998 309.297C369.613 309.299 369.057 309.191 368.462 308.985C367.569 308.681 366.582 308.159 365.849 307.52C365.483 307.202 365.179 306.856 364.975 306.506C364.769 306.153 364.661 305.803 364.661 305.448C364.661 305.366 364.666 305.281 364.677 305.199L364.226 305.132L364.677 305.206L364.226 305.132L363.773 305.066C363.752 305.194 363.745 305.322 363.745 305.448C363.745 306.176 364.045 306.842 364.487 307.415C365.151 308.271 366.145 308.953 367.154 309.439C367.663 309.681 368.173 309.871 368.656 310.004C369.139 310.137 369.593 310.212 369.998 310.212C370.302 310.21 370.582 310.173 370.838 310.048C370.966 309.983 371.09 309.894 371.188 309.771C371.284 309.647 371.351 309.494 371.374 309.338C371.39 309.217 371.458 309.008 371.582 308.763C371.8 308.328 372.17 307.774 372.637 307.2C373.336 306.336 374.256 305.425 375.192 304.736C375.659 304.391 376.133 304.102 376.58 303.903C377.026 303.701 377.443 303.589 377.798 303.58C378.388 303.562 378.894 303.47 379.327 303.317C379.973 303.088 380.449 302.712 380.749 302.271C381.049 301.829 381.175 301.332 381.172 300.867C381.172 300.812 381.172 300.755 381.168 300.7C381.161 300.579 381.142 300.418 381.12 300.217C381.035 299.514 380.865 298.301 380.714 296.975C380.566 295.65 380.437 294.214 380.437 293.097C380.437 292.747 380.451 292.426 380.479 292.158C380.506 291.888 380.547 291.668 380.595 291.529L380.598 291.527C380.653 291.357 380.682 291.183 380.682 291.011C380.682 290.618 380.536 290.247 380.314 289.917C379.92 289.342 379.283 288.848 378.503 288.39C377.331 287.708 375.815 287.129 374.263 286.712C372.711 286.295 371.126 286.043 369.805 286.043C369.107 286.043 368.48 286.112 367.956 286.284C367.692 286.371 367.452 286.483 367.246 286.639C367.04 286.792 366.864 286.991 366.756 287.234C366.488 287.836 366.225 288.672 365.968 289.635C365.584 291.08 365.224 292.802 364.959 294.349C364.828 295.123 364.718 295.851 364.643 296.483C364.567 297.115 364.524 297.644 364.524 298.038C364.524 298.12 364.524 298.195 364.528 298.269C364.533 298.342 364.538 298.434 364.538 298.534C364.538 298.972 364.49 299.61 364.419 300.309C364.311 301.357 364.151 302.548 364.016 303.472C363.949 303.935 363.887 304.333 363.844 304.615C363.821 304.755 363.805 304.867 363.791 304.942C363.78 305.018 363.773 305.059 363.773 305.059V305.066L364.226 305.132Z" fill="#04254E"/>
<path fill-rule="evenodd" clip-rule="evenodd" d="M365.414 299.249C365.414 299.249 364.65 306.82 364.043 307.719C363.439 308.619 370.485 309.977 370.485 309.977C370.485 309.977 370.419 307.722 373.258 305.199C373.258 305.199 367.706 306.698 365.414 299.249Z" fill="#8AEBA0"/>
<path fill-rule="evenodd" clip-rule="evenodd" d="M388.416 403.983C388.416 403.983 382.436 449.867 381.477 467.724C380.517 485.583 382.328 527.44 382.328 527.44C382.328 527.44 387.237 531.288 397.704 529.175C397.704 529.175 401.946 509.963 404.711 499.219C409.13 482.065 402.216 479.246 412.585 456.204C422.955 433.159 426.412 427.589 426.412 427.589C426.412 427.589 439.279 468.301 440.623 476.366C441.966 484.432 455.716 513.246 458.104 526.962C458.104 526.962 465.682 528.759 472.211 525.206C472.211 525.206 471.731 497.875 464.675 471.517C457.617 445.16 462.514 423.557 455.169 400.512C447.823 377.47 388.416 403.983 388.416 403.983Z" fill="#8AEBA0"/>
<path fill-rule="evenodd" clip-rule="evenodd" d="M388.416 403.983L387.96 403.923C387.96 403.923 386.465 415.395 384.851 429.102C383.235 442.811 381.502 458.745 381.019 467.701C380.817 471.453 380.737 476.252 380.737 481.497C380.737 501.295 381.87 527.456 381.87 527.46L381.88 527.671L382.047 527.802C382.104 527.85 385.234 530.267 391.708 530.265C393.484 530.265 395.511 530.084 397.793 529.624L398.086 529.564L398.15 529.274C398.15 529.274 398.217 528.974 398.338 528.427C399.187 524.606 402.738 508.72 405.156 499.331C406.699 493.344 406.87 489.061 406.87 485.107C406.87 483.981 406.857 482.882 406.857 481.778C406.857 478.672 406.964 475.514 407.784 471.538C408.603 467.561 410.137 462.76 413.004 456.391C418.187 444.873 421.639 437.726 423.796 433.461C424.874 431.329 425.627 429.917 426.11 429.04C426.353 428.603 426.527 428.298 426.639 428.104C426.696 428.008 426.738 427.939 426.763 427.893C426.777 427.87 426.786 427.854 426.793 427.845L426.799 427.834L426.802 427.831L426.413 427.589L425.975 427.728C425.975 427.728 426.026 427.886 426.12 428.186C426.829 430.437 430.03 440.624 433.21 451.192C434.801 456.476 436.385 461.856 437.651 466.382C438.285 468.646 438.837 470.698 439.27 472.415C439.705 474.132 440.018 475.521 440.172 476.442C440.346 477.488 440.712 478.834 441.225 480.432C443.02 486.02 446.607 494.681 450.009 503.456C451.71 507.843 453.365 512.254 454.721 516.311C456.078 520.37 457.138 524.079 457.653 527.039L457.706 527.337L457.999 527.405C458.022 527.41 459.973 527.873 462.761 527.873C465.513 527.873 469.091 527.424 472.431 525.608L472.674 525.476L472.669 525.199C472.667 525.178 472.191 497.824 465.117 471.398C461.603 458.278 461.062 446.329 460.488 434.75C459.911 423.175 459.299 411.966 455.604 400.375C455.03 398.571 454.141 397.046 452.99 395.789C451.266 393.898 448.965 392.612 446.287 391.799C443.608 390.986 440.547 390.64 437.26 390.64C432.216 390.64 426.639 391.453 421.101 392.664C404.494 396.302 388.244 403.559 388.228 403.564L387.995 403.669L387.96 403.923L388.416 403.983L388.601 404.4C388.601 404.4 388.629 404.388 388.684 404.365C389.531 403.99 396.87 400.785 406.406 397.673C411.172 396.119 416.488 394.59 421.813 393.447C427.136 392.307 432.468 391.556 437.26 391.556C441.559 391.556 445.417 392.163 448.439 393.603C449.95 394.322 451.255 395.244 452.315 396.405C453.375 397.568 454.194 398.967 454.732 400.652C458.384 412.106 458.997 423.221 459.572 434.796C460.149 446.368 460.689 458.401 464.233 471.636C467.752 484.777 469.634 498.179 470.634 508.291C471.133 513.346 471.415 517.579 471.568 520.547C471.646 522.032 471.692 523.2 471.719 523.997C471.733 524.395 471.742 524.699 471.747 524.905C471.751 525.109 471.754 525.215 471.754 525.215L472.212 525.205L471.994 524.805C468.844 526.52 465.414 526.959 462.761 526.957C461.417 526.957 460.272 526.845 459.469 526.735C459.066 526.677 458.748 526.623 458.533 526.581C458.425 526.561 458.342 526.545 458.288 526.533C458.262 526.526 458.242 526.522 458.228 526.52L458.214 526.515H458.21L458.104 526.961L458.555 526.881C457.951 523.408 456.637 519.022 454.989 514.253C452.514 507.103 449.281 499.102 446.541 492.135C445.172 488.651 443.926 485.427 442.962 482.701C441.999 479.979 441.316 477.747 441.074 476.291C440.902 475.256 440.552 473.733 440.069 471.842C438.384 465.226 435.08 454.134 432.196 444.69C429.311 435.247 426.85 427.451 426.848 427.451L426.548 426.501L426.023 427.348C426.003 427.38 422.543 432.96 412.168 456.014C409.281 462.428 407.722 467.296 406.886 471.352C406.051 475.409 405.941 478.651 405.941 481.778C405.941 482.891 405.955 483.99 405.955 485.107C405.955 489.033 405.788 493.198 404.27 499.104C401.5 509.862 397.257 529.074 397.255 529.077L397.704 529.175L397.612 528.726C395.387 529.175 393.42 529.349 391.708 529.349C388.585 529.349 386.298 528.77 384.799 528.195C384.048 527.909 383.494 527.625 383.13 527.415C382.949 527.309 382.816 527.222 382.729 527.163C382.685 527.135 382.653 527.112 382.635 527.096L382.614 527.083L382.61 527.08L382.537 527.177L382.61 527.08L382.537 527.177L382.61 527.08L382.328 527.44L382.786 527.422C382.786 527.419 382.768 527.012 382.738 526.259C382.521 520.984 381.653 498.793 381.653 481.497C381.653 476.261 381.733 471.476 381.935 467.749C382.413 458.846 384.146 442.909 385.76 429.21C386.568 422.36 387.344 416.068 387.921 411.487C388.207 409.198 388.446 407.337 388.61 406.048C388.693 405.402 388.757 404.901 388.803 404.56C388.846 404.221 388.869 404.042 388.869 404.042L388.416 403.983L388.601 404.4L388.416 403.983Z" fill="#04254E"/>
<path fill-rule="evenodd" clip-rule="evenodd" d="M427.01 427.589L429.3 420.652C429.3 420.652 436.074 447.978 442.044 461.803C448.015 475.631 463.187 517.33 462.802 527.156L458.434 526.664C458.434 526.664 455.55 515.038 450.545 501.65C445.616 488.463 441.326 478.672 441.136 476.43C440.943 474.189 432.621 446.025 432.621 446.025L427.01 427.589Z" fill="#8AEBA0"/>
<path fill-rule="evenodd" clip-rule="evenodd" d="M389.762 404.713C389.762 404.713 397.896 413.411 411.626 414.468C425.355 415.524 452.081 412.323 458.482 418.916C458.482 418.916 457.585 407.747 454.833 401.153C452.081 394.56 389.762 404.713 389.762 404.713Z" fill="#8AEBA0"/>
<path fill-rule="evenodd" clip-rule="evenodd" d="M209.549 208.651C209.549 284.983 163.015 346.865 105.616 346.865C48.2143 346.865 1.68274 284.983 1.68274 208.651C1.68274 132.318 48.2143 70.4373 105.616 70.4373C163.015 70.4373 209.549 132.318 209.549 208.651Z" fill="#5954A4"/>
<path fill-rule="evenodd" clip-rule="evenodd" d="M209.549 208.651H209.091C209.091 246.723 197.484 281.185 178.741 306.108C169.37 318.569 158.219 328.644 145.847 335.604C133.473 342.564 119.883 346.407 105.616 346.407C91.3485 346.407 77.7564 342.564 65.3846 335.604C46.827 325.167 31.0119 307.712 19.8398 285.721C8.66762 263.729 2.1406 237.206 2.1406 208.651C2.13832 170.577 13.7477 136.116 32.4886 111.194C41.859 98.7326 53.0129 88.6566 65.3846 81.6975C77.7564 74.7388 91.3485 70.8953 105.616 70.8949C119.883 70.8953 133.473 74.7388 145.847 81.6975C164.405 92.1353 180.218 109.59 191.39 131.581C202.562 153.572 209.091 180.096 209.091 208.651H210.007C210.005 170.391 198.347 135.745 179.473 110.644C170.034 98.0932 158.791 87.9285 146.296 80.8995C133.798 73.8704 120.048 69.9789 105.616 69.9794C91.1814 69.9789 77.4314 73.8704 64.9359 80.8995C46.1905 91.4437 30.2656 109.04 19.0248 131.167C7.78392 153.294 1.22485 179.956 1.22485 208.651C1.22485 246.911 12.8824 281.556 31.7583 306.657C41.1951 319.207 52.4382 329.372 64.9359 336.403C77.4314 343.431 91.1814 347.323 105.616 347.323C120.048 347.323 133.798 343.431 146.296 336.403C165.041 325.858 180.966 308.262 192.207 286.135C203.448 264.008 210.007 237.346 210.007 208.651H209.549Z" fill="#04254E"/>
<path fill-rule="evenodd" clip-rule="evenodd" d="M115.446 70.48C63.4753 70.48 21.3439 132.351 21.3439 208.672C21.3439 284.995 63.4753 346.865 115.446 346.865C167.418 346.865 209.549 284.995 209.549 208.672C209.549 132.351 167.418 70.48 115.446 70.48Z" fill="white"/>
<path fill-rule="evenodd" clip-rule="evenodd" d="M115.446 70.4802V70.0223C102.363 70.0216 89.897 73.9183 78.576 80.9508C61.5934 91.5008 47.1772 109.096 36.9986 131.216C26.8223 153.337 20.886 179.988 20.886 208.672C20.8883 246.918 31.44 281.55 48.5279 306.648C57.0719 319.196 67.255 329.361 78.576 336.394C89.897 343.427 102.363 347.323 115.446 347.323C128.53 347.323 140.996 343.427 152.317 336.394C169.299 325.844 183.716 308.248 193.894 286.128C204.07 264.008 210.007 237.355 210.007 208.672C210.005 170.427 199.453 135.796 182.365 110.698C173.821 98.1493 163.638 87.9836 152.317 80.9508C140.996 73.9183 128.53 70.0216 115.446 70.0223V70.9378C128.347 70.9385 140.639 74.7755 151.834 81.7288C168.626 92.1576 182.944 109.608 193.061 131.599C203.178 153.589 209.091 180.114 209.091 208.672C209.091 246.749 198.578 281.213 181.607 306.131C173.125 318.592 163.029 328.663 151.834 335.615C140.639 342.568 128.347 346.405 115.446 346.408C102.546 346.405 90.2541 342.568 79.0591 335.615C62.2665 325.187 47.9487 307.738 37.832 285.746C27.7152 263.756 21.8017 237.229 21.8017 208.672C21.8017 170.596 32.3146 136.131 49.2857 111.213C57.7679 98.7537 67.864 88.6818 79.0591 81.7288C90.2541 74.7755 102.546 70.9385 115.446 70.9378V70.4802Z" fill="#04254E"/>
<path fill-rule="evenodd" clip-rule="evenodd" d="M115.446 327.305V326.847C104.38 326.847 93.837 323.555 84.233 317.589C69.826 308.642 57.5343 293.667 48.853 274.791C40.1671 255.915 35.0916 233.145 35.0916 208.63C35.0916 175.943 44.1186 146.357 58.6813 124.971C65.9638 114.277 74.6268 105.635 84.233 99.669C93.837 93.7035 104.38 90.4125 115.446 90.4119C126.513 90.4125 137.056 93.7035 146.66 99.669C161.067 108.616 173.358 123.592 182.04 142.468C190.723 161.344 195.801 184.114 195.801 208.63C195.801 241.316 186.774 270.902 172.212 292.287C164.929 302.98 156.266 311.625 146.66 317.589C137.056 323.555 126.513 326.847 115.446 326.847V327.763C126.696 327.763 137.413 324.411 147.143 318.367C161.742 309.299 174.13 294.178 182.873 275.174C191.616 256.167 196.715 233.271 196.717 208.63C196.715 175.773 187.651 146.022 172.967 124.456C165.625 113.673 156.875 104.936 147.143 98.8913C137.413 92.8462 126.696 89.4956 115.446 89.4963C104.196 89.4956 93.4798 92.8462 83.75 98.8913C69.1506 107.96 56.7628 123.08 48.0197 142.086C39.2765 161.092 34.1781 183.988 34.1758 208.63C34.1781 241.485 43.2417 271.238 57.9258 292.804C65.2678 303.585 74.0178 312.323 83.75 318.367C93.4798 324.411 104.196 327.763 115.446 327.763V327.305ZM115.446 70.4372V69.9794C102.363 69.9787 89.897 73.8752 78.576 80.9079C61.5934 91.4579 47.1772 109.053 36.9986 131.174C26.8223 153.294 20.886 179.945 20.886 208.63C20.8883 246.875 31.44 281.506 48.5279 306.604C57.0719 319.152 67.255 329.317 78.576 336.35C89.897 343.383 102.363 347.28 115.446 347.28C128.53 347.28 140.996 343.383 152.317 336.35C169.299 325.801 183.716 308.205 193.894 286.085C204.07 263.965 210.007 237.314 210.007 208.63C210.005 170.384 199.453 135.752 182.365 110.655C173.821 98.1064 163.638 87.9407 152.317 80.9079C140.996 73.8752 128.53 69.9787 115.446 69.9794V70.8949C128.347 70.8956 140.639 74.7323 151.834 81.6856C168.626 92.1144 182.944 109.565 193.061 131.556C203.178 153.546 209.091 180.073 209.091 208.63C209.091 246.705 198.578 281.169 181.607 306.089C173.125 318.548 163.029 328.619 151.834 335.572C140.639 342.527 128.347 346.364 115.446 346.364C102.546 346.364 90.2541 342.527 79.0591 335.572C62.2665 325.144 47.9487 307.694 37.832 285.702C27.7152 263.713 21.8017 237.186 21.8017 208.63C21.8017 170.553 32.3146 136.088 49.2857 111.17C57.7679 98.7108 67.864 88.6387 79.0591 81.6856C90.2541 74.7323 102.546 70.8956 115.446 70.8949V70.4372Z" fill="#2F333B"/>
<path fill-rule="evenodd" clip-rule="evenodd" d="M115.446 327.305C70.815 327.305 34.6337 274.171 34.6337 208.631C34.6337 143.087 70.815 89.9542 115.446 89.9542C160.078 89.9542 196.259 143.087 196.259 208.631C196.259 274.171 160.078 327.305 115.446 327.305ZM115.446 70.4373C63.4753 70.4373 21.3439 132.308 21.3439 208.63C21.3439 284.951 63.4753 346.822 115.446 346.822C167.418 346.822 209.549 284.951 209.549 208.63C209.549 132.308 167.418 70.4373 115.446 70.4373Z" fill="#8A54A2"/>
<path fill-rule="evenodd" clip-rule="evenodd" d="M115.446 327.305V326.847C104.38 326.847 93.837 323.555 84.233 317.589C69.826 308.642 57.5343 293.667 48.853 274.791C40.1671 255.915 35.0916 233.145 35.0916 208.63C35.0916 175.943 44.1186 146.357 58.6813 124.971C65.9638 114.277 74.6268 105.635 84.233 99.669C93.837 93.7035 104.38 90.4125 115.446 90.4119C126.513 90.4125 137.056 93.7035 146.66 99.669C161.067 108.616 173.358 123.592 182.04 142.468C190.723 161.344 195.801 184.114 195.801 208.63C195.801 241.316 186.774 270.902 172.212 292.287C164.929 302.98 156.266 311.625 146.66 317.589C137.056 323.555 126.513 326.847 115.446 326.847V327.763C126.696 327.763 137.413 324.411 147.143 318.367C161.742 309.299 174.13 294.178 182.873 275.174C191.616 256.167 196.715 233.271 196.717 208.63C196.715 175.773 187.651 146.022 172.967 124.456C165.625 113.673 156.875 104.936 147.143 98.8913C137.413 92.8462 126.696 89.4956 115.446 89.4963C104.196 89.4956 93.4798 92.8462 83.75 98.8913C69.1506 107.96 56.7628 123.08 48.0197 142.086C39.2765 161.092 34.1781 183.988 34.1758 208.63C34.1781 241.485 43.2417 271.238 57.9258 292.804C65.2678 303.585 74.0178 312.323 83.75 318.367C93.4798 324.411 104.196 327.763 115.446 327.763V327.305ZM115.446 70.4372V69.9794C102.363 69.9787 89.897 73.8752 78.576 80.9079C61.5934 91.4579 47.1772 109.053 36.9986 131.174C26.8223 153.294 20.886 179.945 20.886 208.63C20.8883 246.875 31.44 281.506 48.5279 306.604C57.0719 319.152 67.255 329.317 78.576 336.35C89.897 343.383 102.363 347.28 115.446 347.28C128.53 347.28 140.996 343.383 152.317 336.35C169.299 325.801 183.716 308.205 193.894 286.085C204.07 263.965 210.007 237.314 210.007 208.63C210.005 170.384 199.453 135.752 182.365 110.655C173.821 98.1064 163.638 87.9407 152.317 80.9079C140.996 73.8752 128.53 69.9787 115.446 69.9794V70.8949C128.347 70.8956 140.639 74.7323 151.834 81.6856C168.626 92.1144 182.944 109.565 193.061 131.556C203.178 153.546 209.091 180.073 209.091 208.63C209.091 246.705 198.578 281.169 181.607 306.089C173.125 318.548 163.029 328.619 151.834 335.572C140.639 342.527 128.347 346.364 115.446 346.364C102.546 346.364 90.2541 342.527 79.0591 335.572C62.2665 325.144 47.9487 307.694 37.832 285.702C27.7152 263.713 21.8017 237.186 21.8017 208.63C21.8017 170.553 32.3146 136.088 49.2857 111.17C57.7679 98.7108 67.864 88.6387 79.0591 81.6856C90.2541 74.7323 102.546 70.8956 115.446 70.8949V70.4372Z" fill="#04254E"/>
<path fill-rule="evenodd" clip-rule="evenodd" d="M116.458 271.213C93.0768 271.213 74.1208 243.15 74.1208 208.534C74.1208 173.917 93.0768 145.855 116.458 145.855C139.84 145.855 158.793 173.917 158.793 208.534C158.793 243.15 139.84 271.213 116.458 271.213ZM116.458 117.878C82.6396 117.878 55.2243 158.466 55.2243 208.534C55.2243 258.601 82.6396 299.189 116.458 299.189C150.277 299.189 177.692 258.601 177.692 208.534C177.692 158.466 150.277 117.878 116.458 117.878Z" fill="#8A54A2"/>
<path fill-rule="evenodd" clip-rule="evenodd" d="M116.458 271.213V270.755C110.705 270.753 105.224 269.029 100.222 265.897C92.7197 261.201 86.3026 253.326 81.7696 243.388C77.2321 233.45 74.5787 221.451 74.5787 208.534C74.5787 191.309 79.2994 175.723 86.9001 164.469C90.7005 158.842 95.2197 154.3 100.222 151.168C105.224 148.037 110.705 146.313 116.458 146.312C122.211 146.313 127.692 148.037 132.695 151.168C140.197 155.865 146.612 163.74 151.147 173.679C155.682 183.617 158.338 195.615 158.336 208.534C158.338 225.757 153.617 241.346 146.014 252.598C142.214 258.223 137.695 262.767 132.695 265.897C127.692 269.029 122.211 270.753 116.458 270.755V271.669C122.397 271.671 128.052 269.885 133.18 266.673C140.874 261.856 147.385 253.834 151.98 243.768C156.575 233.699 159.251 221.577 159.251 208.534C159.251 191.142 154.494 175.389 146.774 163.957C142.912 158.241 138.308 153.604 133.18 150.392C128.052 147.18 122.397 145.396 116.458 145.397C110.52 145.396 104.863 147.181 99.7367 150.392C92.0421 155.211 85.5311 163.231 80.9363 173.299C76.3415 183.367 73.6629 195.489 73.6629 208.534C73.6652 225.924 78.4226 241.678 86.1423 253.111C90.0022 258.825 94.6062 263.463 99.7367 266.673C104.863 269.885 110.52 271.671 116.458 271.669V271.213ZM116.458 117.878V117.42C107.912 117.419 99.7688 119.986 92.3809 124.614C81.2958 131.556 71.8979 143.124 65.2656 157.657C58.6332 172.19 54.7665 189.695 54.7665 208.534C54.7688 233.651 61.6392 256.398 72.7793 272.893C78.3516 281.14 84.9908 287.825 92.3809 292.451C99.7688 297.081 107.912 299.647 116.458 299.647C125.005 299.647 133.148 297.081 140.536 292.451C151.621 285.51 161.019 273.942 167.651 259.409C174.283 244.876 178.15 227.371 178.15 208.534C178.148 183.415 171.277 160.669 160.135 144.174C154.565 135.927 147.926 129.241 140.536 124.614C133.148 119.986 125.005 117.419 116.458 117.42V118.336C124.819 118.336 132.786 120.843 140.05 125.39C150.943 132.21 160.245 143.632 166.818 158.037C173.391 172.44 177.234 189.821 177.234 208.534C177.234 233.484 170.398 256.064 159.377 272.38C153.867 280.538 147.312 287.129 140.05 291.675C132.786 296.224 124.819 298.731 116.458 298.731C108.095 298.731 100.13 296.224 92.8663 291.675C81.9734 284.855 72.6717 273.434 66.0989 259.029C59.5261 244.626 55.6822 227.245 55.6822 208.534C55.6822 183.582 62.516 161.002 73.5394 144.687C79.0499 136.528 85.6044 129.937 92.8663 125.39C100.13 120.843 108.095 118.336 116.458 118.336V117.878Z" fill="#04254E"/>
<path fill-rule="evenodd" clip-rule="evenodd" d="M134.801 208.534C134.801 222.848 126.964 234.45 117.296 234.45C107.628 234.45 99.7895 222.848 99.7895 208.534C99.7895 194.219 107.628 182.616 117.296 182.616C126.964 182.616 134.801 194.219 134.801 208.534Z" fill="#04254E"/>
<path fill-rule="evenodd" clip-rule="evenodd" d="M134.801 208.534H134.343C134.345 215.606 132.404 222.003 129.295 226.604C127.74 228.903 125.898 230.755 123.867 232.026C121.836 233.296 119.62 233.992 117.296 233.992C114.97 233.992 112.757 233.296 110.724 232.026C107.679 230.121 105.053 226.907 103.196 222.834C101.337 218.763 100.247 213.839 100.247 208.534C100.247 201.46 102.186 195.064 105.295 190.464C106.85 188.163 108.693 186.311 110.724 185.041C112.757 183.77 114.97 183.074 117.296 183.074C119.62 183.074 121.836 183.77 123.867 185.041C126.912 186.946 129.538 190.16 131.394 194.233C133.253 198.303 134.343 203.228 134.343 208.534H135.259C135.259 201.293 133.281 194.732 130.053 189.951C128.439 187.561 126.511 185.615 124.352 184.265C122.196 182.914 119.806 182.158 117.296 182.158C114.787 182.158 112.395 182.914 110.238 184.265C107.001 186.293 104.281 189.652 102.363 193.853C100.447 198.054 99.3316 203.104 99.3316 208.534C99.3339 215.773 101.31 222.335 104.538 227.115C106.152 229.505 108.079 231.451 110.238 232.802C112.395 234.152 114.787 234.908 117.296 234.908C119.806 234.908 122.196 234.152 124.352 232.802C127.589 230.773 130.311 227.415 132.228 223.214C134.146 219.013 135.259 213.965 135.259 208.534H134.801Z" fill="#04254E"/>
<path fill-rule="evenodd" clip-rule="evenodd" d="M410.35 287.918C410.35 287.918 405.824 291.394 404.322 295.347C402.818 299.304 397.816 300.416 398.12 301.227C398.427 302.035 400.378 303.173 400.371 304.276C400.364 305.38 398.505 311.007 399.815 312.346C401.124 313.683 408.111 315.753 408.741 316.847C409.368 317.944 412.974 329.397 412.974 329.397L427.372 332.71C427.372 332.71 423.97 320.968 427.447 313.044C430.925 305.123 410.35 287.918 410.35 287.918Z" fill="white"/>
<path fill-rule="evenodd" clip-rule="evenodd" d="M410.35 287.918L410.071 287.557C410.06 287.566 408.913 288.445 407.571 289.832C406.23 291.22 404.686 293.108 403.894 295.185C403.556 296.073 403.024 296.813 402.409 297.44C401.484 298.379 400.366 299.056 399.46 299.576C399.007 299.837 398.608 300.057 398.299 300.267C398.141 300.375 398.006 300.478 397.889 300.604C397.83 300.668 397.775 300.739 397.729 300.831C397.683 300.918 397.649 301.03 397.649 301.153C397.649 301.231 397.665 301.314 397.692 301.387C397.754 301.547 397.839 301.685 397.937 301.817C398.111 302.049 398.324 302.266 398.551 302.488C398.887 302.818 399.251 303.157 399.515 303.479C399.648 303.64 399.753 303.795 399.819 303.933C399.886 304.07 399.913 304.185 399.913 304.276V304.274C399.913 304.331 399.902 304.457 399.874 304.617C399.828 304.901 399.744 305.295 399.643 305.753C399.49 306.44 399.304 307.266 399.153 308.111C399.004 308.956 398.89 309.816 398.89 310.583C398.89 310.995 398.922 311.382 399.009 311.735C399.096 312.085 399.238 312.41 399.487 312.667C399.702 312.882 399.98 313.074 400.316 313.273C400.904 313.619 401.671 313.974 402.507 314.336C403.762 314.878 405.172 315.43 406.307 315.934C406.875 316.185 407.376 316.424 407.743 316.634C407.926 316.739 408.077 316.838 408.182 316.92C408.288 317 408.343 317.071 408.343 317.076C408.363 317.113 408.414 317.213 408.469 317.348C408.578 317.603 408.725 317.994 408.899 318.47C409.503 320.146 410.414 322.916 411.175 325.263C411.552 326.435 411.893 327.504 412.141 328.28C412.264 328.667 412.363 328.981 412.431 329.198C412.5 329.416 412.539 329.535 412.539 329.535L412.617 329.784L428.029 333.331L427.811 332.582L427.809 332.57C427.727 332.287 426.339 327.312 426.339 321.792C426.339 318.88 426.726 315.821 427.866 313.23C428.166 312.548 428.301 311.806 428.301 311.037C428.299 309.897 428.008 308.688 427.516 307.438C426.653 305.251 425.167 302.935 423.425 300.67C420.813 297.275 417.621 294.006 415.08 291.579C412.539 289.152 410.648 287.573 410.643 287.568L410.362 287.332L410.071 287.557L410.35 287.918L410.055 288.271C410.055 288.271 410.071 288.285 410.105 288.312C410.609 288.736 414.959 292.44 419.169 297.049C421.273 299.352 423.34 301.881 424.874 304.326C425.639 305.549 426.271 306.749 426.708 307.884C427.145 309.017 427.386 310.084 427.386 311.037C427.386 311.701 427.269 312.31 427.029 312.861C425.815 315.627 425.426 318.8 425.424 321.792C425.426 327.644 426.928 332.813 426.932 332.838L427.372 332.71L427.475 332.264L413.077 328.951L412.974 329.397L413.411 329.26C413.411 329.258 412.509 326.394 411.529 323.392C411.037 321.891 410.527 320.354 410.099 319.12C409.886 318.505 409.691 317.964 409.531 317.538C409.451 317.326 409.377 317.142 409.313 316.991C409.247 316.838 409.194 316.721 409.137 316.62C409.059 316.485 408.963 316.385 408.853 316.288C408.647 316.108 408.388 315.945 408.077 315.771C407.532 315.471 406.829 315.155 406.056 314.826C404.897 314.333 403.585 313.814 402.47 313.319C401.914 313.072 401.406 312.831 400.998 312.607C400.593 312.385 400.282 312.172 400.142 312.026C400.05 311.934 399.959 311.765 399.897 311.515C399.835 311.266 399.806 310.945 399.806 310.583C399.803 309.551 400.05 308.195 400.305 307.007C400.433 306.412 400.559 305.856 400.657 305.391C400.705 305.16 400.746 304.949 400.779 304.766C400.808 304.581 400.827 304.427 400.829 304.281V304.276C400.829 304.07 400.783 303.875 400.714 303.695C400.591 303.379 400.394 303.104 400.176 302.843C399.851 302.456 399.464 302.103 399.146 301.788C398.988 301.632 398.846 301.485 398.741 301.357C398.636 301.231 398.569 301.119 398.549 301.064L398.315 301.153H398.565C398.565 301.124 398.558 301.089 398.549 301.064L398.315 301.153H398.565H398.34L398.553 301.227C398.558 301.211 398.565 301.183 398.565 301.153H398.34L398.553 301.227L398.462 301.195L398.544 301.247L398.553 301.227L398.462 301.195L398.544 301.247C398.544 301.245 398.565 301.22 398.606 301.183C398.681 301.114 398.823 301.014 399.007 300.902C399.327 300.702 399.776 300.457 400.279 300.16C401.037 299.713 401.923 299.148 402.738 298.395C403.551 297.644 404.297 296.701 404.748 295.51C405.46 293.633 406.932 291.806 408.228 290.469C408.876 289.8 409.48 289.251 409.92 288.871C410.14 288.681 410.318 288.532 410.44 288.431C410.501 288.383 410.55 288.344 410.582 288.319L410.618 288.292L410.63 288.282L410.35 287.918L410.055 288.271L410.35 287.918Z" fill="#04254E"/>
<path fill-rule="evenodd" clip-rule="evenodd" d="M409.226 293.214C409.226 293.214 409.448 299.633 408.361 302.193C407.274 304.752 409.513 319.118 418.283 321.888C427.051 324.661 415.211 336.886 415.211 336.886L426.861 332.085C426.861 332.085 424.941 325.109 425.644 317.429C426.349 309.745 409.226 293.214 409.226 293.214Z" fill="#8AEBA0"/>
<path fill-rule="evenodd" clip-rule="evenodd" d="M410.552 284.118C410.552 284.118 404.467 285.416 408.642 292.172C412.82 298.926 407.885 303.159 409.018 304.022C410.149 304.887 411.069 301.934 413.507 303.417C415.945 304.903 413.947 307.902 411.923 309.081C409.899 310.26 414.7 320.844 421.543 321.803C428.384 322.763 439.041 315.645 439.368 305.139C439.698 294.633 431.616 280.389 410.552 284.118Z" fill="#222831"/>
<path fill-rule="evenodd" clip-rule="evenodd" d="M427.205 327.413C427.328 328.946 425.788 329.647 424.251 329.59C419.448 329.413 413.452 328.001 408.938 327.413C402.537 326.582 372.516 326.57 372.516 326.57C372.516 326.57 373.411 309.681 373.347 308.337C373.347 308.337 367.331 307.699 362.786 305.329C362.786 305.329 352.191 330.325 355.456 335.414C358.72 340.503 384.645 350.297 384.645 350.297C384.645 350.297 384.549 394.175 383.876 398.786C383.876 398.786 384.357 405.409 401.351 408.003C418.347 410.595 450.705 410.787 460.115 400.419C460.115 400.419 454.208 337.992 445.424 330.645C436.637 323.301 426.655 325.673 426.655 325.673C426.655 325.673 427.141 326.598 427.205 327.413Z" fill="white"/>
<path fill-rule="evenodd" clip-rule="evenodd" d="M427.205 327.413L426.749 327.449C426.754 327.495 426.754 327.538 426.754 327.582C426.754 327.845 426.692 328.051 426.582 328.234C426.422 328.507 426.138 328.734 425.753 328.891C425.373 329.049 424.904 329.134 424.423 329.134C424.373 329.134 424.32 329.134 424.265 329.132H424.267C421.905 329.045 419.219 328.651 416.564 328.202C413.903 327.756 411.273 327.255 408.995 326.959C408.175 326.852 406.999 326.76 405.559 326.68C400.527 326.401 392.271 326.259 385.266 326.188C378.262 326.114 372.516 326.112 372.516 326.112V326.57L372.972 326.595C372.972 326.595 373.18 322.658 373.391 318.434C373.494 316.323 373.599 314.139 373.677 312.339C373.755 310.535 373.807 309.125 373.807 308.53C373.807 308.445 373.807 308.374 373.805 308.317L373.787 307.923L373.395 307.882L373.381 307.88C373.214 307.861 371.694 307.685 369.675 307.232C367.658 306.778 365.142 306.041 362.997 304.924L362.557 304.695L362.363 305.151C362.36 305.155 360.371 309.855 358.375 315.604C357.379 318.477 356.38 321.614 355.63 324.562C354.881 327.511 354.375 330.267 354.373 332.417C354.373 333.081 354.421 333.69 354.531 334.233C354.641 334.775 354.812 335.258 355.071 335.661C355.536 336.382 356.332 337.108 357.376 337.882C359.201 339.233 361.797 340.698 364.675 342.149C373.306 346.504 384.476 350.721 384.483 350.725L384.645 350.297L384.187 350.295C384.187 350.297 384.187 350.467 384.185 350.789C384.18 353.207 384.146 364.125 384.034 374.977C383.979 380.402 383.903 385.812 383.803 390.132C383.752 392.294 383.695 394.18 383.633 395.661C383.601 396.401 383.567 397.039 383.532 397.557C383.498 398.072 383.459 398.473 383.423 398.72L383.416 398.768L383.42 398.818C383.423 398.866 383.466 399.338 383.803 400.054C384.309 401.133 385.478 402.756 388.118 404.34C390.76 405.924 394.867 407.477 401.282 408.454C407.115 409.345 414.732 409.951 422.619 409.951C430.22 409.951 438.07 409.388 444.821 407.964C448.198 407.25 451.298 406.323 453.961 405.132C456.621 403.944 458.844 402.495 460.453 400.725L460.588 400.574L460.57 400.375C460.57 400.368 459.093 384.757 456.516 368.216C455.227 359.945 453.663 351.442 451.868 344.53C450.971 341.076 450.014 338.017 449 335.576C448.491 334.356 447.969 333.289 447.427 332.401C446.884 331.513 446.321 330.801 445.717 330.295C442.997 328.019 440.158 326.655 437.53 325.863C434.902 325.071 432.482 324.848 430.588 324.848C428.146 324.848 426.575 325.219 426.548 325.226L425.975 325.361L426.25 325.883V325.886C426.259 325.902 426.374 326.126 426.49 326.433C426.607 326.737 426.724 327.126 426.749 327.449L427.205 327.413L427.663 327.376C427.621 326.893 427.47 326.428 427.333 326.071C427.193 325.714 427.065 325.469 427.06 325.46L426.655 325.673L426.761 326.117H426.763C426.829 326.101 428.31 325.764 430.588 325.764C432.411 325.764 434.739 325.979 437.264 326.739C439.789 327.502 442.511 328.809 445.13 330.998C445.623 331.408 446.138 332.044 446.646 332.877C447.601 334.441 448.537 336.685 449.428 339.402C450.987 344.157 452.411 350.359 453.663 356.98C455.543 366.911 457.042 377.783 458.07 386.172C458.585 390.366 458.981 393.94 459.251 396.462C459.384 397.724 459.487 398.724 459.556 399.409C459.588 399.75 459.615 400.013 459.631 400.192C459.65 400.368 459.659 400.46 459.659 400.46L460.114 400.419L459.776 400.109C458.285 401.753 456.168 403.145 453.585 404.297C449.714 406.027 444.803 407.218 439.446 407.969C434.089 408.72 428.285 409.036 422.619 409.036C414.78 409.036 407.198 408.431 401.422 407.55C392.978 406.263 388.697 403.978 386.543 402.078C385.467 401.126 384.915 400.272 384.631 399.665C384.489 399.363 384.414 399.123 384.375 398.965C384.354 398.885 384.345 398.825 384.338 398.788L384.334 398.752V398.747L384.116 398.768L384.334 398.752V398.747L384.116 398.768L384.334 398.752L383.876 398.786L384.329 398.85C384.375 398.539 384.414 398.092 384.453 397.511C384.595 395.338 384.707 391.311 384.794 386.481C385.055 371.991 385.103 350.299 385.103 350.297V349.981L384.808 349.869C384.805 349.869 384.707 349.83 384.517 349.757C383.093 349.212 376.639 346.714 370.169 343.761C366.937 342.287 363.697 340.696 361.09 339.185C359.787 338.429 358.64 337.694 357.736 337.01C356.831 336.325 356.17 335.684 355.842 335.167C355.664 334.892 355.522 334.516 355.428 334.052C355.334 333.587 355.288 333.038 355.288 332.417C355.288 330.409 355.776 327.696 356.518 324.787C357.628 320.421 359.302 315.595 360.698 311.868C361.394 310.002 362.024 308.411 362.475 307.287C362.701 306.726 362.885 306.279 363.011 305.975C363.075 305.824 363.123 305.705 363.157 305.627C363.189 305.549 363.207 305.508 363.207 305.508L362.786 305.329L362.573 305.734C364.904 306.948 367.576 307.706 369.673 308.168C371.767 308.631 373.288 308.791 373.299 308.793L373.347 308.337L372.889 308.358C372.891 308.392 372.891 308.452 372.891 308.53C372.891 309.084 372.841 310.503 372.763 312.298C372.644 314.995 372.468 318.557 372.321 321.444C372.248 322.889 372.182 324.164 372.134 325.08C372.111 325.535 372.092 325.904 372.079 326.156C372.065 326.408 372.058 326.547 372.058 326.547L372.033 327.028H372.514C372.516 327.028 372.983 327.028 373.816 327.03C376.733 327.037 384.109 327.065 391.458 327.184C395.13 327.241 398.796 327.321 401.891 327.433C404.982 327.545 407.514 327.69 408.878 327.866C411.115 328.157 413.741 328.656 416.41 329.107C419.082 329.555 421.797 329.956 424.235 330.048H424.24C424.299 330.05 424.361 330.05 424.423 330.05C425.201 330.048 425.975 329.878 426.598 329.482C426.907 329.285 427.177 329.027 427.369 328.704C427.562 328.383 427.672 327.999 427.669 327.582C427.669 327.516 427.667 327.447 427.663 327.376L427.205 327.413Z" fill="#04254E"/>
<path fill-rule="evenodd" clip-rule="evenodd" d="M429.087 419.972L425.989 427.415C425.893 427.648 426.003 427.916 426.236 428.012C426.47 428.111 426.738 427.999 426.834 427.765L429.931 420.325C430.027 420.091 429.918 419.823 429.684 419.725C429.451 419.629 429.183 419.738 429.087 419.972Z" fill="#04254E"/>
<path fill-rule="evenodd" clip-rule="evenodd" d="M384.645 350.297C384.645 350.297 394.151 353.53 401.129 355.258L384.645 350.297Z" fill="white"/>
<path fill-rule="evenodd" clip-rule="evenodd" d="M384.499 350.73C384.503 350.732 394.009 353.965 401.019 355.702C401.264 355.762 401.511 355.613 401.573 355.368C401.632 355.123 401.484 354.874 401.239 354.814C397.766 353.953 393.652 352.715 390.408 351.691C388.787 351.181 387.381 350.723 386.383 350.393C385.884 350.228 385.485 350.096 385.213 350.004C384.941 349.912 384.794 349.862 384.792 349.862C384.554 349.782 384.293 349.91 384.212 350.148C384.13 350.389 384.258 350.65 384.499 350.73Z" fill="#04254E"/>
<path fill-rule="evenodd" clip-rule="evenodd" d="M384.982 350.872C384.982 350.872 384.922 383.592 384.753 385.787C384.679 386.735 385.206 384.649 386.092 381.24C388.345 372.582 392.005 364.34 397.031 356.939C397.768 355.854 398.212 355.048 398.04 354.881C398.04 354.881 389.554 352.403 384.982 350.872Z" fill="#8AEBA0"/>
<path fill-rule="evenodd" clip-rule="evenodd" d="M372.505 326.112C372.489 326.114 369.361 326.188 365.009 326.962C364.76 327.005 364.595 327.243 364.638 327.493C364.684 327.742 364.92 327.907 365.169 327.864C367.315 327.484 369.158 327.273 370.462 327.161C371.115 327.103 371.632 327.071 371.987 327.051C372.163 327.042 372.299 327.037 372.39 327.033C372.436 327.033 372.47 327.03 372.493 327.03C372.516 327.028 372.525 327.028 372.525 327.028C372.779 327.023 372.979 326.813 372.972 326.561C372.967 326.307 372.756 326.108 372.505 326.114" fill="#04254E"/>
<path fill-rule="evenodd" clip-rule="evenodd" d="M488.441 551.215H525.353V547.357H488.441V551.215Z" fill="white"/>
<path fill-rule="evenodd" clip-rule="evenodd" d="M488.441 547.357V547.815H524.895V550.755H488.899V547.357H488.441V547.815V547.357H487.983V551.671H525.81V546.9H487.983V547.357H488.441Z" fill="#04254E"/>
<path fill-rule="evenodd" clip-rule="evenodd" d="M512.34 551.215L531.248 501.813H596.644L598.317 503.099L514.565 551.215H512.34Z" fill="white"/>
<path fill-rule="evenodd" clip-rule="evenodd" d="M512.34 551.215L512.768 551.378L531.561 502.268H596.488L597.495 503.044L514.444 550.755L512.34 550.757V551.215L512.768 551.378L512.34 551.215V551.671H514.686L599.142 503.154L596.8 501.355H530.932L511.674 551.671H512.34V551.215Z" fill="#04254E"/>
<path fill-rule="evenodd" clip-rule="evenodd" d="M598.317 503.099H532.699L514.565 551.215H580.183L598.317 503.099Z" fill="white"/>
<path fill-rule="evenodd" clip-rule="evenodd" d="M598.317 503.099V502.641H532.383L513.903 551.671H580.499L598.979 502.641H598.317V503.099L597.889 502.939L579.867 550.755H515.227L533.015 503.557H598.317V503.099L597.889 502.939L598.317 503.099Z" fill="#04254E"/>
<path fill-rule="evenodd" clip-rule="evenodd" d="M563.031 526.52C563.031 527.962 561.007 529.132 558.51 529.132C556.012 529.132 553.986 527.962 553.986 526.52C553.986 525.077 556.012 523.907 558.51 523.907C561.007 523.907 563.031 525.077 563.031 526.52Z" fill="#04254E"/>
<path fill-rule="evenodd" clip-rule="evenodd" d="M191.136 173.001L171.495 180.645L190.792 171.239L191.136 173.001Z" fill="#8AEBA0"/>
<path fill-rule="evenodd" clip-rule="evenodd" d="M191.136 173.001L190.971 172.575L181.683 176.188L190.458 171.911L190.687 173.088L191.136 173.001L190.971 172.575L191.136 173.001L191.587 172.914L191.129 170.566L171.294 180.233L171.662 181.071L191.66 173.289L191.587 172.914L191.136 173.001Z" fill="#04254E"/>
<path fill-rule="evenodd" clip-rule="evenodd" d="M188.455 172.38C188.477 172.17 188.567 172.03 188.693 171.971C188.693 171.971 194.794 165.384 208.58 159.369C228.271 150.775 231.309 150.391 231.319 150.387C231.841 150.17 231.456 150.754 232.15 151.268C233.546 152.301 234.519 154.53 234.325 156.245C234.228 157.093 235.011 157.189 234.499 157.418C234.489 157.421 232.122 159.265 212.406 167.856C198.576 173.882 189.466 173.729 189.464 173.731C189.336 173.782 189.169 173.752 188.997 173.624C188.649 173.365 188.406 172.809 188.455 172.38Z" fill="#8AEBA0"/>
<path fill-rule="evenodd" clip-rule="evenodd" d="M188.455 172.381L188.91 172.431C188.915 172.378 188.929 172.355 188.929 172.353L188.883 172.326L188.92 172.364L188.929 172.353L188.883 172.326L188.92 172.364L188.835 172.275L188.885 172.387L188.92 172.364L188.835 172.275L188.885 172.387L188.968 172.348L189.029 172.282L189.032 172.28C189.185 172.115 195.259 165.681 208.764 159.788C218.604 155.494 224.279 153.253 227.489 152.087C229.091 151.504 230.078 151.191 230.659 151.024C230.948 150.94 231.136 150.894 231.248 150.869C231.305 150.856 231.342 150.848 231.362 150.845L231.385 150.841L231.392 150.84L231.399 150.838L231.413 150.835L231.433 150.831L231.44 150.829L231.319 150.387L231.378 150.842L231.323 150.413L231.376 150.842L231.378 150.842L231.323 150.413L231.376 150.842L231.438 150.834L231.497 150.81C231.52 150.799 231.536 150.795 231.536 150.795L231.518 150.721L231.529 150.796L231.536 150.795L231.518 150.721L231.529 150.796L231.497 150.582V150.798L231.529 150.796L231.497 150.582V150.798V150.491L231.41 150.786C231.447 150.796 231.477 150.798 231.497 150.798V150.491L231.41 150.786L231.507 150.462L231.248 150.679C231.275 150.717 231.346 150.768 231.41 150.786L231.507 150.462L231.248 150.679L231.415 150.538L231.211 150.625C231.213 150.626 231.22 150.645 231.248 150.679L231.415 150.538L231.211 150.625L231.213 150.632C231.223 150.652 231.236 150.705 231.259 150.776C231.294 150.882 231.349 151.028 231.447 151.182C231.543 151.336 231.685 151.494 231.877 151.636C232.438 152.049 232.953 152.716 233.315 153.469C233.681 154.222 233.892 155.059 233.892 155.792C233.892 155.93 233.885 156.064 233.869 156.193V156.193C233.862 156.259 233.858 156.324 233.858 156.388C233.858 156.571 233.89 156.737 233.94 156.877C234.016 157.088 234.128 157.239 234.194 157.329C234.229 157.374 234.252 157.405 234.252 157.406L234.405 157.311L234.238 157.375C234.245 157.398 234.252 157.406 234.252 157.406L234.405 157.311L234.238 157.375L234.549 157.256L234.215 157.256C234.217 157.311 234.229 157.352 234.238 157.375L234.549 157.256L234.215 157.256H234.583L234.254 157.096C234.229 157.142 234.215 157.204 234.215 157.256H234.583L234.254 157.096L234.512 157.222L234.338 156.987C234.329 156.995 234.288 157.025 234.254 157.096L234.512 157.222L234.338 156.987L234.384 157.049L234.343 156.984L234.338 156.987L234.384 157.049L234.343 156.984C234.343 156.984 234.332 156.991 234.309 157.001L234.499 157.418L234.318 156.997C234.274 157.016 234.27 157.022 234.258 157.027L234.238 157.042L234.224 157.05C234.217 157.057 234.174 157.088 234.059 157.162C233.656 157.417 232.413 158.15 229.165 159.735C225.916 161.321 220.659 163.76 212.223 167.436C199.096 173.154 190.263 173.271 189.522 173.271H189.467L189.462 173.273L189.464 173.53V173.273H189.462L189.464 173.53V173.273H189.377L189.295 173.305L189.336 173.411V173.296L189.295 173.305L189.336 173.411V173.296V173.337L189.345 173.296H189.336V173.337L189.345 173.296C189.345 173.296 189.316 173.289 189.27 173.255C189.187 173.198 189.087 173.072 189.016 172.923C188.945 172.777 188.906 172.612 188.906 172.493C188.906 172.47 188.908 172.449 188.91 172.433V172.431L188.455 172.381L187.999 172.326C187.992 172.383 187.99 172.438 187.99 172.493C187.992 172.783 188.068 173.065 188.192 173.321C188.317 173.58 188.489 173.814 188.725 173.992H188.727C188.904 174.12 189.107 174.21 189.336 174.212C189.435 174.212 189.538 174.194 189.636 174.155L189.464 173.731V174.187H189.522C190.364 174.187 199.327 174.054 212.589 168.275C222.452 163.978 227.979 161.367 231.049 159.826C232.583 159.055 233.503 158.552 234.045 158.238C234.316 158.082 234.492 157.972 234.604 157.899C234.661 157.863 234.7 157.835 234.728 157.816L234.76 157.795L234.764 157.79L234.586 157.543L234.762 157.792L234.764 157.79L234.586 157.543L234.762 157.792L234.51 157.435L234.753 157.799L234.762 157.792L234.51 157.435L234.753 157.799L234.499 157.42L234.737 157.808L234.753 157.799L234.499 157.42L234.737 157.808L234.501 157.42L234.73 157.813L234.737 157.808L234.501 157.42L234.73 157.813L234.78 157.779V157.779L234.499 157.418L234.686 157.835C234.776 157.794 234.858 157.752 234.95 157.669C234.993 157.626 235.039 157.57 235.076 157.497C235.112 157.425 235.133 157.336 235.131 157.256C235.131 157.145 235.101 157.061 235.073 157.002C235.021 156.898 234.977 156.848 234.941 156.799C234.888 156.728 234.849 156.674 234.822 156.614C234.794 156.555 234.776 156.492 234.773 156.388C234.773 156.361 234.776 156.331 234.78 156.297V156.296C234.799 156.131 234.808 155.962 234.808 155.792C234.806 154.888 234.556 153.935 234.142 153.071C233.723 152.208 233.139 151.431 232.422 150.9C232.317 150.821 232.26 150.753 232.219 150.69C232.159 150.595 232.136 150.513 232.095 150.38C232.086 150.347 232.072 150.309 232.054 150.264C232.024 150.198 231.978 150.105 231.875 150.016C231.822 149.973 231.758 149.936 231.69 149.913C231.623 149.891 231.557 149.882 231.497 149.883C231.351 149.885 231.248 149.923 231.143 149.965L231.319 150.387L231.207 149.944C231.195 149.947 231.186 149.948 231.143 149.965L231.319 150.387L231.207 149.944L231.319 150.382L231.234 149.938L231.207 149.944L231.319 150.382L231.234 149.938L231.305 150.318L231.243 149.936L231.234 149.938L231.305 150.318L231.243 149.936C231.241 149.937 231.211 149.941 231.172 149.949C230.877 150.006 229.746 150.269 226.401 151.511C223.059 152.752 217.507 154.973 208.398 158.949C194.545 164.994 188.393 171.623 188.359 171.662L188.693 171.971L188.501 171.556C188.347 171.627 188.224 171.749 188.143 171.884C188.061 172.021 188.018 172.17 187.999 172.328V172.326L188.455 172.381Z" fill="#04254E"/>
<path fill-rule="evenodd" clip-rule="evenodd" d="M230.984 152.005C231.074 151.205 231.415 150.67 231.896 150.447L346.449 100.731C346.946 100.523 346.58 101.081 347.241 101.571C348.576 102.557 349.505 104.685 349.318 106.322C349.226 107.132 349.973 107.224 349.485 107.442L234.84 157.161C234.345 157.36 233.716 157.241 233.059 156.756C231.726 155.769 230.797 153.642 230.984 152.005Z" fill="#04254E"/>
<path fill-rule="evenodd" clip-rule="evenodd" d="M230.985 152.005L231.438 152.056C231.479 151.709 231.571 151.438 231.687 151.244C231.804 151.05 231.939 150.932 232.088 150.862L231.896 150.447L232.079 150.867L346.632 101.15L346.449 100.731L346.628 101.152C346.649 101.143 346.662 101.139 346.662 101.139L346.619 100.973V101.143C346.649 101.143 346.662 101.139 346.662 101.139L346.619 100.973V101.143V100.829L346.532 101.13C346.566 101.141 346.598 101.144 346.619 101.143V100.829L346.532 101.13L346.628 100.801L346.365 101.022C346.394 101.061 346.463 101.113 346.532 101.13L346.628 100.801L346.365 101.022L346.539 100.875L346.328 100.966C346.328 100.968 346.335 100.988 346.365 101.022L346.539 100.875L346.328 100.966V100.966C346.33 100.974 346.346 101.021 346.365 101.087C346.397 101.188 346.447 101.332 346.543 101.485C346.639 101.639 346.779 101.798 346.969 101.939C347.502 102.331 347.992 102.965 348.336 103.682C348.684 104.397 348.885 105.194 348.883 105.89C348.883 106.02 348.876 106.147 348.862 106.271V106.27C348.855 106.334 348.851 106.397 348.851 106.458C348.851 106.636 348.883 106.797 348.931 106.933C349.004 107.137 349.112 107.283 349.178 107.37C349.21 107.413 349.231 107.441 349.231 107.442L349.396 107.34L349.215 107.408C349.224 107.432 349.231 107.441 349.231 107.442L349.396 107.34L349.215 107.408L349.533 107.288L349.194 107.288C349.194 107.343 349.206 107.385 349.215 107.408L349.533 107.288L349.194 107.288H349.565L349.231 107.125C349.208 107.171 349.192 107.235 349.194 107.288H349.565L349.231 107.125L349.497 107.255L349.32 107.014C349.309 107.023 349.268 107.053 349.231 107.125L349.497 107.255L349.32 107.014L349.375 107.09L349.325 107.01L349.32 107.014L349.375 107.09L349.325 107.01L349.318 107.014L349.295 107.025L349.485 107.442L349.302 107.022L234.659 156.741L234.84 157.161L234.67 156.736C234.574 156.774 234.471 156.794 234.352 156.795C234.084 156.795 233.73 156.682 233.331 156.387C232.8 155.996 232.31 155.362 231.964 154.645C231.619 153.929 231.417 153.132 231.417 152.437C231.417 152.306 231.424 152.178 231.438 152.057V152.056L230.985 152.005L230.529 151.952C230.511 152.111 230.502 152.273 230.502 152.437C230.504 153.304 230.742 154.216 231.14 155.043C231.541 155.87 232.1 156.614 232.786 157.124C233.299 157.502 233.83 157.709 234.352 157.71C234.579 157.71 234.803 157.67 235.012 157.586L235.023 157.581L349.68 107.856L349.673 107.859C349.757 107.819 349.838 107.779 349.927 107.697C349.973 107.655 350.018 107.6 350.053 107.527C350.089 107.456 350.11 107.367 350.11 107.288C350.108 107.178 350.078 107.094 350.051 107.036C350 106.934 349.957 106.885 349.925 106.839C349.872 106.771 349.838 106.721 349.81 106.666C349.787 106.611 349.769 106.555 349.767 106.458C349.767 106.434 349.769 106.406 349.774 106.374V106.373C349.792 106.214 349.799 106.053 349.799 105.89C349.799 105.022 349.561 104.111 349.162 103.283C348.762 102.457 348.201 101.713 347.514 101.203C347.415 101.129 347.363 101.066 347.326 101.008C347.269 100.92 347.248 100.845 347.209 100.717C347.2 100.685 347.187 100.648 347.168 100.604C347.141 100.54 347.095 100.448 346.992 100.36C346.942 100.317 346.877 100.28 346.811 100.258C346.742 100.236 346.678 100.228 346.619 100.228C346.475 100.23 346.374 100.267 346.271 100.308L231.706 150.03L231.703 150.031C231.371 150.184 231.097 150.445 230.902 150.774C230.703 151.104 230.582 151.501 230.529 151.953V151.952L230.985 152.005Z" fill="#04254E"/>
<path fill-rule="evenodd" clip-rule="evenodd" d="M345.604 102.275C345.792 100.638 347.024 100.11 348.356 101.097C349.689 102.083 350.618 104.21 350.433 105.847C350.245 107.485 349.013 108.013 347.681 107.026C346.349 106.04 345.419 103.912 345.604 102.275Z" fill="#0B065A"/>
<path fill-rule="evenodd" clip-rule="evenodd" d="M345.604 102.275L346.06 102.327C346.113 101.857 346.261 101.531 346.438 101.338C346.525 101.24 346.619 101.173 346.719 101.127C346.822 101.082 346.935 101.057 347.065 101.057C347.333 101.056 347.685 101.169 348.084 101.464C348.615 101.856 349.105 102.49 349.451 103.207C349.799 103.923 350 104.72 349.998 105.415C349.998 105.546 349.991 105.673 349.977 105.796C349.924 106.266 349.776 106.591 349.599 106.784C349.512 106.882 349.419 106.949 349.318 106.995C349.215 107.04 349.103 107.065 348.972 107.065C348.704 107.066 348.349 106.952 347.953 106.658C347.42 106.266 346.93 105.632 346.587 104.915C346.239 104.199 346.037 103.402 346.039 102.707C346.039 102.576 346.046 102.449 346.06 102.328V102.327L345.604 102.275L345.151 102.222C345.131 102.382 345.124 102.544 345.124 102.707C345.124 103.574 345.364 104.486 345.762 105.313C346.161 106.14 346.722 106.884 347.408 107.394C347.921 107.773 348.452 107.98 348.972 107.981C349.222 107.981 349.467 107.931 349.691 107.831C350.028 107.681 350.309 107.42 350.508 107.089C350.71 106.757 350.836 106.356 350.886 105.899C350.904 105.74 350.913 105.578 350.913 105.415C350.913 104.548 350.673 103.636 350.275 102.809C349.874 101.982 349.316 101.238 348.629 100.728C348.116 100.349 347.585 100.142 347.065 100.141C346.816 100.141 346.571 100.191 346.346 100.291C346.01 100.441 345.728 100.702 345.529 101.033C345.327 101.365 345.201 101.766 345.149 102.223L345.151 102.222L345.604 102.275Z" fill="#04254E"/>
<path fill-rule="evenodd" clip-rule="evenodd" d="M345.444 108.037L297.511 128.822L332.285 135.699C345.311 138.275 355.199 124.156 348.324 112.796L345.444 108.037Z" fill="#8AEBA0"/>
<path fill-rule="evenodd" clip-rule="evenodd" d="M345.444 108.037L345.261 107.617L295.982 128.986L332.198 136.148C333.281 136.362 334.345 136.464 335.38 136.464C339.819 136.465 343.739 134.589 346.538 131.684C349.338 128.779 351.03 124.84 351.033 120.688C351.033 117.985 350.311 115.193 348.716 112.559L345.627 107.458L345.261 107.617L345.444 108.037L345.053 108.274L347.933 113.033C349.441 115.527 350.115 118.147 350.117 120.688C350.117 124.588 348.521 128.308 345.879 131.049C343.235 133.789 339.558 135.548 335.38 135.548C334.405 135.548 333.4 135.452 332.374 135.249L299.041 128.658L345.625 108.457L345.444 108.037L345.053 108.274L345.444 108.037Z" fill="#04254E"/>
<path fill-rule="evenodd" clip-rule="evenodd" d="M343.164 102.862L342.514 98.7676C340.776 87.8413 326.919 84.1362 319.959 92.7371L295.277 123.244L343.164 102.862Z" fill="#8AEBA0"/>
<path fill-rule="evenodd" clip-rule="evenodd" d="M343.164 102.862L343.617 102.79L342.965 98.6955C342.409 95.1918 340.637 92.3878 338.247 90.4746C335.856 88.5599 332.853 87.5263 329.812 87.5261C326.101 87.5233 322.328 89.0776 319.604 92.4489L294.922 122.956L293.764 124.386L343.672 103.143L343.617 102.79L343.164 102.862L342.986 102.44L296.79 122.103L320.314 93.0252C322.866 89.8734 326.353 88.4443 329.812 88.4416C332.644 88.4414 335.451 89.4079 337.674 91.1891C339.897 92.9716 341.539 95.5597 342.061 98.8393L342.713 102.934L343.164 102.862L342.986 102.44L343.164 102.862Z" fill="#04254E"/>
<path fill-rule="evenodd" clip-rule="evenodd" d="M138.359 209.072L117.296 208.333L138.739 207.316L138.359 209.072Z" fill="#8AEBA0"/>
<path fill-rule="evenodd" clip-rule="evenodd" d="M138.359 209.072L138.375 208.615L128.411 208.264L138.166 207.802L137.912 208.974L138.359 209.072L138.375 208.615L138.359 209.072L138.807 209.169L139.313 206.831L117.273 207.875L117.28 208.791L138.725 209.542L138.807 209.169L138.359 209.072Z" fill="#04254E"/>
<path fill-rule="evenodd" clip-rule="evenodd" d="M136.14 207.442C136.245 207.259 136.383 207.165 136.522 207.161C136.522 207.161 144.73 203.521 159.769 203.44C181.255 203.328 184.199 204.175 184.208 204.175C184.771 204.18 184.187 204.567 184.622 205.313C185.497 206.813 185.51 209.244 184.654 210.744C184.228 211.483 184.911 211.881 184.35 211.888C184.341 211.891 181.435 212.648 159.931 212.749C144.844 212.82 136.536 209.081 136.536 209.081C136.396 209.077 136.257 208.983 136.149 208.8C135.929 208.424 135.927 207.815 136.14 207.442Z" fill="#8AEBA0"/>
<path fill-rule="evenodd" clip-rule="evenodd" d="M136.14 207.442L136.539 207.669C136.564 207.623 136.587 207.605 136.587 207.605L136.555 207.559L136.573 207.612L136.587 207.605L136.555 207.559L136.573 207.612L136.532 207.495L136.534 207.619L136.573 207.612L136.532 207.495L136.534 207.619L136.626 207.616L136.708 207.58L136.71 207.577C136.916 207.488 145.039 203.976 159.771 203.898C161.117 203.892 162.39 203.887 163.594 203.887C172.596 203.887 177.741 204.075 180.625 204.26C182.067 204.352 182.944 204.446 183.457 204.512C183.711 204.546 183.876 204.574 183.972 204.592C184.02 204.601 184.052 204.608 184.071 204.613L184.089 204.617L184.096 204.62L184.105 204.622L184.119 204.624L184.139 204.629L184.162 204.631L184.208 204.175L184.082 204.615L184.187 204.249L184.08 204.615H184.082L184.187 204.249L184.08 204.615L184.142 204.631L184.203 204.633H184.24L184.247 204.636V204.629L184.245 204.636H184.247V204.629L184.245 204.636L184.286 204.43L184.19 204.613C184.222 204.631 184.242 204.633 184.245 204.636L184.286 204.43L184.19 204.613L184.341 204.324L184.105 204.551C184.132 204.578 184.165 204.601 184.19 204.613L184.341 204.324L184.105 204.551L184.348 204.317L184.025 204.409C184.034 204.448 184.062 204.505 184.105 204.551L184.348 204.317L184.025 204.409L184.231 204.352H184.013C184.016 204.352 184.013 204.372 184.025 204.409L184.231 204.352H184.013V204.356C184.013 204.391 183.991 204.523 183.988 204.695C183.988 204.924 184.043 205.229 184.226 205.542C184.618 206.208 184.831 207.138 184.831 208.067C184.831 208.969 184.629 209.869 184.256 210.515C184.103 210.778 184.045 211.044 184.048 211.263C184.048 211.428 184.078 211.566 184.1 211.662C184.11 211.71 184.121 211.746 184.123 211.765L184.128 211.781L184.286 211.758H184.126L184.128 211.781L184.286 211.758H184.126H184.458L184.16 211.616C184.13 211.682 184.126 211.735 184.126 211.758H184.458L184.16 211.616L184.49 211.774L184.258 211.49C184.222 211.52 184.183 211.568 184.16 211.616L184.49 211.774L184.258 211.49L184.437 211.71L184.373 211.43C184.361 211.433 184.318 211.444 184.258 211.49L184.437 211.71L184.373 211.43L184.389 211.501L184.38 211.43H184.373L184.389 211.501L184.38 211.43C184.38 211.43 184.366 211.43 184.343 211.43H184.339C184.297 211.433 184.29 211.435 184.279 211.437C184.252 211.442 184.254 211.442 184.249 211.442L184.235 211.446C184.151 211.465 183.224 211.655 179.746 211.849C176.268 212.042 170.238 212.243 159.929 212.291C159.787 212.291 159.648 212.291 159.506 212.291C152.136 212.291 146.429 211.38 142.571 210.469C140.641 210.016 139.174 209.56 138.192 209.221C137.699 209.052 137.331 208.912 137.083 208.814C136.962 208.763 136.871 208.727 136.809 208.702C136.779 208.688 136.756 208.679 136.742 208.672L136.726 208.665L136.722 208.663H136.719L136.715 208.66L136.708 208.658L136.697 208.653L136.626 208.626L136.548 208.624L136.543 208.743L136.584 208.631L136.548 208.624L136.543 208.743L136.584 208.631L136.564 208.688L136.596 208.635L136.584 208.631L136.564 208.688L136.596 208.635L136.594 208.633C136.587 208.628 136.568 208.608 136.545 208.569C136.486 208.473 136.438 208.292 136.44 208.111C136.438 207.932 136.484 207.761 136.539 207.669L136.14 207.442L135.744 207.213C135.586 207.49 135.527 207.802 135.524 208.111C135.527 208.427 135.591 208.745 135.753 209.029C135.833 209.166 135.934 209.288 136.065 209.381C136.193 209.473 136.353 209.535 136.523 209.539L136.536 209.082L136.346 209.498C136.397 209.519 144.613 213.207 159.506 213.207C159.648 213.207 159.79 213.207 159.931 213.207H159.934C170.692 213.157 176.8 212.941 180.229 212.738C181.944 212.637 182.988 212.538 183.608 212.465C183.92 212.426 184.126 212.397 184.258 212.374C184.322 212.362 184.371 212.353 184.403 212.346L184.442 212.337H184.448L184.387 212.065L184.446 212.337H184.448L184.387 212.065L184.446 212.337L184.355 211.909L184.437 212.339L184.446 212.337L184.355 211.909L184.437 212.339L184.35 211.893L184.421 212.342L184.437 212.339L184.35 211.893L184.421 212.342L184.35 211.891L184.412 212.344L184.421 212.342L184.35 211.891L184.412 212.344L184.464 212.332H184.467L184.35 211.888L184.357 212.346C184.421 212.346 184.483 212.342 184.551 212.328C184.602 212.319 184.654 212.305 184.714 212.278C184.803 212.239 184.909 212.154 184.968 212.046C185.03 211.939 185.041 211.831 185.041 211.758C185.041 211.675 185.03 211.618 185.018 211.57C185.002 211.501 184.989 211.449 184.98 211.401C184.97 211.35 184.964 211.307 184.964 211.263C184.966 211.185 184.977 211.105 185.051 210.97C185.524 210.137 185.744 209.102 185.746 208.067C185.744 207.003 185.513 205.936 185.018 205.082C184.918 204.906 184.906 204.8 184.904 204.695C184.904 204.649 184.909 204.604 184.915 204.551C184.92 204.496 184.929 204.439 184.929 204.352C184.929 204.292 184.927 204.217 184.893 204.123C184.87 204.052 184.824 203.974 184.762 203.912C184.668 203.816 184.558 203.77 184.469 203.747C184.377 203.724 184.297 203.718 184.213 203.718H184.208V204.173L184.277 203.722C184.263 203.72 184.254 203.718 184.208 203.718V204.173L184.277 203.722L184.208 204.171L184.304 203.727L184.277 203.722L184.208 204.171L184.304 203.727L184.219 204.123L184.316 203.729L184.304 203.727L184.219 204.123L184.316 203.729C184.316 203.729 184.288 203.722 184.256 203.715C183.995 203.658 183.004 203.475 179.986 203.303C176.971 203.131 171.932 202.971 163.594 202.971C162.388 202.971 161.115 202.976 159.767 202.983C144.654 203.063 136.383 206.721 136.335 206.742L136.523 207.161L136.509 206.703C136.339 206.707 136.179 206.769 136.051 206.863C135.923 206.957 135.822 207.076 135.744 207.213L136.14 207.442Z" fill="#04254E"/>
<path fill-rule="evenodd" clip-rule="evenodd" d="M183.26 205.528C183.661 204.83 184.185 204.473 184.714 204.457L309.59 204.047C310.128 204.054 309.572 204.42 309.986 205.132C310.82 206.565 310.834 208.887 310.016 210.318C309.611 211.025 310.261 211.405 309.725 211.412L184.767 211.788C184.233 211.776 183.7 211.417 183.29 210.714C182.454 209.281 182.441 206.959 183.26 205.528Z" fill="#04254E"/>
<path fill-rule="evenodd" clip-rule="evenodd" d="M183.26 205.528L183.658 205.755C183.83 205.45 184.022 205.24 184.206 205.107C184.391 204.974 184.56 204.919 184.725 204.915L184.714 204.457V204.915L309.59 204.505V204.047L309.586 204.505L309.618 204.507H309.622L309.634 204.429L309.613 204.505L309.622 204.507L309.634 204.429L309.613 204.505L309.679 204.251L309.54 204.473C309.576 204.494 309.602 204.503 309.613 204.505L309.679 204.251L309.54 204.473L309.725 204.182L309.405 204.308C309.425 204.368 309.487 204.441 309.54 204.473L309.725 204.182L309.405 204.308L309.638 204.217H309.384C309.384 204.219 309.382 204.251 309.405 204.308L309.638 204.217H309.384V204.219C309.384 204.251 309.361 204.379 309.361 204.544C309.359 204.764 309.412 205.061 309.59 205.364C309.961 205.995 310.165 206.881 310.163 207.763C310.165 208.621 309.97 209.478 309.618 210.091C309.471 210.345 309.414 210.602 309.416 210.815C309.416 210.975 309.444 211.108 309.467 211.199C309.476 211.245 309.485 211.279 309.489 211.298L309.492 211.311L309.663 211.286L309.492 211.288V211.311L309.663 211.286L309.492 211.288H309.826L309.524 211.144C309.494 211.208 309.492 211.263 309.492 211.288H309.826L309.524 211.144L309.858 211.302L309.625 211.016C309.586 211.046 309.547 211.096 309.524 211.144L309.858 211.302L309.625 211.016L309.808 211.24L309.744 210.954C309.73 210.956 309.684 210.968 309.625 211.016L309.808 211.24L309.744 210.954L309.764 211.043L309.75 210.952L309.744 210.954L309.764 211.043L309.75 210.952L309.744 210.954H309.718L309.725 211.412L309.723 210.954L184.764 211.33L184.766 211.787L184.776 211.33C184.611 211.325 184.437 211.27 184.247 211.137C184.061 211.005 183.864 210.789 183.686 210.483C183.315 209.851 183.111 208.965 183.114 208.083C183.111 207.222 183.304 206.366 183.656 205.755L183.26 205.528L182.862 205.299C182.408 206.098 182.198 207.09 182.198 208.083C182.198 209.1 182.418 210.123 182.894 210.943C183.125 211.341 183.4 211.657 183.716 211.884C184.029 212.108 184.389 212.239 184.755 212.245L309.728 211.87H309.732C309.794 211.87 309.853 211.865 309.92 211.852C309.97 211.842 310.023 211.829 310.082 211.801C310.169 211.762 310.275 211.68 310.334 211.572C310.394 211.465 310.408 211.359 310.408 211.288C310.405 211.206 310.394 211.151 310.385 211.105C310.369 211.037 310.355 210.986 310.346 210.94C310.337 210.895 310.332 210.856 310.332 210.815C310.334 210.744 310.343 210.67 310.412 210.547V210.544C310.868 209.745 311.076 208.754 311.078 207.763C311.076 206.744 310.856 205.723 310.382 204.903C310.288 204.739 310.277 204.642 310.275 204.544C310.275 204.503 310.279 204.459 310.286 204.409C310.291 204.358 310.3 204.301 310.3 204.217C310.3 204.159 310.295 204.084 310.263 203.99C310.238 203.921 310.195 203.843 310.133 203.782C310.041 203.688 309.931 203.642 309.844 203.619C309.755 203.596 309.675 203.592 309.595 203.589L184.693 203.999H184.7C184.336 204.008 183.979 204.141 183.67 204.365C183.359 204.59 183.088 204.906 182.862 205.299L183.26 205.528Z" fill="#04254E"/>
<path fill-rule="evenodd" clip-rule="evenodd" d="M308.203 205.132C309.023 203.704 310.362 203.704 311.197 205.137C312.031 206.57 312.045 208.891 311.227 210.322C310.408 211.753 309.068 211.751 308.233 210.318C307.399 208.885 307.386 206.563 308.203 205.132Z" fill="#0B065A"/>
<path fill-rule="evenodd" clip-rule="evenodd" d="M308.203 205.132L308.601 205.361C308.778 205.05 308.974 204.835 309.162 204.704C309.35 204.571 309.524 204.521 309.693 204.519C309.86 204.519 310.037 204.571 310.229 204.706C310.419 204.839 310.618 205.054 310.801 205.368C311.172 206 311.376 206.884 311.374 207.767C311.376 208.626 311.181 209.482 310.829 210.096C310.653 210.405 310.456 210.62 310.268 210.753C310.08 210.883 309.906 210.936 309.737 210.936C309.567 210.936 309.393 210.883 309.201 210.75C309.011 210.618 308.81 210.4 308.629 210.086C308.258 209.455 308.054 208.571 308.056 207.687C308.054 206.826 308.249 205.972 308.601 205.361L308.203 205.132L307.807 204.906C307.351 205.705 307.143 206.696 307.141 207.687C307.143 208.706 307.363 209.729 307.837 210.549C308.072 210.952 308.354 211.275 308.677 211.499C308.997 211.726 309.364 211.852 309.737 211.852C310.11 211.852 310.476 211.726 310.794 211.499C311.115 211.275 311.392 210.954 311.623 210.549C312.079 209.75 312.287 208.759 312.289 207.767C312.287 206.749 312.067 205.728 311.593 204.908C311.358 204.503 311.076 204.182 310.753 203.956C310.433 203.729 310.066 203.603 309.693 203.603C309.32 203.603 308.954 203.729 308.636 203.956C308.315 204.18 308.038 204.503 307.807 204.906L308.203 205.132Z" fill="#04254E"/>
<path fill-rule="evenodd" clip-rule="evenodd" d="M305.778 210.364L253.533 210.517L282.761 230.574C293.711 238.088 308.372 229.024 306.545 215.872L305.778 210.364Z" fill="#50D270"/>
<path fill-rule="evenodd" clip-rule="evenodd" d="M305.778 210.363V209.906L252.063 210.064L282.502 230.952C285.316 232.884 288.384 233.754 291.36 233.754C295.481 233.752 299.423 232.094 302.342 229.308C305.261 226.524 307.159 222.6 307.157 218.095C307.157 217.348 307.106 216.584 306.999 215.81L306.177 209.903L305.778 209.906V210.363L305.325 210.425L306.09 215.936C306.193 216.668 306.241 217.39 306.241 218.095C306.241 222.339 304.462 226.018 301.71 228.646C298.958 231.272 295.231 232.838 291.36 232.838C288.562 232.836 285.685 232.026 283.022 230.196L255.002 210.97L305.781 210.819L305.778 210.363L305.325 210.425L305.778 210.363Z" fill="#04254E"/>
<path fill-rule="evenodd" clip-rule="evenodd" d="M305.73 204.709L306.749 200.689C309.471 189.965 298.203 181.087 288.414 186.238L253.686 204.512L305.73 204.709Z" fill="#8AEBA0"/>
<path fill-rule="evenodd" clip-rule="evenodd" d="M305.73 204.709L306.174 204.821L307.193 200.803C307.484 199.661 307.619 198.534 307.619 197.445C307.619 193.759 306.062 190.464 303.633 188.095C301.204 185.727 297.896 184.276 294.375 184.276C292.34 184.274 290.233 184.761 288.201 185.833L251.845 204.961L306.085 205.167L306.174 204.821L305.73 204.709L305.733 204.251L255.527 204.061L288.626 186.643C290.531 185.64 292.484 185.192 294.375 185.189C297.642 185.189 300.728 186.54 302.994 188.752C305.261 190.963 306.703 194.022 306.703 197.445C306.703 198.459 306.577 199.507 306.305 200.576L305.286 204.594L305.73 204.709L305.733 204.251L305.73 204.709Z" fill="#04254E"/>
<path fill-rule="evenodd" clip-rule="evenodd" d="M178.922 551.703H420.842C421.097 551.703 421.3 551.497 421.3 551.245C421.3 550.991 421.097 550.787 420.842 550.787H178.922C178.668 550.787 178.464 550.991 178.464 551.245C178.464 551.497 178.668 551.703 178.922 551.703Z" fill="#04254E"/>
<path fill-rule="evenodd" clip-rule="evenodd" d="M166.591 550.945H103.404C103.15 550.945 102.946 551.149 102.946 551.403C102.946 551.655 103.15 551.861 103.404 551.861H166.591C166.845 551.861 167.049 551.655 167.049 551.403C167.049 551.149 166.845 550.945 166.591 550.945Z" fill="#04254E"/>
<path fill-rule="evenodd" clip-rule="evenodd" d="M261.351 101.013L313.356 79.0407C313.59 78.9423 313.7 78.6735 313.601 78.4407C313.503 78.2079 313.233 78.0987 313.001 78.1971L260.994 100.17C260.762 100.268 260.652 100.537 260.751 100.77C260.849 101.003 261.117 101.112 261.351 101.013Z" fill="#04254E"/>
<path fill-rule="evenodd" clip-rule="evenodd" d="M319.664 76.3761L354.201 61.7838C354.435 61.6854 354.545 61.4166 354.446 61.1838C354.348 60.951 354.08 60.8418 353.846 60.9402L319.307 75.5325C319.075 75.6309 318.965 75.8997 319.064 76.1327C319.162 76.3653 319.43 76.4745 319.664 76.3761Z" fill="#04254E"/>
<path fill-rule="evenodd" clip-rule="evenodd" d="M346.614 76.3201L383.945 60.5483C384.178 60.4501 384.286 60.1813 384.187 59.9483C384.089 59.7157 383.821 59.6065 383.588 59.7049L346.259 75.4764C346.026 75.5749 345.916 75.8437 346.014 76.0765C346.113 76.3093 346.383 76.4185 346.614 76.3201Z" fill="#04254E"/>
<path fill-rule="evenodd" clip-rule="evenodd" d="M388.471 58.6357L413.262 48.1616C413.496 48.0632 413.604 47.7944 413.505 47.5616C413.407 47.3287 413.139 47.2198 412.905 47.318L388.116 57.7921C387.882 57.8906 387.772 58.1593 387.871 58.3922C387.969 58.625 388.24 58.734 388.471 58.6357Z" fill="#04254E"/>
<path fill-rule="evenodd" clip-rule="evenodd" d="M237.01 171.753L274.338 155.982C274.572 155.884 274.679 155.615 274.583 155.382C274.485 155.149 274.215 155.04 273.981 155.139L236.653 170.91C236.419 171.009 236.312 171.277 236.41 171.511C236.509 171.744 236.777 171.852 237.01 171.753Z" fill="#04254E"/>
<path fill-rule="evenodd" clip-rule="evenodd" d="M278.865 154.07L303.656 143.595C303.89 143.497 304 143.228 303.901 142.995C303.803 142.763 303.533 142.654 303.299 142.752L278.51 153.226C278.276 153.324 278.166 153.593 278.265 153.826C278.363 154.059 278.633 154.168 278.865 154.07Z" fill="#04254E"/>
<path fill-rule="evenodd" clip-rule="evenodd" d="M396.269 407.016C396.269 407.019 394.558 415.293 392.693 425.299C390.829 435.309 388.81 447.037 388.196 453.985C388.173 454.237 388.359 454.462 388.611 454.482C388.862 454.505 389.087 454.32 389.107 454.068C389.716 447.19 391.731 435.46 393.592 425.467C394.524 420.469 395.419 415.902 396.079 412.587C396.408 410.927 396.681 409.581 396.871 408.649C396.965 408.184 397.04 407.822 397.09 407.577C397.141 407.33 397.166 407.202 397.166 407.202C397.216 406.955 397.058 406.712 396.811 406.662C396.564 406.609 396.321 406.769 396.269 407.016Z" fill="#04254E"/>
<path fill-rule="evenodd" clip-rule="evenodd" d="M388.21 457.747C388.203 457.777 385.884 466.325 385.884 479.198C385.884 481.792 385.978 484.562 386.204 487.477C386.591 492.433 386.729 497.552 386.729 502.33C386.729 508.241 386.518 513.628 386.307 517.536C386.202 519.489 386.097 521.073 386.017 522.17C385.978 522.717 385.946 523.143 385.923 523.429C385.9 523.718 385.886 523.869 385.886 523.869C385.863 524.12 386.051 524.343 386.303 524.363C386.555 524.386 386.777 524.198 386.797 523.946C386.8 523.94 387.644 514.196 387.644 502.33C387.644 497.536 387.507 492.394 387.118 487.406C386.893 484.517 386.8 481.772 386.8 479.198C386.8 472.818 387.374 467.506 387.949 463.795C388.237 461.941 388.523 460.485 388.739 459.494C388.846 458.999 388.936 458.621 388.997 458.367C389.029 458.239 389.052 458.145 389.068 458.081C389.077 458.049 389.084 458.026 389.089 458.01L389.093 457.987C389.16 457.742 389.016 457.49 388.771 457.426C388.528 457.36 388.276 457.504 388.21 457.747Z" fill="#04254E"/>
</svg>
